<?xml version="1.0" encoding="UTF-8"?>
<svg width="15px" height="21px" viewBox="0 0 15 21" version="1.1" xmlns="http://www.w3.org/2000/svg" xmlns:xlink="http://www.w3.org/1999/xlink">
    <!-- Generator: Sketch 49 (51002) - http://www.bohemiancoding.com/sketch -->
    <title>Icon 24px</title>
    <desc>Created with Sketch.</desc>
    <defs></defs>
    <g id="Page-1" stroke="none" stroke-width="1" fill="none" fill-rule="evenodd">
        <g id="About_Desktops_Comments" transform="translate(-1140.000000, -405.000000)" fill="#3998D1">
            <g id="Group-2" transform="translate(180.000000, 153.000000)">
                <g id="Group-6-Copy" transform="translate(925.000000, 220.000000)">
                    <g id="ic_location_on-copy-2" transform="translate(35.000000, 32.000000)">
                        <g id="Icon-24px">
                            <path d="M7.5,0.0833333333 C3.46875,0.0833333333 0.208333333,3.34375 0.208333333,7.375 C0.208333333,12.84375 7.5,20.9166667 7.5,20.9166667 C7.5,20.9166667 14.7916667,12.84375 14.7916667,7.375 C14.7916667,3.34375 11.53125,0.0833333333 7.5,0.0833333333 L7.5,0.0833333333 Z M7.5,9.97916667 C6.0625,9.97916667 4.89583333,8.8125 4.89583333,7.375 C4.89583333,5.9375 6.0625,4.77083333 7.5,4.77083333 C8.9375,4.77083333 10.1041667,5.9375 10.1041667,7.375 C10.1041667,8.8125 8.9375,9.97916667 7.5,9.97916667 L7.5,9.97916667 Z" id="Shape"></path>
                        </g>
                    </g>
                </g>
            </g>
        </g>
    </g>
</svg>