<?xml version="1.0" encoding="UTF-8"?>
<svg width="10px" height="10px" viewBox="0 0 10 10" version="1.1" xmlns="http://www.w3.org/2000/svg" xmlns:xlink="http://www.w3.org/1999/xlink">
    <!-- Generator: Sketch 51.3 (57544) - http://www.bohemiancoding.com/sketch -->
    <title>Combined Shape</title>
    <desc>Created with Sketch.</desc>
    <defs></defs>
    <g id="Page-1" stroke="none" stroke-width="1" fill="none" fill-rule="evenodd" fill-opacity="0.5">
        <g id="Search_Desktops-2" transform="translate(-396.000000, -505.000000)" fill="#040303">
            <path d="M401.83189,510 L405.82771,513.99582 C406.05743,514.22554 406.05743,514.59799 405.82771,514.82771 C405.59799,515.05743 405.22554,515.05743 404.99582,514.82771 L401,510.83189 L397.00418,514.82771 C396.77446,515.05743 396.40201,515.05743 396.17229,514.82771 C395.94257,514.59799 395.94257,514.22554 396.17229,513.99582 L400.16811,510 L396.17229,506.00418 C395.94257,505.77446 395.94257,505.40201 396.17229,505.17229 C396.40201,504.94257 396.77446,504.94257 397.00418,505.17229 L401,509.16811 L404.99582,505.17229 C405.22554,504.94257 405.59799,504.94257 405.82771,505.17229 C406.05743,505.40201 406.05743,505.77446 405.82771,506.00418 L401.83189,510 Z" id="Combined-Shape"></path>
        </g>
    </g>
</svg>