<?xml version="1.0" encoding="UTF-8"?>
<svg width="21px" height="17px" viewBox="0 0 21 17" version="1.1" xmlns="http://www.w3.org/2000/svg" xmlns:xlink="http://www.w3.org/1999/xlink">
    <!-- Generator: Sketch 49 (51002) - http://www.bohemiancoding.com/sketch -->
    <title>Icon 24px</title>
    <desc>Created with Sketch.</desc>
    <defs></defs>
    <g id="Page-1" stroke="none" stroke-width="1" fill="none" fill-rule="evenodd">
        <g id="About_Desktops_Comments" transform="translate(-1137.000000, -1191.000000)" fill="#3998D1">
            <g id="Group-2" transform="translate(180.000000, 153.000000)">
                <g id="Group-6-Copy" transform="translate(925.000000, 220.000000)">
                    <g id="ic_mail" transform="translate(32.000000, 818.000000)">
                        <g id="Icon-24px">
                            <path d="M18.8333333,0.166666667 L2.16666667,0.166666667 C1.02083333,0.166666667 0.09375,1.10416667 0.09375,2.25 L0.0833333333,14.75 C0.0833333333,15.8958333 1.02083333,16.8333333 2.16666667,16.8333333 L18.8333333,16.8333333 C19.9791667,16.8333333 20.9166667,15.8958333 20.9166667,14.75 L20.9166667,2.25 C20.9166667,1.10416667 19.9791667,0.166666667 18.8333333,0.166666667 L18.8333333,0.166666667 Z M18.8333333,4.33333333 L10.5,9.54166667 L2.16666667,4.33333333 L2.16666667,2.25 L10.5,7.45833333 L18.8333333,2.25 L18.8333333,4.33333333 L18.8333333,4.33333333 Z" id="Shape"></path>
                        </g>
                    </g>
                </g>
            </g>
        </g>
    </g>
</svg>