<?xml version="1.0" encoding="UTF-8"?>
<svg width="57px" height="57px" viewBox="0 0 57 57" version="1.1" xmlns="http://www.w3.org/2000/svg" xmlns:xlink="http://www.w3.org/1999/xlink">
    <!-- Generator: Sketch 49 (51002) - http://www.bohemiancoding.com/sketch -->
    <title>flogo-HexRBG-Wht-58</title>
    <desc>Created with Sketch.</desc>
    <defs></defs>
    <g id="Page-1" stroke="none" stroke-width="1" fill="none" fill-rule="evenodd">
        <g id="flogo-HexRBG-Wht-58" fill="#FFFFFF" fill-rule="nonzero">
            <path d="M53.85,0 L3.15,0 C1.41030304,-1.06525716e-16 2.13051432e-16,1.41030304 0,3.15 L0,53.85 C2.13051432e-16,55.589697 1.41030304,57 3.15,57 L30.45,57 L30.45,35 L23,35 L23,26.33 L30.41,26.33 L30.41,20 C30.41,12.63 34.9,8.62 41.47,8.62 C43.7018746,8.62663119 45.9317717,8.75348163 48.15,9 L48.15,16.69 L43.61,16.69 C40.04,16.69 39.35,18.38 39.35,20.87 L39.35,26.37 L47.9,26.37 L46.79,35 L39.35,35 L39.35,57 L53.85,57 C55.589697,57 57,55.589697 57,53.85 L57,3.15 C57,1.41030304 55.589697,1.06525716e-16 53.85,0 Z" id="Shape"></path>
        </g>
    </g>
</svg>