<?xml version="1.0" encoding="utf-8"?>
<!-- Generator: Adobe Illustrator 19.0.0, SVG Export Plug-In . SVG Version: 6.00 Build 0)  -->
<svg version="1.1" id="Слой_1" xmlns="http://www.w3.org/2000/svg" xmlns:xlink="http://www.w3.org/1999/xlink" x="0px" y="0px"
	 viewBox="22.1 283.5 162 35" style="enable-background:new 22.1 283.5 162 35;" xml:space="preserve">
<style type="text/css">
	.st0{fill:#FFFFFF;}
</style>
<path class="st0" d="M22.7,301c0-9.1,7.4-16.6,16.5-16.6s16.5,7.4,16.5,16.6c0,9.1-7.4,16.5-16.5,16.5S22.7,310.1,22.7,301
	 M22.1,301c0,9.4,7.7,17.1,17.1,17.1s17.1-7.7,17.1-17.1c0-9.5-7.7-17.1-17.1-17.1S22.1,291.5,22.1,301 M50.2,299.2
	c-0.1,0.1-0.3,0.2-0.4,0.4c-0.9,0.7-2.5,1.3-4.5,1.8c-4.3,1.2-7.4,1.3-10.9,2.2c-0.7,0.2-1.4,0.4-2.1,0.7c0.6,0.4,1.4,0.6,2.1,0.9
	c1.5-0.4,2.1-0.6,4.2-0.9c0.8-0.1,3.3-0.6,5-0.9C46.7,302.6,51.4,301.1,50.2,299.2 M48.1,295.2c-0.7-0.3-1.5-0.6-2.4-0.8
	c-0.4,0.3-0.9,0.6-1.5,0.9c1.1,0.2,2,0.5,2.9,0.8C47.2,296.1,48,295.4,48.1,295.2 M32.4,299.5c4.2-1.2,8.6-1.6,13-2.8
	c-1.7-0.5-2.7-0.7-4.5-0.5c-2.6,0.3-5.6,0.9-8.1,1.6c-1,0.3-6.2,1.8-4.7,3.8C28.2,301.7,29.1,300.4,32.4,299.5 M29.6,306.5
	c0,0.4,0.2,0.7,0.7,1.2c0.1-0.2,0.2-0.4,0.3-0.5C30.2,306.9,29.9,306.7,29.6,306.5 M31.5,306.3c0.3-0.2,0.7-0.4,1.1-0.5
	c-0.6-0.3-1.2-0.5-1.8-0.8c-0.3,0.2-0.5,0.4-0.7,0.5C30.6,305.8,31,306.1,31.5,306.3 M47.5,297.4c-0.8,0.4-2,0.8-3.8,1.2
	c-1.4,0.4-4.9,0.9-8.6,1.7c-1.2,0.3-4.4,1-5.9,2.3c0.5,0.4,0.7,0.5,1.2,0.7c0.6-0.4,1.5-0.8,2.8-1.2c2.3-0.6,4-0.9,6-1.2
	c2-0.3,5.9-1.1,8-1.9c0.7-0.2,1.4-0.5,1.8-0.9C49,298,47.6,297.4,47.5,297.4 M48.8,296.7c0.4,0.2,0.8,0.4,1.2,0.6
	c0.3-0.5,0.1-0.8-0.5-1.3C49.3,296.3,49.1,296.5,48.8,296.7 M29.4,304.2c-0.4-0.2-0.6-0.4-0.9-0.5c-0.2,0.4,0.2,0.8,0.5,0.9
	C29.1,304.5,29.2,304.4,29.4,304.2 M47.1,292.7c-0.1,0.3-0.4,0.6-0.6,0.8c0.6,0.2,1.3,0.4,1.9,0.6C48.3,293.6,47.7,293.1,47.1,292.7
	 M27.5,296.3c4.4-2.8,9.2-4.6,17.4-3.1c0.5-0.3,0.7-0.5,0.8-1c-2.1-0.7-4.3-1-7.2-1c-2.6,0.1-7.2,1-9.7,2.5l0.8-0.9
	c1.7-1,6.3-2.4,9.6-2.4c2.4-0.1,3.6,0.1,6.5,0.8c-0.3-0.5-0.8-0.7-1.7-1.1c-2.7-1.2-7.9-1.4-12.1,0.5c0.5-0.4,1-0.7,1.7-1
	c1.4-0.6,3.6-1.3,6.5-1.2c2.3,0,5,0.8,6.6,2.5c0.3,0.4,0.5,0.7,0.5,0.9c1.3,0.7,2.1,1.3,2.5,2c0.2,0.4,0.3,0.8,0.2,1.3
	c0.5,0.3,0.8,0.6,1.1,1c0.2,0.3,0.3,0.6,0.4,0.9c0.1,0.4,0.1,0.9-0.3,1.4c0.5,0.2,0.8,0.8,0.8,1.1c0.2,1-0.4,1.9-1.3,2.7
	c-1,0.8-3.1,1.8-4.8,2.3c-3.4,0.9-6.5,1.2-8.8,1.7c1.1,0.3,2.5,0.6,4.9,0.6c5.1,0,9.6-2.4,9.6-2.4s-0.1,0.3-0.2,0.6
	c-3.3,2-8.4,2.8-10.6,2.7c-2.2-0.1-4.1-0.5-6-1c-0.5,0.2-1.1,0.4-1.7,0.5c2.8,1.3,4.9,1.6,7.3,1.7c2.5,0.2,6.5-0.4,9.9-1.6
	c-0.2,0.2-0.2,0.4-0.4,0.5c-1.7,0.9-5.5,1.8-7.3,1.9c-1.8,0.1-4.1,0-6.1-0.4c-1.7-0.4-3.1-0.9-4.5-1.5c-0.3,0.2-0.4,0.5-0.5,0.7
	c5.6,3,10.9,3,16.9,1.1l-0.5,0.5c-6.6,2.7-11.8,1.6-15.8-0.3c-0.1-0.1-0.3-0.1-0.4-0.2c0.4,0.6,3.4,2.9,6.8,3.2
	c2.4,0.2,5.2-0.2,6.9-0.9l-1,0.5c-0.8,0.4-3,1.3-6.1,1.1c-4.1-0.3-6.4-2.1-7.4-3c-0.5-0.5-0.7-0.9-0.8-1.6c-0.9-0.5-1.5-1-2-1.7
	c-0.3-0.4-0.2-0.9-0.2-1.4l0.1-0.4c-0.5-0.3-0.9-0.7-1.1-1c-0.4-0.7-0.2-1.4,0.1-1.8c-0.3-0.3-0.5-0.5-0.5-0.8
	c-0.1-0.3-0.1-0.6-0.1-1c0.1-0.6,0.4-1.2,0.8-1.6c0.9-1,2.3-1.8,4.7-2.6c2.4-0.8,3.3-0.9,5.1-1.3c2.1-0.5,4.6-0.6,6.6-1.4
	c-5.8-1-11.8-0.1-16.7,3.3L27.5,296.3z M77.9,298l0.7,4.6h-1.3L77.9,298z M72.7,308.4h3.5l0.5-2.6h2.4l0.4,2.6H83l-3-15h-4.4
	L72.7,308.4z M86.4,299.3c0.5,0,1.6-0.4,1.6-1.5c0-1.3-1.2-1.4-1.5-1.4c-0.4,0-1.2,0.1-1.9,0.4l0-3.3c1.2-0.3,2-0.4,3-0.4
	c2.8,0,4.1,2,4.1,3.9c0,1.9-1.1,3-2.2,3.5v0.1c1,0.3,2.4,1.3,2.4,3.6c0,2.8-2,4.4-4.5,4.4c-1.4,0-2.2-0.2-3.3-0.8l0.1-3.1
	c1,0.4,1.6,0.5,2.3,0.5c1.1,0,1.6-0.8,1.6-1.4c0-0.8-0.5-1.4-1.7-1.4h-1.4v-3.2L86.4,299.3L86.4,299.3z M93.5,293.4h9.5v15h-3.5
	v-11.4H97v11.4h-3.5V293.4z M108.4,296.7h0.8c0.8,0,1.3,0.5,1.3,1.7c0,1.6-0.8,1.7-1.3,1.7h-0.8V296.7z M105,308.4h3.5v-4.9h1.2
	c3.4,0,4.5-3.1,4.5-5.1c0-1.9-1.2-5-4.5-5H105V308.4z M120.5,305c-1.2,0-1.8-1.4-1.8-4.1s0.6-4.1,1.8-4.1c1.2,0,1.8,1.4,1.8,4.1
	C122.4,303.5,121.7,305,120.5,305 M120.5,308.6c4.1,0,5.5-3.9,5.5-7.7s-1.4-7.7-5.5-7.7c-4.1,0-5.5,3.9-5.5,7.7
	S116.4,308.6,120.5,308.6 M144.6,305.4V302h0.5c0.4,0,1.5,0,1.5,1.6c0,1.6-1.1,1.8-1.5,1.8L144.6,305.4L144.6,305.4z M141.2,308.4
	h4.1c0.9,0,4.6-0.4,4.7-4.9c0-3.8-2.9-4.5-4.8-4.5h-0.6v-2h4.6v-3.5h-8V308.4z M162.5,293.4h3.4v5.4h2.4v-5.4h3.4v15h-3.4v-6h-2.4v6
	h-3.4V293.4z M174,293.4h3.4v5.4h0.7l1.9-5.4h3.7l-2.6,7.1l3,7.9h-4l-2-6h-0.8v6H174V293.4z M66,293.4h7.1v3.7h-3.6v11.2H66
	L66,293.4L66,293.4z M127.7,293.4h2.9l2.6,3.5l2.6-3.5h2.9v15h-3.5v-9.1l-2.1,2.6l-2.1-2.6v9.1h-3.5L127.7,293.4L127.7,293.4z
	 M155.8,298l0.6,4.6h-1.3L155.8,298z M150.7,308.5h3.5l0.4-2.6h2.4l0.4,2.6h3.5l-3-15h-4.4L150.7,308.5z"/>
</svg>
