<?xml version="1.0" encoding="utf-8"?>
<!-- Generator: Adobe Illustrator 19.0.0, SVG Export Plug-In . SVG Version: 6.00 Build 0)  -->
<svg version="1.1" id="Слой_1" xmlns="http://www.w3.org/2000/svg" xmlns:xlink="http://www.w3.org/1999/xlink" x="0px" y="0px"
	 viewBox="18.1 283.5 170 35" style="enable-background:new 18.1 283.5 170 35;" xml:space="preserve">
<style type="text/css">
	.st0{fill:#FFFFFF;}
</style>
<path id="path3338" class="st0" d="M33,318.3c-1.6-0.2-4.3-1.1-5.8-1.9c-4.5-2.5-7.7-6.8-8.8-12c-0.4-1.7-0.4-5,0-6.7
	c1.2-5.7,5-10.4,10.2-12.6c4.1-1.8,8.2-2,12.3-0.7c3.1,0.9,5.2,2.3,7.5,4.7c3.1,3.3,4.7,7.3,4.7,11.9s-1.7,8.7-4.8,12
	c-2.3,2.4-4.5,3.8-7.5,4.7C38.2,318.5,35.7,318.6,33,318.3z M39.6,317.3c4.7-1.1,9-4.5,11.2-9c0.2-0.5,0.7-1.7,1-2.5
	c0.5-1.5,0.5-1.8,0.5-4.9c0-3.1,0-3.4-0.5-4.9c-1.6-4.8-4.8-8.4-9.3-10.5c-3.9-1.8-8.8-1.9-12.9-0.4c-4.9,1.8-8.9,6.3-10.4,11.5
	c-0.4,1.2-0.4,1.9-0.4,4.4c0,2.5,0.1,3.2,0.4,4.4c0.9,3.3,3.2,6.7,5.7,8.7C29.3,317.5,34.2,318.6,39.6,317.3z M33.8,313.8
	c-3.3-0.5-6.6-2.4-7.3-4.1c-0.1-0.3-0.5-0.8-0.9-1c-0.9-0.5-1.5-1.5-1.5-2.4c0-0.6-0.1-0.8-0.6-1.3c-0.5-0.5-0.6-0.6-0.5-1.5
	c0.1-0.6,0-1.1-0.2-1.3c-0.6-0.9,0-2.8,1.3-3.7c2-1.5,5.9-2.7,12.6-3.9c1.2-0.2,2.4-0.5,2.7-0.5c1.1-0.4-0.1-0.5-3.8-0.5
	c-3.1,0-3.8,0.1-5.3,0.4c-2.3,0.6-3.4,1-5.5,2.1c-1.5,0.8-1.7,0.9-1.6,0.5c0.4-0.9,4.1-2.8,7.3-3.6c1.4-0.4,2.1-0.4,5.3-0.4
	c1.9,0,4,0.1,4.5,0.2c0.9,0.2,0.9,0.2,1.4-0.3c0.2-0.2,0.4-0.5,0.3-0.6c-0.4-0.4-2.8-0.8-5.4-0.9c-2.1-0.1-3.2,0-4.7,0.2
	c-2.4,0.4-4.8,1.1-6,1.7c-0.9,0.5-0.9,0.5-0.7,0.1c0.5-0.8,4.1-2.1,7.7-2.7c2.3-0.4,5.4-0.3,7.6,0.2c0.8,0.2,1.4,0.3,1.5,0.2
	c0.2-0.2-0.8-0.7-2.2-1.2c-1.3-0.5-1.5-0.5-4.7-0.5c-3,0-3.5,0.1-4.8,0.5c-0.9,0.2-1.5,0.5-1.5,0.4c0-0.2,1.5-0.8,2.7-1.2
	c4.7-1.4,10.4-0.4,12.2,2.2c0.2,0.4,0.7,0.8,1.1,1c1.1,0.6,1.8,1.5,1.9,2.2c0.1,0.4,0.4,0.9,0.6,1.2c0.7,0.7,1.1,1.8,0.8,2.4
	c-0.2,0.4-0.1,0.5,0.2,0.9c0.8,1,0.4,2.2-0.9,3.4c-0.9,0.8-3.4,1.9-5.3,2.4c-1.3,0.4-7.7,1.5-8.3,1.5c-0.1,0-0.1,0.1,0.1,0.2
	c0.2,0.1,1.2,0.3,2.3,0.4c3.4,0.4,7.2-0.2,10.7-1.7c0.7-0.3,1.3-0.5,1.3-0.4c0,0.5-2.8,1.8-5.8,2.5c-3.5,0.8-6.6,0.8-10,0
	c-1.1-0.3-1.6-0.3-2.1-0.2c-1,0.3-0.9,0.5,0.1,0.9c4.4,1.7,9.5,1.7,14.9,0.1c1.8-0.5,1.9-0.2,0.3,0.4c-4.8,1.8-11,1.9-15.7,0.2
	c-1.5-0.6-1.8-0.6-2-0.4c-0.2,0.2-0.2,0.3,0.1,0.5c0.5,0.4,3.1,1.4,4.8,1.8c1.1,0.3,2,0.4,4.4,0.4c3,0,3.8-0.1,7.1-0.9
	c0.5-0.1,0.5-0.1,0.1,0.2c-0.5,0.4-2.8,1.1-4.4,1.4s-5.1,0.3-6.7,0c-1.3-0.2-3-0.8-4.5-1.4L28,310l0.6,0.6c1.1,0.9,3.6,2.1,5.3,2.4
	c1.7,0.3,4.3,0.2,6.1-0.2c0.6-0.1,1.1-0.2,1.1-0.2c0.1,0.1-1.8,0.8-2.7,1.1C37.4,313.8,34.9,314,33.8,313.8L33.8,313.8z M26.6,307.4
	c0-0.2-0.8-0.6-0.9-0.5c-0.2,0.2,0.5,0.9,0.7,0.8C26.5,307.5,26.6,307.4,26.6,307.4z M28.3,306.1l0.5-0.2l-0.9-0.4
	c-0.7-0.3-1-0.4-1.3-0.2c-0.4,0.2-0.4,0.3,0.4,0.8C27.5,306.5,27.7,306.5,28.3,306.1z M31.2,305.1c0.2-0.1,2.5-0.6,5-1
	c6.6-1.2,9.4-2.2,10.4-3.4c0.4-0.5,0.5-1.1,0.3-1.3c-0.1-0.1-0.8,0.3-1.8,0.7c-1.9,1-4.7,1.7-9.9,2.6c-3.8,0.6-6.8,1.4-6.8,1.6
	c0,0.2,1.7,0.9,2,0.9C30.6,305.3,30.9,305.2,31.2,305.1z M25.2,304.3c0-0.2-0.8-0.6-0.9-0.5c-0.2,0.2,0.5,0.9,0.7,0.8
	C25.2,304.5,25.2,304.4,25.2,304.3z M27.3,303c1.1-0.6,3.8-1.2,7.6-1.9c1.9-0.3,4.5-0.8,5.8-1.1c2.5-0.6,5-1.6,4.8-1.9
	c-0.1-0.1-0.4-0.3-0.7-0.5c-0.6-0.2-0.8-0.2-2.6,0.4c-1.1,0.4-2.8,0.8-3.7,0.9c-4.5,0.8-7.8,1.5-9.3,1.9c-1.7,0.5-3.8,1.5-3.8,1.8
	c0,0.1,0.9,0.7,1.1,0.7C26.6,303.4,26.9,303.2,27.3,303z M26.3,300.2c1.6-0.7,3.9-1.3,7.7-2.1c5.1-0.9,7.3-1.4,7.5-1.5
	c0.2-0.2-1.8-0.6-3-0.6c-1.6,0-5,0.6-8,1.4c-4.4,1.1-6.7,2.4-6.7,3.6c0,0.8,0.2,0.8,0.8,0.2C25.1,300.9,25.8,300.4,26.3,300.2z
	 M46.5,296.5c-0.1-0.5-0.5-0.6-0.9-0.2c-0.2,0.2-0.1,0.3,0.3,0.5C46.6,297.1,46.6,297.1,46.5,296.5z M44.1,295.5
	c0.2-0.2,0.4-0.4,0.4-0.5c0-0.1-0.5-0.4-1.1-0.5l-1.1-0.4l-0.8,0.4l-0.8,0.4l1.2,0.4C43.4,295.9,43.6,295.9,44.1,295.5z M44.9,293.8
	c0-0.1-0.2-0.4-0.5-0.7c-0.5-0.5-0.6-0.5-0.9-0.3c-0.4,0.4-0.3,0.6,0.5,0.9C44.7,294,44.9,294,44.9,293.8z M66.4,308.7
	c-1.1-0.2-1.7-0.6-2.5-1.5c-1.3-1.4-1.9-3.5-1.9-6.3c0.1-3.9,1.7-6.5,4.6-7.3c0.6-0.2,1.4-0.3,1.8-0.3c0.9,0,2.6,0.5,3.2,0.9
	l0.4,0.2l-0.5,1.5c-0.3,0.8-0.5,1.5-0.5,1.5c0,0.1-0.4-0.1-0.9-0.2c-0.5-0.2-1.2-0.4-1.8-0.4c-0.9,0-1.1,0.1-1.6,0.5
	c-0.8,0.8-1.2,2.2-1.1,4.3c0.1,2.5,0.9,3.7,2.2,3.5c0.7-0.1,1.2-0.7,1.4-1.7l0.1-0.7h-0.9h-0.9v-1.4v-1.4h2.6h2.6l-0.1,2.3
	c-0.1,2.8-0.6,4.3-1.7,5.4C69.8,308.7,68.1,309.1,66.4,308.7z M85,308.5c0-0.1,0.9-2.7,2.1-5.8l2.1-5.7l-2-0.1l-2-0.1l-0.1-1.8
	l-0.1-1.8h4.4c2.4,0,4.4,0.1,4.4,0.1c0,0.1-0.8,2.7-1.9,5.8l-1.9,5.7l2.1,0.1L94,305l-0.1,1.7l-0.1,1.7l-4.5,0.1
	C87,308.7,85,308.6,85,308.5L85,308.5z M120.3,308.2c-1.2-0.6-2.2-1.8-2.7-3.5c-0.6-1.9-0.6-5.5,0-7.4c0.8-2.7,2.5-4.1,5.1-4
	c3.7,0,5.6,2.7,5.6,7.7s-1.9,7.7-5.6,7.7C121.6,308.7,121.1,308.6,120.3,308.2z M123.6,304.6c1.2-1.2,1.2-6,0-7.3
	c-0.6-0.6-1.4-0.6-1.9-0.1c-0.6,0.6-0.8,1.6-0.8,3.7s0.2,3.1,0.8,3.7C122.3,305.2,123,305.2,123.6,304.6z M154.3,308.4
	c0-0.1,0.6-3.6,1.5-7.7l1.5-7.4h2.2c1.9,0,2.2,0.1,2.3,0.4c0.1,0.3,3,14.7,3,14.9c0,0.1-0.8,0.1-1.8,0.1h-1.8l-0.2-1.4l-0.2-1.4
	l-1.2,0.1l-1.2,0.1l-0.2,1.2l-0.2,1.2l-1.8,0.1C154.7,308.7,154.3,308.7,154.3,308.4L154.3,308.4z M160,302.2
	c-0.1-0.2-0.2-1.2-0.4-2.2c-0.1-0.9-0.3-1.7-0.3-1.7c-0.1,0.1-0.6,3.5-0.6,4c0,0.2,0.2,0.4,0.6,0.4
	C160.1,302.6,160.2,302.6,160,302.2L160,302.2z M73.4,308.4c0-0.1,0.6-3.5,1.5-7.6l1.5-7.4h2.2c2.1,0,2.2,0,2.3,0.4
	c0.1,0.5,3,14.5,3,14.6c0,0.1-0.8,0.1-1.8,0.1h-1.8l-0.1-0.5c-0.1-0.3-0.2-0.9-0.2-1.4l-0.1-0.8l-1.2,0.1l-1.2,0.1l-0.2,1.3
	l-0.2,1.3h-1.8C74.2,308.5,73.4,308.4,73.4,308.4z M79.1,302.5c0.1-0.1-0.1-1.1-0.2-2.2c-0.4-2.2-0.4-2.2-0.8,0.5
	c-0.3,1.8-0.3,1.9,0.4,1.9C78.8,302.6,79.1,302.6,79.1,302.5z M95.7,300.9v-7.6h2.9c3.4,0,4,0.2,5.1,1.5c1.4,1.6,1.7,3.9,0.7,6
	c-0.8,1.8-2.3,2.7-4.4,2.7h-0.9v2.5v2.5h-1.7h-1.7L95.7,300.9L95.7,300.9z M100.9,299.9c0.4-0.4,0.5-1.1,0.4-1.9
	c-0.2-0.9-0.4-1.2-1.4-1.2h-0.8v1.7v1.7h0.8C100.2,300.2,100.7,300,100.9,299.9z M106.3,300.9v-7.6h2.8c3.3,0,4,0.2,5.1,1.2
	c1.8,1.8,1.8,5,0,7.2l-0.5,0.6l1.4,3c0.8,1.7,1.4,3,1.4,3.1c0,0.1-0.9,0.1-1.9,0.1h-2l-0.5-1.3c-0.3-0.7-0.7-1.8-0.9-2.5
	c-0.4-0.9-0.5-1.2-0.8-1.3c-0.4-0.1-0.4,0-0.4,2.5v2.5h-1.8h-1.8L106.3,300.9L106.3,300.9z M111.6,299.8c0.3-0.3,0.4-0.6,0.4-1.3
	c0-1.2-0.4-1.8-1.4-1.8h-0.8v1.7v1.7h0.6C110.9,300.2,111.3,300,111.6,299.8z M130.1,300.9v-7.6h1.5h1.5l1.2,1.7
	c0.7,0.9,1.3,1.7,1.4,1.7c0.1,0,0.7-0.8,1.4-1.7l1.2-1.7h1.5h1.5v7.6v7.6h-1.8h-1.8l-0.1-4.5l-0.1-4.5l-1,1.3l-1,1.3l-0.6-0.7
	c-0.3-0.4-0.8-1-1.1-1.3l-0.5-0.6v4.6v4.6h-1.7H130L130.1,300.9L130.1,300.9z M143.7,300.9v-7.6l3.2,0.1c2.7,0.1,3.3,0.1,3.9,0.4
	c2.1,1.1,2.6,4,1.1,6l-0.6,0.7l0.8,0.8c2.2,2.1,1.4,5.8-1.4,6.8c-0.6,0.2-1.6,0.3-3.9,0.3h-3.1L143.7,300.9L143.7,300.9z
	 M149.2,304.7c0.2-0.2,0.4-0.6,0.4-1c0-0.8-0.5-1.2-1.7-1.2h-0.8v1.3v1.3h0.8C148.5,305.1,148.9,305,149.2,304.7z M148.8,298.9
	c0.3-0.2,0.4-0.5,0.4-0.9c0-0.8-0.5-1.3-1.4-1.3h-0.7v1.2v1.2h0.6C148.1,299.2,148.5,299.1,148.8,298.9L148.8,298.9z M165.9,300.9
	v-7.6h1.5h1.5l1.7,3.4l1.7,3.4v-3.4v-3.4h1.7h1.7v7.6v7.6h-1.5h-1.5l-1.6-3.4l-1.6-3.4l-0.1,3.4l-0.1,3.4h-1.8h-1.8L165.9,300.9
	L165.9,300.9z M178,300.9v-7.6h1.7h1.7v2.7c0,2.6,0,2.7,0.4,2.7s0.4-0.1,1.7-3.7l0.6-1.8h1.8c1,0,1.8,0.1,1.8,0.1s-0.6,1.7-1.3,3.6
	l-1.3,3.5l1.4,3.7c0.8,2.1,1.5,3.8,1.5,4c0.1,0.2-0.4,0.2-1.9,0.2l-2.1-0.1l-1-3c-0.8-2.5-1.1-3-1.4-3c-0.4-0.1-0.4-0.1-0.4,3v3
	h-1.7H178V300.9L178,300.9z"/>
</svg>
