<?xml version="1.0" encoding="utf-8"?>
<!-- Generator: Adobe Illustrator 19.0.0, SVG Export Plug-In . SVG Version: 6.00 Build 0)  -->
<svg version="1.1" id="Layer_1" xmlns="http://www.w3.org/2000/svg" xmlns:xlink="http://www.w3.org/1999/xlink" x="0px" y="0px"
	 viewBox="-205.7 278.4 93 45" style="enable-background:new -205.7 278.4 93 45;" xml:space="preserve">
<style type="text/css">
	.st0{fill:#FFFFFF;}
</style>
<g>
	<path class="st0" d="M-188.5,306.1v16.8c0,0.1-0.1,0.2-0.2,0.2h-3c-0.1,0-0.2-0.1-0.2-0.2v-5.8l0.3-5.8h-0.3l-4.9,7h-0.6l-4.9-7
		h-0.3l0.3,5.8v5.8c0,0.1-0.1,0.2-0.2,0.2h-3c-0.1,0-0.2-0.1-0.2-0.2v-16.8c0-0.1,0.1-0.2,0.2-0.2c0,0,2.3,0,3,0
		c0.1,0,0.3,0.1,0.3,0.2l5.1,7.2l5.1-7.2c0.1-0.1,0.2-0.2,0.3-0.2c0.7,0,3,0,3,0C-188.5,305.9-188.5,306-188.5,306.1z M-180.7,306.1
		c0-0.1-0.1-0.2-0.2-0.2h-3c-0.1,0-0.2,0.1-0.2,0.2v16.8c0,0.1,0.1,0.2,0.2,0.2h3c0.1,0,0.2-0.1,0.2-0.2V306.1z M-160,306.1
		c0-0.1-0.1-0.2-0.2-0.2h-3c-0.1,0-0.2,0.1-0.2,0.2v16.8c0,0.1,0.1,0.2,0.2,0.2h3c0.1,0,0.2-0.1,0.2-0.2L-160,306.1L-160,306.1z
		 M-174.2,310.2c0-1,0.9-1.6,2.2-1.6c1.4,0,2.3,0.5,3,1c0.1,0.1,0.3,0.1,0.3-0.1l1.2-2.3c0.1-0.1,0-0.3-0.1-0.3
		c-1-0.7-2.3-1.4-4.7-1.4c-3.2,0-5.4,2-5.4,4.6c0,5.2,7.7,5.1,7.7,8.3c0,1.3-1.2,1.8-2.5,1.8c-1.2,0-2.4-0.5-3.5-1.7
		c-0.1-0.1-0.3-0.1-0.3,0l-1.7,2c-0.1,0.1,0,0.3,0,0.3c1,1.4,3.5,2.6,5.6,2.6c3.8,0,6-2.1,6-5C-166.3,312.8-174.2,312.8-174.2,310.2
		z M-153.5,310.2c0-1,0.9-1.6,2.2-1.6c1.4,0,2.3,0.5,3,1c0.1,0.1,0.3,0.1,0.3-0.1l1.2-2.3c0.1-0.1,0.1-0.3-0.1-0.3
		c-1-0.7-2.3-1.4-4.7-1.4c-3.2,0-5.4,2-5.4,4.6c0,5.2,7.7,5.1,7.7,8.3c0,1.3-1.2,1.8-2.5,1.8c-1.2,0-2.4-0.5-3.5-1.7
		c-0.1-0.1-0.3-0.1-0.3,0l-1.7,2c-0.1,0.1,0,0.3,0,0.3c1,1.4,3.5,2.6,5.6,2.6c3.8,0,6-2.1,6-5C-145.6,312.8-153.5,312.8-153.5,310.2
		z"/>
	<path class="st0" d="M-136.8,300.7c0-2.8,2.3-5.2,5.2-5.2c2.8,0,5.2,2.3,5.2,5.2c0,2.8-2.3,5.2-5.2,5.2
		C-134.5,305.9-136.8,303.6-136.8,300.7z M-131.7,281.8v3.2c0,0.1,0.1,0.2,0.2,0.2c8.4,0.1,15.3,7,15.3,15.5
		c0,8.5-6.8,15.3-15.3,15.5c-0.1,0-0.2,0.1-0.2,0.2v3c0,0.1,0.1,0.2,0.2,0.2c10.4-0.1,18.7-8.5,18.7-18.9
		C-112.7,290.3-121.2,281.8-131.7,281.8z M-131.9,278.4c-10.7,0.1-19.7,7.8-21.8,17.9c0,0.1,0.1,0.3,0.2,0.3l3,0.6
		c0.1,0,0.2-0.1,0.3-0.2c1.7-8.6,9.4-15.2,18.5-15.2v-3.2C-131.7,278.5-131.7,278.4-131.9,278.4z M-131.7,288.7
		c-3.2,0-6.2,1.3-8.4,3.4c-0.1,0.1-0.1,0.2,0,0.3l2.1,2.1c0.1,0.1,0.2,0.1,0.3,0c1.6-1.5,3.6-2.4,5.9-2.4c4.7,0,8.6,3.8,8.6,8.6
		c0,4.7-3.8,8.6-8.6,8.6c-2.3,0-4.4-0.9-5.9-2.4c-0.1-0.1-0.2-0.1-0.3,0l-2.1,2.1c-0.1,0.1-0.1,0.2,0,0.3c2.1,2.1,5.1,3.4,8.4,3.4
		c6.7,0,12-5.4,12-12C-119.6,294.1-125,288.7-131.7,288.7z"/>
</g>
</svg>
