<?xml version="1.0" encoding="UTF-8"?>
<svg width="14px" height="23px" viewBox="0 0 14 23" version="1.1" xmlns="http://www.w3.org/2000/svg" xmlns:xlink="http://www.w3.org/1999/xlink">
    <!-- Generator: Sketch 49 (51002) - http://www.bohemiancoding.com/sketch -->
    <title>Icon 24px</title>
    <desc>Created with Sketch.</desc>
    <defs></defs>
    <g id="Page-1" stroke="none" stroke-width="1" fill="none" fill-rule="evenodd">
        <g id="About_Desktops_Comments" transform="translate(-1140.000000, -1140.000000)" fill="#3998D1">
            <g id="Group-2" transform="translate(180.000000, 153.000000)">
                <g id="Group-6-Copy" transform="translate(925.000000, 220.000000)">
                    <g id="ic_phone_iphone" transform="translate(35.000000, 767.000000)">
                        <g id="Icon-24px">
                            <path d="M11.1458333,0.0416666667 L2.8125,0.0416666667 C1.375,0.0416666667 0.208333333,1.20833333 0.208333333,2.64583333 L0.208333333,20.3541667 C0.208333333,21.7916667 1.375,22.9583333 2.8125,22.9583333 L11.1458333,22.9583333 C12.5833333,22.9583333 13.75,21.7916667 13.75,20.3541667 L13.75,2.64583333 C13.75,1.20833333 12.5833333,0.0416666667 11.1458333,0.0416666667 L11.1458333,0.0416666667 Z M6.97916667,21.9166667 C6.11458333,21.9166667 5.41666667,21.21875 5.41666667,20.3541667 C5.41666667,19.4895833 6.11458333,18.7916667 6.97916667,18.7916667 C7.84375,18.7916667 8.54166667,19.4895833 8.54166667,20.3541667 C8.54166667,21.21875 7.84375,21.9166667 6.97916667,21.9166667 L6.97916667,21.9166667 Z M11.6666667,17.75 L2.29166667,17.75 L2.29166667,3.16666667 L11.6666667,3.16666667 L11.6666667,17.75 L11.6666667,17.75 Z" id="Shape"></path>
                        </g>
                    </g>
                </g>
            </g>
        </g>
    </g>
</svg>