<svg width="30" height="39" viewBox="0 0 30 39" fill="none" xmlns="http://www.w3.org/2000/svg">
<g clip-path="url(#clip0)">
<path d="M5.50005 26H4.30005V29.1H5.60005C6.30005 29.1 6.80005 29 7.20005 28.7C7.50005 28.4 7.70005 28 7.70005 27.5C7.60005 26.6 6.90005 26 5.50005 26Z" fill="#3998D1"/>
<path d="M18.7 0H3.7C1.6 0 0 1.6 0 3.7V34.6C0 36.6 1.6 38.3 3.7 38.3H26.4C28.4 38.3 30.1 36.7 30.1 34.6V11.4L18.7 0ZM16.6 2.1L28 13.5H16.6V2.1ZM8.7 30C8 30.6 7 30.9 5.8 30.9H4.3V34.5H2.2V24.3H5.9C7.1 24.3 8.1 24.6 8.7 25.1C9.4 25.7 9.7 26.5 9.7 27.6C9.7 28.6 9.4 29.5 8.7 30ZM18.7 34.6H17L13 28.2V34.6H11V24.3H12.7L16.7 30.8V24.3H18.7V34.6ZM28.1 30.1C28.1 31.6 27.8 32.7 27.1 33.5C26.4 34.3 25.5 34.6 24.3 34.6C23.1 34.6 22.1 34.2 21.4 33.4C20.7 32.6 20.4 31.5 20.4 30V28.7C20.4 27.1 20.7 26 21.4 25.2C22.1 24.4 23.1 24 24.3 24C25.4 24 26.2 24.3 26.9 24.9C27.5 25.5 27.9 26.3 28.1 27.4H26.1C25.9 26.4 25.3 25.8 24.3 25.8C23.1 25.8 22.5 26.7 22.5 28.6V30.1C22.5 32 23.1 32.9 24.3 32.9C24.9 32.9 25.3 32.7 25.6 32.4C25.9 32.1 26.1 31.6 26.1 30.9H24.4V29.1H28.1V30.1Z" fill="#3998D1"/>
</g>
<defs>
<clipPath id="clip0">
<rect width="30" height="38.2" fill="white"/>
</clipPath>
</defs>
</svg>
