<?xml version="1.0" encoding="UTF-8"?>
<svg width="25px" height="25px" viewBox="0 0 25 25" version="1.1" xmlns="http://www.w3.org/2000/svg" xmlns:xlink="http://www.w3.org/1999/xlink">
    <!-- Generator: Sketch 51.3 (57544) - http://www.bohemiancoding.com/sketch -->
    <title>Shape</title>
    <desc>Created with Sketch.</desc>
    <defs></defs>
    <g id="Page-1" stroke="none" stroke-width="1" fill="none" fill-rule="evenodd" fill-opacity="0.5">
        <g id="Search_Desktops-1" transform="translate(-925.000000, -231.000000)" fill="#040303">
            <path d="M942.867353,246.72327 L941.738136,246.72327 L941.337907,246.337336 C942.738708,244.707833 943.582047,242.592338 943.582047,240.291023 C943.582047,235.15952 939.422527,231 934.291023,231 C929.15952,231 925,235.15952 925,240.291023 C925,245.422527 929.15952,249.582047 934.291023,249.582047 C936.592338,249.582047 938.707833,248.738708 940.337336,247.337907 L940.72327,247.738136 L940.72327,248.867353 L947.870212,256 L950,253.870212 L942.867353,246.72327 L942.867353,246.72327 Z M934.291023,246.72327 C930.731847,246.72327 927.858776,243.8502 927.858776,240.291023 C927.858776,236.731847 930.731847,233.858776 934.291023,233.858776 C937.8502,233.858776 940.72327,236.731847 940.72327,240.291023 C940.72327,243.8502 937.8502,246.72327 934.291023,246.72327 L934.291023,246.72327 Z" id="Shape"></path>
        </g>
    </g>
</svg>