<?xml version="1.0" encoding="utf-8"?>
<!-- Generator: Adobe Illustrator 19.0.0, SVG Export Plug-In . SVG Version: 6.00 Build 0)  -->
<svg version="1.1" id="Layer_1" xmlns="http://www.w3.org/2000/svg" xmlns:xlink="http://www.w3.org/1999/xlink" x="0px" y="0px"
	 viewBox="-316 275.5 67 50" style="enable-background:new -316 275.5 67 50;" xml:space="preserve">
<style type="text/css">
	.st0{fill:#FFFFFF;}
</style>
<g>
	<path class="st0" d="M-301.3,310.8c1.8,0,6.1-0.3,9.3-2.7v1.8h6.5l0-7.9l2.7-2.8l5.9,10.7h7.8l-9-15.2l8.7-9.6h-8l-8.2,9.4v-18.1
		h-6.5v2.9c-2-2.1-5.2-3.7-10.2-3.7c-10.9,0-12.9,6.6-12.9,10.3c0,5.1,2.7,7.9,7.5,9.1l6.7,1.7c3.6,0.9,6.1,1.5,6.1,4.2
		c0,3.5-3.7,4.3-7,4.3c-6.1,0-7.1-3.6-7.1-5.5h-6.7C-315.7,303.7-313.5,310.8-301.3,310.8 M-296.9,290.8l-8.2-2
		c-1.4-0.3-3.6-0.9-3.6-3.5c0-3,3.2-4,5.9-4c6.1,0,6.7,3.6,6.8,5.1h3.9v6.3C-293.5,291.8-295.2,291.2-296.9,290.8"/>
	<g>
		<path class="st0" d="M-313.5,325.3v-11.2h5.7c0.9,0,1.6,0.2,2.1,0.5c0.5,0.4,0.9,0.8,1.1,1.3c0.2,0.5,0.3,0.9,0.3,1.4
			c0,0.6-0.2,1.2-0.5,1.7c-0.3,0.5-0.7,0.8-1.3,1c0.4,0.2,0.6,0.3,0.8,0.5c0.2,0.2,0.3,0.4,0.4,0.8c0.1,0.4,0.2,0.9,0.2,1.6
			c0,0.6,0,1.1,0,1.3c0,0.3,0.1,0.5,0.1,0.6c0.1,0.1,0.2,0.2,0.4,0.3v0.3h-2.6c-0.2-0.6-0.2-1.3-0.2-2.3c0-0.6,0-1-0.1-1.3
			c-0.1-0.3-0.2-0.5-0.5-0.6c-0.3-0.1-0.7-0.2-1.2-0.2h-2.4v4.4H-313.5z M-311.2,319h2.7c0.6,0,1.1-0.1,1.4-0.4
			c0.3-0.2,0.4-0.6,0.4-1.2c0-0.4-0.1-0.7-0.4-1c-0.2-0.3-0.7-0.4-1.3-0.4h-2.9V319z"/>
		<path class="st0" d="M-297.5,322.8h2.2c-0.3,0.9-0.7,1.6-1.4,2c-0.7,0.4-1.4,0.6-2.2,0.6c-0.6,0-1.2-0.1-1.7-0.2
			c-0.5-0.2-0.9-0.4-1.3-0.8c-0.4-0.4-0.7-0.8-0.9-1.4c-0.2-0.6-0.3-1.3-0.3-2.1c0-0.3,0-0.7,0.1-1.2c0.1-0.4,0.3-0.9,0.5-1.4
			c0.3-0.5,0.7-0.8,1.2-1.2c0.5-0.3,1.2-0.5,2.1-0.5c0.5,0,0.9,0.1,1.4,0.2c0.4,0.1,0.9,0.4,1.2,0.7c0.4,0.3,0.7,0.8,0.9,1.4
			c0.2,0.6,0.4,1.4,0.4,2.3v0.4h-5.7c0,0.3,0.1,0.6,0.2,0.9c0.1,0.3,0.3,0.5,0.6,0.8c0.3,0.2,0.7,0.3,1.2,0.3c0.3,0,0.6-0.1,0.9-0.2
			C-297.8,323.3-297.6,323.1-297.5,322.8z M-300.8,320.3h3.4c-0.1-0.6-0.2-1.1-0.6-1.3c-0.3-0.3-0.7-0.4-1.1-0.4
			C-300.1,318.6-300.7,319.1-300.8,320.3z"/>
		<path class="st0" d="M-286.9,319.5h-2.1c-0.1-0.3-0.2-0.6-0.4-0.8c-0.2-0.2-0.6-0.3-1.1-0.3c-0.9,0-1.3,0.3-1.3,0.8
			c0,0.3,0.3,0.5,0.9,0.6c0.6,0.1,1.2,0.3,1.9,0.5c0.7,0.2,1.2,0.4,1.7,0.8c0.5,0.3,0.7,0.9,0.7,1.6c0,0.7-0.2,1.3-0.6,1.7
			c-0.4,0.4-0.9,0.7-1.4,0.9c-0.6,0.2-1.1,0.2-1.6,0.2c-1.1,0-2-0.2-2.8-0.7c-0.8-0.4-1.2-1.2-1.2-2.2h2.2c0,0.8,0.6,1.2,1.8,1.2
			c0.5,0,0.9-0.1,1.1-0.3c0.2-0.2,0.3-0.4,0.3-0.6c0-0.3-0.3-0.5-0.9-0.7c-0.6-0.2-1.2-0.3-1.9-0.5c-0.6-0.1-1.2-0.4-1.7-0.7
			c-0.5-0.3-0.7-0.9-0.7-1.6c0-0.5,0.1-0.9,0.3-1.3c0.2-0.4,0.6-0.8,1.1-1.1c0.5-0.3,1.2-0.4,2-0.4
			C-288.3,316.8-287,317.7-286.9,319.5z"/>
		<path class="st0" d="M-282.9,314v2h-2.2v-2H-282.9z M-285.1,317h2.2v8.3h-2.2V317z"/>
		<path class="st0" d="M-273.3,314.1v11.2h-2.1v-1h0c-0.5,0.8-1.3,1.3-2.4,1.3c-0.8,0-1.4-0.2-2-0.6c-0.5-0.4-0.9-1-1.2-1.6
			c-0.2-0.7-0.4-1.4-0.4-2.2c0-0.7,0.1-1.3,0.3-1.9c0.2-0.5,0.4-1,0.8-1.4c0.3-0.4,0.7-0.6,1.1-0.8c0.4-0.2,0.9-0.3,1.3-0.3
			c1,0,1.8,0.4,2.4,1.3h0v-4H-273.3z M-279.1,321.2c0,0.6,0.1,1.2,0.4,1.7c0.3,0.5,0.7,0.8,1.4,0.8c0.7,0,1.1-0.2,1.5-0.7
			c0.3-0.5,0.5-1,0.5-1.7c0-1.8-0.6-2.7-1.9-2.7c-0.6,0-1.1,0.2-1.4,0.7C-279,319.9-279.1,320.5-279.1,321.2z"/>
		<path class="st0" d="M-266.4,322.8h2.2c-0.3,0.9-0.7,1.6-1.4,2c-0.7,0.4-1.4,0.6-2.2,0.6c-0.6,0-1.2-0.1-1.7-0.2
			c-0.5-0.2-0.9-0.4-1.3-0.8c-0.4-0.4-0.7-0.8-0.9-1.4c-0.2-0.6-0.3-1.3-0.3-2.1c0-0.3,0-0.7,0.1-1.2c0.1-0.4,0.3-0.9,0.5-1.4
			c0.3-0.5,0.7-0.8,1.2-1.2c0.5-0.3,1.2-0.5,2.1-0.5c0.5,0,0.9,0.1,1.4,0.2c0.4,0.1,0.9,0.4,1.2,0.7c0.4,0.3,0.7,0.8,0.9,1.4
			c0.2,0.6,0.4,1.4,0.4,2.3v0.4h-5.7c0,0.3,0.1,0.6,0.2,0.9c0.1,0.3,0.3,0.5,0.6,0.8c0.3,0.2,0.7,0.3,1.2,0.3c0.3,0,0.6-0.1,0.9-0.2
			C-266.6,323.3-266.4,323.1-266.4,322.8z M-269.7,320.3h3.4c-0.1-0.6-0.2-1.1-0.6-1.3c-0.3-0.3-0.7-0.4-1.1-0.4
			C-269,318.6-269.5,319.1-269.7,320.3z"/>
		<path class="st0" d="M-255.1,319.5v5.7h-2.2v-5c0-0.3,0-0.5-0.1-0.8c-0.1-0.2-0.2-0.4-0.4-0.6c-0.2-0.2-0.5-0.3-0.9-0.3
			c-0.3,0-0.6,0.1-0.9,0.2c-0.3,0.1-0.5,0.4-0.6,0.7c-0.1,0.3-0.2,0.6-0.2,1v4.8h-2.2V317h2.1v1.2h0c0.6-1,1.4-1.4,2.5-1.4
			c0.6,0,1,0.1,1.5,0.3c0.4,0.2,0.8,0.5,1,0.9C-255.2,318.4-255.1,318.9-255.1,319.5z"/>
		<path class="st0" d="M-250.7,314.7v2.2h1.4v1.6h-1.4v4.5c0,0.2,0,0.3,0,0.4c0,0.1,0.1,0.1,0.2,0.2c0.1,0,0.3,0.1,0.6,0.1
			c0.1,0,0.2,0,0.5,0v1.6c-0.5,0-0.9,0-1,0h-0.3c-0.6,0-1.1-0.1-1.4-0.2c-0.3-0.1-0.5-0.3-0.7-0.6c-0.1-0.3-0.2-0.6-0.2-1v-5h-1.1
			V317h1.1v-2.2H-250.7z"/>
	</g>
</g>
</svg>
