<?xml version="1.0" encoding="UTF-8"?>
<svg width="76px" height="78px" viewBox="0 0 76 78" version="1.1" xmlns="http://www.w3.org/2000/svg" xmlns:xlink="http://www.w3.org/1999/xlink">
    <!-- Generator: Sketch 52.6 (67491) - http://www.bohemiancoding.com/sketch -->
    <title>Path</title>
    <desc>Created with Sketch.</desc>
    <g id="Page-1" stroke="none" stroke-width="1" fill="none" fill-rule="evenodd">
        <g id="ring" fill="#009EE2">
            <path d="M73.5,31 C73.3,30.2 73,29.3 72.7,28.5 C72.4,27.6 72,26.9 71.7,26.2 C71.4,25.5 71.1,24.9 70.7,24.3 C71,24.8 71.2,25.4 71.5,26 C71.7,26.7 72.1,27.5 72.3,28.3 C72.5,29.1 72.8,30 73.1,30.8 C73.9,34.3 74.4,38.3 73.9,42.8 C73.5,47.1 72.1,51.8 69.7,56.2 C67.3,60.4 63.8,64.4 59.2,67.4 C58.1,68.1 57,68.9 55.8,69.4 C55.3,69.6 54.6,70 54,70.2 C53.4,70.4 52.7,70.7 52.1,71 C49.5,72 46.8,72.7 44,72.8 L42.9,72.9 L41.8,73 C41.1,73 40.4,73 39.7,73 C38.3,72.9 36.8,72.9 35.5,72.5 C34.1,72.4 32.7,71.9 31.4,71.7 C30,71.2 28.7,70.8 27.5,70.2 C26.3,69.6 25.1,69 23.8,68.3 C23.2,68 22.6,67.6 22.1,67.2 L21.3,66.6 C21,66.5 20.7,66.2 20.5,66 L19.7,65.4 L19.3,65 L19.1,64.8 L19,64.7 L18.9,64.6 L17.4,63.1 C16.2,62.1 15.5,61 14.7,60 C14.3,59.6 14,58.9 13.6,58.3 L12.5,56.6 C12.2,56 11.9,55.4 11.6,54.8 C11.4,54.3 11,53.6 10.8,53 C10.4,51.8 9.8,50.6 9.6,49.3 C9.4,48.7 9.2,48.1 9.1,47.4 C9,46.8 8.9,46.2 8.8,45.6 C8.5,44.4 8.5,43.2 8.4,41.9 C8.3,40.7 8.4,39.4 8.5,38.2 C8.7,37 8.8,35.8 9.1,34.7 C9.2,34.1 9.4,33.6 9.5,33 L9.6,32.2 L9.9,31.4 C11.4,27.1 13.7,23.4 16.4,20.4 C17.2,19.6 17.8,18.9 18.5,18.3 C19.4,17.4 19.9,17 20.7,16.5 C22.1,15.3 23.6,14.5 25,13.7 C27.8,12.2 30.5,11.4 32.7,10.9 C34.9,10.4 36.7,10.2 37.9,10.3 C38.5,10.2 39,10.3 39.3,10.3 C39.6,10.3 39.7,10.3 39.7,10.3 L39.8,10.3 C42.5,10.4 44.8,8.1 44.8,5.3 C44.9,2.6 42.6,0.3 39.8,0.3 C39.6,0.3 39.6,0.3 39.5,0.3 C39.5,0.3 39.3,0.4 38.9,0.4 C38.5,0.4 37.9,0.4 37.1,0.5 C35.5,0.6 33.1,0.9 30.2,1.7 C27.3,2.5 23.8,3.7 20.3,5.8 C18.5,6.8 16.7,8.1 14.9,9.6 C14,10.4 13,11.2 12.4,12 C12.2,12.2 12,12.4 11.8,12.6 C11.6,12.8 11.3,13 11.2,13.3 C10.7,13.7 10.4,14.2 9.9,14.7 C6.7,18.6 4,23.5 2.4,29 L2.1,30 L1.9,31.1 C1.8,31.8 1.6,32.5 1.5,33.2 C1.2,34.7 1.1,36.1 1,37.7 C1,39.2 0.9,40.7 1.1,42.2 C1.3,43.7 1.3,45.2 1.7,46.8 C1.8,47.5 2,48.3 2.1,49.1 C2.3,49.9 2.6,50.6 2.8,51.4 C3.2,53 3.9,54.4 4.5,55.8 C4.8,56.5 5.2,57.2 5.6,57.9 C6,58.7 6.4,59.3 6.8,60 C7.3,60.7 7.7,61.4 8.2,62 C8.7,62.6 9.1,63.3 9.7,63.9 C10.8,65.2 11.9,66.6 13,67.4 L14.7,69 C14.7,69 14.8,69.1 14.8,69.1 C14.8,69.1 14.8,69.1 14.8,69.1 C14.8,69.1 14.8,69.1 14.8,69.1 L14.9,69.2 L15,69.3 L15.2,69.3 L15.7,69.7 L16.7,70.4 C17.1,70.6 17.3,70.9 17.7,71.1 L18.8,71.7 C19.6,72.1 20.2,72.6 20.9,72.9 C22.3,73.6 23.8,74.4 25.3,74.9 C26.8,75.6 28.4,75.9 29.9,76.4 C31.4,76.7 33,77.1 34.6,77.2 C36.2,77.4 37.7,77.4 39.3,77.4 C40.1,77.4 40.9,77.3 41.7,77.3 L42.9,77.2 L44,77.1 C47.1,76.7 50.1,75.8 52.9,74.7 C53.7,74.4 54.3,74.1 55,73.8 C55.7,73.5 56.3,73.1 57,72.7 C58.3,72 59.6,71 60.7,70.2 C61.2,69.8 61.7,69.3 62.3,68.9 L63.1,68.3 L63.3,68.1 C63.3,68.1 63.4,68 63.4,68 C63.5,67.9 63.4,68 63.4,68 L63.4,68.1 L63.5,68 L63.9,67.6 C64.4,67.1 64.9,66.6 65.4,66.1 C65.7,65.8 65.9,65.6 66.2,65.3 L66.9,64.5 C67.8,63.4 68.7,62.3 69.4,61.2 C69.8,60.6 70.1,60.1 70.5,59.5 C70.8,58.8 71.1,58.3 71.4,57.7 C73.8,52.8 74.9,47.9 75.1,43.3 C75.3,38.7 74.6,34.5 73.5,31 Z" id="Path"></path>
        </g>
    </g>
</svg>