<?xml version="1.0" standalone="no"?>
<!DOCTYPE svg PUBLIC "-//W3C//DTD SVG 20010904//EN"
 "http://www.w3.org/TR/2001/REC-SVG-20010904/DTD/svg10.dtd">
<svg version="1.0" xmlns="http://www.w3.org/2000/svg"
 width="567.000000pt" height="567.000000pt" viewBox="0 0 567.000000 567.000000"
 preserveAspectRatio="xMidYMid meet">
<metadata>
Created by potrace 1.11, written by Peter Selinger 2001-2013
</metadata>
<g transform="translate(0.000000,567.000000) scale(0.100000,-0.100000)"
fill="#000000" stroke="none">
<path d="M2741 5610 c-46 -28 -85 -50 -87 -50 -1 0 -52 -29 -113 -65 -60 -36
-114 -65 -120 -65 -6 0 -11 -4 -11 -10 0 -5 -4 -10 -9 -10 -4 0 -60 -30 -122
-66 -63 -37 -130 -76 -149 -86 -39 -22 -103 -60 -109 -65 -9 -7 -6 -1103 4
-1102 6 0 22 8 37 17 50 31 1384 803 1443 836 17 9 37 21 45 26 8 5 56 33 105
61 157 90 151 73 48 133 -49 29 -95 56 -103 60 -8 4 -24 12 -35 19 -17 10
-167 97 -227 132 -10 6 -77 44 -150 86 -73 43 -149 86 -168 97 -19 11 -67 38
-106 61 -39 22 -75 41 -80 41 -5 0 -47 -23 -93 -50z"/>
<path d="M1574 4937 c-164 -96 -319 -185 -344 -199 -25 -14 -103 -60 -175
-101 l-130 -76 -1 -826 -1 -826 66 -38 c36 -21 82 -48 101 -58 19 -11 58 -34
86 -51 28 -18 54 -32 58 -32 4 0 19 -9 34 -19 24 -17 437 -256 537 -311 22
-12 44 -26 50 -31 5 -5 14 -9 20 -9 7 0 10 419 9 1371 -1 753 -4 1372 -6 1374
-2 3 -139 -73 -304 -168z"/>
<path d="M3895 5016 c-11 -7 -47 -28 -80 -46 -33 -18 -64 -36 -70 -40 -5 -4
-27 -17 -47 -29 -21 -12 -53 -29 -70 -40 -18 -10 -78 -45 -133 -76 -55 -32
-113 -66 -130 -76 -16 -10 -42 -24 -56 -32 -106 -57 -329 -190 -329 -197 0 -4
57 -40 128 -80 245 -141 627 -362 682 -394 30 -19 75 -45 100 -58 79 -44 613
-353 665 -385 11 -7 27 -15 35 -19 8 -4 44 -25 79 -46 36 -21 69 -38 72 -38 4
0 6 248 5 551 l-1 551 -310 180 c-170 99 -332 192 -360 207 -27 16 -70 40 -95
55 -52 30 -59 31 -85 12z"/>
<path d="M3788 2477 l-3 -1374 -310 180 c-170 98 -411 237 -535 309 -294 170
-288 167 -340 196 -24 14 -84 49 -133 78 -49 30 -91 54 -92 54 -2 0 -43 23
-92 51 -48 28 -101 59 -118 69 -342 198 -421 244 -453 261 -20 12 -62 36 -92
54 -30 18 -185 108 -345 200 -159 92 -304 176 -321 186 l-32 19 3 -402 c3
-455 3 -459 80 -613 48 -98 111 -178 190 -242 42 -34 209 -136 385 -235 25
-14 139 -80 254 -147 115 -66 211 -121 213 -121 2 0 29 -16 59 -35 30 -19 56
-35 58 -35 2 0 107 -60 234 -134 126 -73 254 -147 283 -164 53 -29 200 -114
229 -132 17 -11 105 -62 165 -95 77 -44 480 -275 495 -285 73 -46 213 -121
217 -117 3 3 5 249 5 546 l0 541 26 19 c15 10 45 29 67 41 47 26 405 233 485
280 58 34 133 91 164 125 76 83 128 164 164 255 47 121 49 154 50 842 l0 648
-56 32 c-32 18 -65 38 -74 43 -15 9 -44 26 -178 102 -19 11 -172 100 -339 197
-167 97 -306 176 -307 176 -2 0 -5 -618 -6 -1373z"/>
<path d="M3585 2084 c-98 -57 -230 -133 -439 -254 -170 -98 -177 -104 -155
-116 13 -7 168 -96 344 -198 l320 -185 3 200 c1 109 1 288 0 397 l-3 197 -70
-41z"/>
</g>
</svg>
