<svg width="30" height="39" viewBox="0 0 30 39" fill="none" xmlns="http://www.w3.org/2000/svg">
<g clip-path="url(#clip0)">
<path d="M14.6 26H13.3V29.1H14.6C15.3 29.1 15.8 29 16.2 28.7C16.5 28.4 16.7 28 16.7 27.5C16.7 26.6 16 26 14.6 26Z" fill="#3998D1"/>
<path d="M18.7 0H3.7C1.6 0 0 1.6 0 3.7V34.6C0 36.6 1.6 38.3 3.7 38.3H26.4C28.4 38.3 30.1 36.7 30.1 34.6V11.4L18.7 0ZM9.8 26H5.5V28.3H9.4V30.1H5.5V32.8H9.8V34.6H3.4V24.3H9.8V26ZM17.8 30C17.1 30.6 16.2 30.9 15 30.9H13.4V34.5H11.3V24.3H15C16.2 24.3 17.2 24.6 17.8 25.1C18.5 25.7 18.8 26.5 18.8 27.6C18.8 28.6 18.4 29.5 17.8 30ZM26.2 33.9C25.6 34.4 24.7 34.7 23.6 34.7C21.8 34.7 20.5 34.1 19.6 33L21.2 31.9C21.5 32.3 21.8 32.5 22.2 32.7C22.5 32.9 23 32.9 23.5 32.9C24.6 32.9 25.1 32.5 25.1 31.8C25.1 31.4 24.9 31.1 24.6 30.9C24.3 30.7 23.7 30.5 23 30.2C22 29.9 21.2 29.5 20.7 29C20.2 28.5 20 27.8 20 27C20 26.1 20.3 25.4 20.9 24.9C21.5 24.4 22.4 24.1 23.5 24.1C25.2 24.1 26.4 24.7 27.1 25.8L25.5 26.9C25.3 26.5 25 26.3 24.7 26.1C24.4 25.9 24 25.9 23.5 25.9C23 25.9 22.7 26 22.4 26.2C22.2 26.4 22 26.7 22 27C22 27.4 22.2 27.7 22.5 27.9C22.8 28.1 23.3 28.3 24.1 28.5C25.2 28.8 26 29.2 26.5 29.6C27 30.1 27.2 30.7 27.2 31.6C27.1 32.6 26.8 33.3 26.2 33.9ZM16.6 13.4V2.1L28 13.5H16.6V13.4Z" fill="#3998D1"/>
</g>
<defs>
<clipPath id="clip0">
<rect width="30" height="38.2" fill="white"/>
</clipPath>
</defs>
</svg>
