<?xml version="1.0" encoding="UTF-8"?>
<svg width="105px" height="55px" viewBox="0 0 105 55" version="1.1" xmlns="http://www.w3.org/2000/svg" xmlns:xlink="http://www.w3.org/1999/xlink">
    <!-- Generator: Sketch 51.3 (57544) - http://www.bohemiancoding.com/sketch -->
    <title>Group 19</title>
    <desc>Created with Sketch.</desc>
    <defs></defs>
    <g id="Page-1" stroke="none" stroke-width="1" fill="none" fill-rule="evenodd">
        <g id="Footer_Desktops_eng" transform="translate(-165.000000, -35.000000)" fill="#FFFFFF">
            <g id="Group-19" transform="translate(165.000000, 35.000000)">
                <path d="M53.1886184,25.2458202 L57.038136,25.2458202 C60.6498026,25.2458202 62.5154605,22.9835833 62.5154605,18.8957325 C62.5154605,14.9270482 60.6498026,12.9031447 57.0781798,12.9031447 L53.1886184,12.9031447 L53.1886184,25.2458202 Z M56.2444956,27.5476184 L53.1886184,27.5476184 L53.1886184,38.3826184 L50.7280921,38.3826184 L50.7280921,10.600864 L57.0781798,10.600864 C62.1975219,10.600864 65.0155482,13.5776184 65.0155482,18.7370044 C65.0155482,23.5789342 62.71375,26.6748553 58.9037939,27.3888904 L65.7300658,38.3826184 L62.8724781,38.3826184 L56.2444956,27.5476184 Z" id="Fill-1"></path>
                <path d="M79.3020395,35.9616053 L76.4840132,32.5487105 L78.0717763,31.1592368 L80.929364,34.6121754 C81.7625658,33.4610351 82.1991886,31.834193 82.1991886,29.7702456 L82.1991886,19.2131404 C82.1991886,14.927 80.3340132,12.4664737 76.7223465,12.4664737 C73.1106798,12.4664737 71.2455044,14.927 71.2455044,19.2131404 L71.2455044,29.7702456 C71.2455044,34.056386 73.1106798,36.5169123 76.7223465,36.5169123 C77.7142763,36.5169123 78.5875219,36.3186228 79.3020395,35.9616053 Z M83.151557,40.6843684 L80.8502412,37.8663421 C79.6991009,38.5412982 78.3101096,38.8983158 76.7223465,38.8983158 C71.7216886,38.8983158 68.7454167,35.3657719 68.7454167,29.7702456 L68.7454167,19.2131404 C68.7454167,13.617614 71.7216886,10.0850702 76.7223465,10.0850702 C81.7230044,10.0850702 84.6997588,13.617614 84.6997588,19.2131404 L84.6997588,29.7702456 C84.6997588,32.6278333 83.9061184,34.969193 82.4770833,36.5569561 L84.7393202,39.2953772 L83.151557,40.6843684 Z" id="Fill-3"></path>
                <path d="M88.9454693,30.5243728 L88.9454693,18.4591096 C88.9454693,13.1014342 92.0013465,10.1251623 96.3670921,10.1251623 C100.891083,10.1251623 103.788232,12.9822675 104.066127,18.1416535 L101.685206,18.1416535 C101.407311,14.2125307 99.5020921,12.3473553 96.3670921,12.3473553 C93.3903377,12.3473553 91.3268728,14.3316974 91.3268728,18.4591096 L91.3268728,30.5243728 C91.3268728,34.6517851 93.469943,36.6361272 96.5258202,36.6361272 C99.700864,36.6361272 101.526478,34.6913465 101.923539,30.8418289 L104.304461,30.8418289 C103.907882,35.9216096 101.089855,38.8588026 96.5258202,38.8588026 C92.0809518,38.8588026 88.9454693,35.8820482 88.9454693,30.5243728" id="Fill-5"></path>
                <path d="M0,28.0489868 L27.6698246,44.0525395 L27.6698246,54.7037237 L3.57837719,40.7945132 C1.36390351,39.5160044 0,37.1534167 0,34.5963991 L0,28.0489868 Z" id="Fill-7"></path>
                <polygon id="Fill-9" points="10.7390395 15.100636 27.6602237 5.32028509 18.4457939 0.00024122807 10.7390395 4.47550439"></polygon>
                <polygon id="Fill-11" points="26.1455526 34.2815482 19.7578333 37.969443 26.1455526 41.6578202"></polygon>
                <polygon id="Fill-13" points="9.25693421 31.9070439 9.22412719 5.32708772 4.8245614e-05 10.6495439 4.8245614e-05 26.5623947"></polygon>
                <path d="M27.6747939,17.4916886 L27.6699693,44.0528289 L33.3060219,40.7986623 C35.5204956,39.5201535 36.8843991,37.1575658 36.8843991,34.6005482 L36.8843991,22.8117325 L27.6747939,17.4916886 Z" id="Fill-15"></path>
                <polygon id="Fill-17" points="19.7575921 11.4086404 36.8847851 21.2970614 36.8847851 10.6458772 28.9816711 6.08328947"></polygon>
            </g>
        </g>
    </g>
</svg>