<?xml version="1.0" encoding="UTF-8"?>
<svg width="105px" height="55px" viewBox="0 0 105 55" version="1.1" xmlns="http://www.w3.org/2000/svg" xmlns:xlink="http://www.w3.org/1999/xlink">
    <!-- Generator: Sketch 51.3 (57544) - http://www.bohemiancoding.com/sketch -->
    <title>Group 19</title>
    <desc>Created with Sketch.</desc>
    <defs></defs>
    <g id="Page-1" stroke="none" stroke-width="1" fill="none" fill-rule="evenodd">
        <g id="Footer_Desktops_rus" transform="translate(-165.000000, -35.000000)" fill="#FFFFFF">
            <g id="Group-19" transform="translate(165.000000, 35.000000)">
                <path d="M62.8469079,19.2265526 C62.8469079,15.1054123 61.1033114,13.0443596 57.3782675,13.0443596 L53.1780044,13.0443596 L53.1780044,25.6065526 L57.3782675,25.6065526 C61.1033114,25.6065526 62.8469079,23.6251053 62.8469079,19.2265526 M65.304057,19.2265526 C65.304057,24.9330439 62.4903728,27.9445351 57.3782675,27.9445351 L53.1780044,27.9445351 L53.1780044,38.4461579 L50.7208553,38.4461579 L50.7208553,10.7063772 L57.3782675,10.7063772 C62.4903728,10.7063772 65.304057,13.7974737 65.304057,19.2265526" id="Fill-1"></path>
                <polygon id="Fill-3" points="73.0705877 24.9330921 71.0891404 27.6276096 71.0891404 38.4462061 68.6324737 38.4462061 68.6324737 10.7064254 71.0891404 10.7064254 71.0891404 23.9421272 73.348 20.6927851 80.4415526 10.7064254 83.4930877 10.7064254 74.6559386 22.7929167 84.6022544 38.4462061 81.669886 38.4462061"></polygon>
                <polygon id="Fill-5" points="101.919487 38.4461579 87.2571623 38.4461579 87.2571623 10.7063772 89.7143114 10.7063772 89.7143114 36.1477368 99.3832149 36.1477368 99.3832149 10.7063772 101.840364 10.7063772 101.840364 36.1477368 104.297031 36.1477368 104.297031 43.0034386 101.919487 43.0034386"></polygon>
                <path d="M0,28.0489868 L27.6698246,44.0525395 L27.6698246,54.7037237 L3.57837719,40.7945132 C1.36390351,39.5160044 0,37.1534167 0,34.5963991 L0,28.0489868 Z" id="Fill-7"></path>
                <polygon id="Fill-9" points="10.7390395 15.100636 27.6602237 5.32028509 18.4457939 0.00024122807 10.7390395 4.47550439"></polygon>
                <polygon id="Fill-11" points="26.1455526 34.2815482 19.7578333 37.969443 26.1455526 41.6578202"></polygon>
                <polygon id="Fill-13" points="9.25693421 31.9070439 9.22412719 5.32708772 4.8245614e-05 10.6495439 4.8245614e-05 26.5623947"></polygon>
                <path d="M27.6747939,17.4916886 L27.6699693,44.0528289 L33.3060219,40.7986623 C35.5204956,39.5201535 36.8843991,37.1575658 36.8843991,34.6005482 L36.8843991,22.8117325 L27.6747939,17.4916886 Z" id="Fill-15"></path>
                <polygon id="Fill-17" points="19.7575921 11.4086404 36.8847851 21.2970614 36.8847851 10.6458772 28.9816711 6.08328947"></polygon>
            </g>
        </g>
    </g>
</svg>