<?xml version="1.0" encoding="UTF-8"?>
<svg width="517px" height="106px" viewBox="0 0 517 106" version="1.1" xmlns="http://www.w3.org/2000/svg" xmlns:xlink="http://www.w3.org/1999/xlink">
    <!-- Generator: Sketch 49 (51002) - http://www.bohemiancoding.com/sketch -->
    <title>gazprombank</title>
    <desc>Created with Sketch.</desc>
    <defs></defs>
    <g id="Page-1" stroke="none" stroke-width="1" fill="none" fill-rule="evenodd">
        <g id="gazprombank" fill="#FFFFFF" fill-rule="nonzero">
            <path d="M1.81,53.06 C1.8100004,32.3506231 14.2855622,13.6806129 33.4189187,5.75641198 C52.5522751,-2.16778893 74.5750924,2.21449889 89.2174029,16.8596698 C103.859713,31.5048408 108.237699,53.5285136 100.309761,72.6603218 C92.3818232,91.7921301 73.7093765,104.264045 53,104.26 C24.7497487,104.199478 1.86500401,81.3102626 1.81,53.06 M0,53.06 C0.0331282383,82.3232584 23.7766859,106.022064 53.0399547,105.999985 C82.3032235,105.977906 106.010993,82.2432977 105.999962,52.9800226 C105.988932,23.7167476 82.2632771,1.8751839e-05 53,7.10542736e-15 C23.7237786,0.0441219052 0.0109977449,23.7837474 0,53.06" id="Shape"></path>
            <path d="M86.78,47.64 C86.34,48.01 85.91,48.32 85.48,48.7 C82.55,50.93 77.88,52.7 71.48,54.43 C58.16,58.04 48.48,58.53 37.54,61.22 C35.3336646,61.7607643 33.1709449,62.4660716 31.07,63.33 C33.1949584,64.4002473 35.3746229,65.3582316 37.6,66.2 C41.8756344,64.891692 46.2450327,63.9121712 50.67,63.27 C53.16,62.83 60.76,61.46 66.24,60.35 C76.14,58.22 90.65,53.61 86.79,47.64 L86.78,47.64 Z M80.38,35.18 C77.9384876,34.1237242 75.4214851,33.2512971 72.85,32.57 C71.3880317,33.7209267 69.750448,34.6291947 68,35.26 C71.070317,35.9068054 74.1045048,36.714587 77.09,37.68 C77.59,37.93 79.95,35.76 80.34,35.18 L80.38,35.18 Z M31.87,48.45 C44.87,44.65 58.39,43.45 72.15,39.8 C66.8,38.37 63.8,37.74 58.15,38.43 C49.6659409,39.420032 41.2754545,41.0921098 33.06,43.43 C30,44.41 14,49 18.62,55.3 C18.62,55.37 21.35,51.51 31.87,48.45 Z M23,70.25 C22.94,71.44 23.69,72.49 25.25,73.8 C25.4585356,73.1712221 25.7730695,72.5827392 26.18,72.06 C25.09,71.49 24,70.94 23,70.25 Z M29,69.7 C30.1035035,69.0179538 31.272701,68.4484307 32.49,68 C30.69,67.19 28.76,66.39 26.89,65.51 C26.0822694,66.0077987 25.3134035,66.5660622 24.59,67.18 C26.08,68.06 27.52,68.86 29.01,69.68 L29,69.7 Z M78.75,42.17 C74.9849417,43.8270156 71.0660928,45.1098524 67.05,46 C62.63,47.12 51.92,48.67 40.41,51.16 C36.8,51.97 26.89,54.27 22.04,58.38 C23.2097342,59.2510276 24.4624537,60.004669 25.78,60.63 C28.4901832,58.951354 31.4556679,57.7253051 34.56,57 C40.7180108,55.4371991 46.9530882,54.1955241 53.24,53.28 C59.52,52.33 71.41,49.85 77.95,47.47 C79.9758421,46.8336126 81.8721276,45.841449 83.55,44.54 C82.0654531,43.5462546 80.454455,42.7558902 78.76,42.19 L78.75,42.17 Z M82.56,39.88 C83.8184732,40.3905712 85.0269654,41.0165768 86.17,41.75 C86.98,40.19 86.48,39.19 84.8,37.75 C84.1279336,38.5320781 83.3735828,39.2394916 82.55,39.86 L82.56,39.88 Z M22.35,63.21 C21.16,62.6 20.42,62.1 19.42,61.47 C18.92,62.6 19.93,63.83 20.92,64.4 C21.35,63.96 21.92,63.59 22.35,63.21 Z M77.35,27.47 C76.9270932,28.4526327 76.3155485,29.34277 75.55,30.09 C77.48,30.59 79.47,31.33 81.34,32.02 C81.09,30.28 79.1,28.59 77.34,27.48 L77.35,27.47 Z M16.46,38.48 C30.03,29.64 45.04,24.41 70.46,28.84 C71.7588375,28.206796 72.6951517,27.0124425 73,25.6 C66.64,23.3 59.74,22.49 50.84,22.6 C42.84,22.85 28.48,25.84 20.77,30.39 L23.13,27.46 C28.48,24.27 42.49,20.11 53.02,19.92 C60.42,19.74 64.22,20.17 73.02,22.54 C72.21,21.06 70.4,20.3 67.73,19.06 C59.21,15.26 43.33,14.88 30.32,20.67 C31.9985988,19.4881026 33.7947984,18.482767 35.68,17.67 C42.0186917,14.9438648 48.8847322,13.6628871 55.78,13.92 C62.78,14.05 71.16,16.47 76.26,21.52 C76.993164,22.367309 77.5263258,23.3686964 77.82,24.45 C81.82,26.51 84.23,28.45 85.54,30.68 C86.1208679,31.878394 86.2963554,33.2331574 86.04,34.54 C87.3639754,35.2888524 88.5128952,36.3116297 89.41,37.54 C89.9666115,38.4363833 90.3467652,39.4308925 90.53,40.47 C90.8825617,41.9966279 90.5138348,43.6005896 89.53,44.82 C90.79857,45.5987541 91.7323742,46.8212536 92.15,48.25 C92.83,51.25 90.84,54.25 88.29,56.59 C85.29,59.2 78.7,62.32 73.34,63.69 C62.76,66.36 53.34,67.49 45.9,68.86 C50.9179647,70.1399359 56.0817008,70.7585085 61.26,70.7 C77.13,70.7 91.13,63.22 91.13,63.22 C91.13,63.22 90.82,64.16 90.51,65.04 C80.43,71.14 64.43,73.69 57.58,73.38 C51.3111749,73.1343199 45.1000898,72.0823342 39.1,70.25 C37.3501637,70.7413523 35.6277264,71.3255122 33.94,72 C42.66,76 49.25,76.86 56.66,77.42 C64.25,77.99 76.83,76.17 87.41,72.32 C86.91,72.82 86.66,73.56 86.17,74 C80.75,76.86 69.3,79.73 63.51,80 C57.2213061,80.3011796 50.9184548,79.9256906 44.71,78.88 C39.8816716,77.8580478 35.1849425,76.2913532 30.71,74.21 C29.9890893,74.758897 29.5002358,75.5581903 29.34,76.45 C46.84,85.6 63.14,85.79 81.76,80 L80.07,81.62 C59.59,89.97 43.59,86.72 31.2,80.75 C30.750364,80.5754524 30.3156085,80.3647632 29.9,80.12 C31.08,82.12 40.54,89.03 51.12,89.9 C58.41,90.52 67.31,89.28 72.6,87.17 L69.49,88.78 C63.6278927,91.5522119 57.146409,92.7547838 50.68,92.27 C38.05,91.4 30.94,85.79 27.77,82.87 C26.3925858,81.5730277 25.473214,79.864119 25.15,78 C22.6230609,76.8104216 20.489125,74.9228425 19,72.56 C18.3173106,71.281566 18.1388961,69.793589 18.5,68.39 L18.88,67.28 C17.567191,66.4696056 16.4229688,65.4136618 15.51,64.17 C14.5389912,62.3647368 14.6826174,60.1637632 15.88,58.5 C15.1485396,57.7410916 14.5591999,56.857082 14.14,55.89 C13.786481,54.8903033 13.6767725,53.820645 13.82,52.77 C14.1580354,50.8538893 15.0477119,49.0780115 16.38,47.66 C19.11,44.49 23.48,41.99 30.88,39.57 C36.0202054,37.8765824 41.2644646,36.5170834 46.58,35.5 C52.99,34.01 60.65,33.5 67.06,31.28 C49.18,28.16 30.64,31 15.51,41.41 L16.46,38.48 Z" id="Shape"></path>
            <path d="M516.45,76.11 C514.23,76.58 511.99,76.24 509.76,76.25 C509.29,76.25 508.81,76.25 508.34,76.18 C507.15,76.08 505.65,76.61 504.84,75.89 C504.03,75.17 503.95,73.73 503.56,72.59 C502.24,68.73 500.95,64.87 499.56,61.02 C499.243165,60.2232552 498.854917,59.4567997 498.4,58.73 C498.140877,58.2590893 497.607871,58.0087379 497.08,58.11 C496.621356,58.2861069 496.358571,58.7692918 496.46,59.25 C496.249342,61.9946316 496.185917,64.7485804 496.27,67.5 C496.23,70.1266667 496.23,72.7533333 496.27,75.38 C496.27,76.16 496.11,76.38 495.27,76.38 C492.476667,76.3266667 489.68,76.3266667 486.88,76.38 C486.06,76.38 485.88,76.13 485.88,75.38 C485.88,60.7466667 485.88,46.1133333 485.88,31.48 C485.793056,31.173778 485.880295,30.8445206 486.107459,30.621524 C486.334624,30.3985274 486.66544,30.3174001 486.97,30.41 C489.68,30.41 492.39,30.47 495.1,30.41 C496,30.41 496.26,30.63 496.25,31.54 C496.25,35.54 496.25,39.46 496.25,43.42 C496.25,44.32 496.39,45.22 496.46,46.12 C496.406761,46.5824184 496.70729,47.0117459 497.16,47.12 C497.639227,47.272786 498.15736,47.0458353 498.37,46.59 C498.852949,45.7540678 499.28377,44.8890855 499.66,44 C501.2,39.86 502.74,35.71 504.2,31.54 C504.351221,30.7782975 505.086275,30.2793519 505.85,30.42 C509.11,30.5 512.38,30.42 515.85,30.63 C514.95,33.1 514.1,35.46 513.23,37.8 C511.543333,42.3466667 509.843333,46.8866667 508.13,51.42 C507.888076,51.9217104 507.86633,52.5015798 508.07,53.02 C510.736667,59.94 513.403333,66.8633333 516.07,73.79 C516.083481,74.0059337 516.20855,74.1992225 516.4,74.3 L516.4,76.11 L516.45,76.11 Z" id="Shape"></path>
            <path d="M363.26,49 L357.26,56.44 C355.15,53.78 353.1,51.19 350.61,48.55 C350.61,49.25 350.61,49.69 350.61,50.14 C350.61,58.44 350.61,66.74 350.61,75.05 C350.61,76.16 350.28,76.4 349.24,76.37 C346.57,76.3 343.9,76.31 341.24,76.37 C340.43,76.37 340.24,76.14 340.24,75.37 C340.24,60.7433333 340.24,46.1166667 340.24,31.49 C340.24,30.65 340.45,30.38 341.31,30.4 C343.63,30.46 345.96,30.4 348.31,30.4 C348.945893,30.346004 349.55894,30.6505997 349.9,31.19 C351.953333,34.0033333 354.043333,36.7866667 356.17,39.54 C357.27,40.96 357.33,40.92 358.43,39.54 C360.62,36.89 362.57,34.05 364.57,31.25 C364.947123,30.6289457 365.646883,30.2790657 366.37,30.35 C368.78,30.41 371.19,30.35 373.6,30.35 C374.38,30.35 374.72,30.46 374.72,31.35 C374.72,46.0166667 374.72,60.6833333 374.72,75.35 C374.72,76.07 374.54,76.3 373.8,76.29 C370.87,76.29 367.95,76.23 365.02,76.29 C364.08,76.29 363.81,76.09 363.8,75.1 C363.8,66.8 363.64,58.5 363.55,50.19 C363.55,49.81 363.55,49.43 363.55,49.05 L363.26,49" id="Shape"></path>
            <path d="M468.75,50.29 C468.75,45.8233333 468.75,41.3566667 468.75,36.89 C468.75,35.08 468.75,33.28 468.75,31.47 C468.75,30.74 468.87,30.39 469.75,30.41 C472.543333,30.4633333 475.34,30.4633333 478.14,30.41 C478.98,30.41 479.14,30.71 479.14,31.41 C479.14,46.0366667 479.14,60.6633333 479.14,75.29 C479.14,76.17 478.85,76.35 478.05,76.29 C475.81,76.29 473.57,76.22 471.34,76.29 C470.612744,76.3833974 469.92563,75.9338045 469.72,75.23 C466.95,69.23 464.13,63.35 461.32,57.41 C461.12,56.98 460.91,56.56 460.67,56.07 C460.43508,56.3462174 460.356036,56.7226168 460.46,57.07 C460.36,63.13 460.26,69.2 460.21,75.26 C460.21,76.1 459.98,76.34 459.14,76.32 C456.14,76.27 453.2,76.32 450.24,76.32 C449.977103,76.3966784 449.693312,76.3239723 449.49967,76.1303301 C449.306028,75.9366879 449.233322,75.6528974 449.31,75.39 C449.31,60.7233333 449.31,46.0566667 449.31,31.39 C449.31,30.48 449.64,30.39 450.43,30.39 C452.67,30.39 454.9,30.46 457.14,30.39 C458.005175,30.2432273 458.850099,30.7417322 459.14,31.57 C462.09,37.57 465.14,43.47 468.14,49.41 C468.29,49.71 468.46,50 468.62,50.3 L468.89,50.3" id="Shape"></path>
            <path d="M381.59,53.31 C381.59,46.09 381.59,38.86 381.59,31.64 C381.59,30.64 381.85,30.36 382.86,30.39 C388.23,30.54 393.6,30.65 398.97,30.88 C405.55,31.16 409.45,37.2 408.97,43.21 C408.696703,46.2332884 407.406476,49.0746069 405.31,51.27 C404.57,52.08 404.68,52.53 405.46,53.2 C407.819647,55.0360975 409.563773,57.547639 410.46,60.4 C412.38,67.23 408.08,75.75 399.4,76.19 C393.77,76.47 388.14,76.28 382.51,76.41 C381.51,76.41 381.68,75.83 381.68,75.25 C381.68,67.9166667 381.68,60.6066667 381.68,53.32 M394.28,66.06 C395.055999,66.0785024 395.831444,66.0046505 396.59,65.84 C398.398629,65.3421558 399.598828,63.6299832 399.45,61.76 C399.532874,60.0066977 398.259896,58.4817309 396.52,58.25 C395.356085,58.0651987 394.178351,57.9815528 393,58 C392.19,57.94 391.88,58.16 391.91,59 C391.98,60.63 391.91,62.26 391.91,63.89 C391.91,66.02 391.91,66.02 394.19,66 M391.91,44.48 C391.91,44.9066667 391.91,45.3366667 391.91,45.77 C391.91,48.41 392.24,48.67 394.91,48.08 C397.21,47.58 398.19,46.55 398.19,44.63 C398.19,42.05 396.82,40.77 393.86,40.73 C391.43,40.73 391.97,40.5 391.91,42.55 C391.91,43.19 391.91,43.84 391.91,44.48" id="Shape"></path>
            <path d="M334.48,53.46 C334.48,58.52 334,63.51 331.8,68.16 C329.26,73.52 325.02,76.51 319.09,76.86 C310.83,77.34 305.21,73.77 302.72,65.86 C299.85,56.76 299.77,47.54 303.72,38.66 C306.51,32.32 311.72,29.59 318.56,29.91 C325.4,30.23 329.84,33.6 332.34,39.79 C333.951308,44.1573945 334.691906,48.7980224 334.52,53.45 M312.2,53.36 C312.2,56.36 312.2,59.36 313.2,62.15 C313.94,64.15 315.14,65.75 317.45,65.97 C319.22,66.13 321.11,64.56 322.03,62.37 C322.03,62.29 322.09,62.21 322.12,62.13 C323.356236,58.6759518 323.817138,54.9921533 323.47,51.34 C323.441301,48.5755082 322.755787,45.8574459 321.47,43.41 C319.47,40.07 315.87,40.03 313.82,43.31 C313.437054,43.932261 313.144146,44.6056111 312.95,45.31 C312.310973,47.9464914 312.045047,50.6596074 312.16,53.37" id="Shape"></path>
            <path d="M268,53.46 C268,46.19 268,38.92 268,31.64 C268,30.7 268.19,30.39 269.19,30.41 C273.83,30.5 278.48,30.41 283.12,30.64 C289.55,31 294.35,35 295.65,41.36 C296.832369,46.6246624 295.377286,52.1353209 291.75,56.13 C290.65537,57.1404441 290.468017,58.8010662 291.31,60.03 C293.76,64.95 296.05,69.94 298.4,74.91 C299.02,76.23 298.99,76.31 297.5,76.33 C294.27,76.33 291.05,76.33 287.82,76.41 C287.215198,76.4566294 286.683198,76.0132955 286.62,75.41 C285.173333,71.5566667 283.713333,67.7066667 282.24,63.86 C281.965922,63.1461161 281.631372,62.456945 281.24,61.8 C280.948308,61.2447989 280.341997,60.9296768 279.72,61.01 C278.98,61.13 279.05,61.87 279.03,62.37 C278.95,64.52 278.94,66.67 278.93,68.82 C278.92,70.97 278.93,73.3 278.93,75.53 C279.002901,75.7760815 278.935288,76.0423264 278.753807,76.2238074 C278.572326,76.4052885 278.306082,76.4729014 278.06,76.4 C275.01,76.4 271.95,76.34 268.89,76.4 C267.89,76.4 268.02,75.88 268.02,75.27 C268.02,67.9966667 268.02,60.7233333 268.02,53.45 M278.91,45.85 L278.91,48.94 C278.91,51.25 278.91,51.25 281.27,51.09 C283.47,50.94 284.92,49.69 285.09,47.66 C285.197786,46.5492755 285.197786,45.4307245 285.09,44.32 C284.83,41.91 283.61,40.85 281.2,40.76 C280.73,40.76 280.25,40.76 279.79,40.76 C279.12,40.69 278.89,40.94 278.91,41.62 C278.91,43.03 278.91,44.45 278.91,45.86" id="Shape"></path>
            <path d="M156.2,58.57 C154.49,58.57 152.91,58.57 151.32,58.57 C150.59,58.57 150.25,58.47 150.32,57.57 C150.39,55.33 150.37,53.1 150.32,50.86 C150.32,50.12 150.54,49.92 151.26,49.93 C155.86,49.93 160.47,49.93 165.07,49.93 C165.52,49.93 166.07,49.79 165.99,50.59 C165.6,55.8 165.78,61 164.52,66 C163.12,71.66 159.93,75.8 154.03,77 C147.9,78.23 142.53,76.64 138.5,71.54 C135.808202,67.9907531 134.181567,63.7490167 133.81,59.31 C133.095423,54.138707 133.435594,48.8762586 134.81,43.84 C137.38,35.05 143.87,30.48 152.44,29.93 C156.202265,29.8192762 159.918977,30.776191 163.16,32.69 C163.478296,32.799684 163.728837,33.0490883 163.839968,33.3668824 C163.951098,33.6846765 163.91058,34.0358625 163.73,34.32 C162.89,36.66 162.06,39.01 161.33,41.39 C161.301807,41.7735646 161.068065,42.1117667 160.71923,42.2737259 C160.370395,42.435685 159.9612,42.3959891 159.65,42.17 C157.512065,41.363795 155.275298,40.8491703 153,40.64 C149.7,40.3 147.68,41.9 146.31,44.64 C144.59,48.02 144.52,51.64 144.73,55.35 C144.78734,57.5874094 145.199121,59.801572 145.95,61.91 C146.69,63.81 147.76,65.43 149.95,65.91 C151.949018,66.4306614 154.031108,65.4277034 154.87,63.54 C155.134913,63.0497383 155.339726,62.5293132 155.48,61.99 C155.75,60.92 155.94,59.82 156.19,58.63" id="Shape"></path>
            <path d="M428.73,30.44 C430.63,30.51 432.73,30.44 434.84,30.64 C435.686268,30.6327104 436.391848,31.285701 436.45,32.13 C439.303333,46.67 442.183333,61.2033333 445.09,75.73 C445.25,76.55 445.14,76.9 444.21,76.9 C441.243333,76.9 438.276667,76.9233333 435.31,76.97 C435.032336,77.0204969 434.747568,76.9315487 434.54801,76.7319905 C434.348451,76.5324322 434.259503,76.2476636 434.31,75.97 C434.02,73.97 433.63,71.9 433.31,69.87 C433.347281,69.5744645 433.237561,69.2793927 433.01625,69.0800129 C432.794938,68.8806331 432.490057,68.8021902 432.2,68.87 C430.2,69.02 428.2,69.09 426.27,69.13 C426.014814,69.101518 425.760429,69.1899177 425.577897,69.3705083 C425.395364,69.5510989 425.304249,69.8045241 425.33,70.06 C425.07,71.93 424.77,73.8 424.51,75.67 C424.538647,75.9429969 424.442534,76.2143384 424.248436,76.4084363 C424.054338,76.6025342 423.782997,76.6986468 423.51,76.67 C420.76,76.77 418.01,76.9 415.25,76.82 C413.74,76.82 413.61,76.59 413.87,75.15 C416.27,62 419,48.8 421.56,35.61 C421.84,34.18 422.19,32.76 422.4,31.31 C422.388804,31.0334759 422.508343,30.767794 422.722712,30.5927592 C422.93708,30.4177245 423.221301,30.3537306 423.49,30.42 C425.17,30.42 426.85,30.42 428.73,30.42 M429.21,45.65 C428.66,49.25 428.09,52.54 427.66,55.85 C427.31,58.52 427.55,58.67 430.26,58.56 C431.26,58.56 431.48,58.17 431.26,57.19 C430.81,54.7 430.52,52.19 430.09,49.68 C429.988002,48.3067052 429.674297,46.9574353 429.16,45.68" id="Shape"></path>
            <path d="M183.3,30.44 C185.11,30.55 187.17,30.35 189.24,30.6 C190.080588,30.6072106 190.777831,31.2524848 190.85,32.09 C192.81,41.9433333 194.786667,51.7933333 196.78,61.64 C197.68,66.14 198.53,70.64 199.48,75.15 C199.68,76.15 199.48,76.36 198.55,76.35 C195.623333,76.35 192.7,76.35 189.78,76.35 C189.515295,76.420345 189.232913,76.3603974 189.019619,76.1885768 C188.806324,76.0167561 188.687628,75.7536125 188.7,75.48 C188.42,73.48 188.01,71.42 187.7,69.38 C187.74801,69.0383995 187.616569,68.6961742 187.352233,68.4745386 C187.087897,68.252903 186.727994,68.1831554 186.4,68.29 C184.52,68.45 182.62,68.52 180.73,68.55 C180.453282,68.5043529 180.17153,68.5949031 179.973216,68.7932163 C179.774903,68.9915296 179.684353,69.2732824 179.73,69.55 C179.51,71.55 179.21,73.55 178.98,75.55 C178.93,76.01 178.91,76.38 178.28,76.36 C175.23,76.28 172.18,76.5 169.13,76.18 C168.32,76.1 168.05,75.92 168.23,75.01 C171.09,60.5633333 173.916667,46.1133333 176.71,31.66 C176.69127,31.2609989 176.862841,30.8767503 177.172429,30.6243468 C177.482018,30.3719433 177.892949,30.2812856 178.28,30.38 C179.86,30.5 181.46,30.38 183.28,30.38 M183.72,46.31 C183.569654,46.6327071 183.44591,46.9671516 183.35,47.31 C182.89,50.31 182.35,53.23 182.01,56.21 C181.73,58.41 182.2,58.76 184.45,58.47 C184.764826,58.4800435 185.065984,58.3411666 185.262754,58.0952035 C185.459525,57.8492404 185.528907,57.5249429 185.45,57.22 C185.15,55.1 184.91,52.97 184.62,50.84 C184.475816,49.2941107 184.163984,47.7684796 183.69,46.29" id="Shape"></path>
            <path d="M235.8,53.43 C235.8,46.16 235.8,38.89 235.8,31.62 C235.8,30.62 236.03,30.39 237.01,30.41 C241.39,30.49 245.78,30.41 250.16,30.61 C257.299005,30.6870499 263.1802,36.2374006 263.67,43.36 C264.027049,46.5327579 263.60839,49.7447674 262.45,52.72 C260.33,58.14 256.26,60.86 250.58,61.39 C250.02,61.44 249.46,61.39 248.9,61.44 C246.13,61.44 246.13,61.44 246.13,64.29 C246.13,67.99 246.13,71.69 246.13,75.39 C246.13,76.16 245.97,76.39 245.13,76.39 C242.38,76.33 239.62,76.33 236.87,76.39 C235.93,76.39 235.75,76.1 235.75,75.23 C235.75,67.96 235.75,60.69 235.75,53.43 M246.12,46 L246.12,48.7 C246.12,51.25 246.12,51.26 248.74,51.13 C250.01,51.07 251.27,50.87 252,49.68 C253.316926,47.450816 253.396236,44.7013906 252.21,42.4 C251.35,40.4 249.35,40.89 247.68,40.8 C247.42,40.8 247.16,40.8 246.91,40.8 C246.28,40.73 246.1,41.03 246.12,41.62 C246.12,43.08 246.12,44.54 246.12,45.99" id="Shape"></path>
            <path d="M215.51,41.49 C212.44,41.18 209.43,41.29 206.44,41.18 C203.45,41.07 203.37,41.1 203.28,38 C203.22,35.81 203.18,33.61 203.08,31.42 C203.08,30.77 203.08,30.42 203.93,30.42 C212.06,30.42 220.18,30.37 228.31,30.69 C229.31,30.69 229.51,31.03 229.19,32.01 C225.616667,42.7966667 222.066667,53.5933333 218.54,64.4 C218.09,65.78 218.08,65.77 219.54,65.81 C222.89,65.89 226.25,66 229.6,66.05 C230.35,66.05 230.67,66.2 230.6,67.05 C230.46,69.97 230.38,72.89 230.32,75.82 C230.383858,76.0656726 230.313635,76.326819 230.135174,76.5073311 C229.956713,76.6878431 229.696386,76.7610463 229.45,76.7 C221.2,76.75 212.94,77.1 204.69,76.7 C202.99,76.62 202.97,76.6 203.52,75.03 C207.366667,64.2033333 211.22,53.3766667 215.08,42.55 C215.19,42.23 215.3,41.91 215.44,41.49" id="Shape"></path>
        </g>
    </g>
</svg>