<svg width="32" height="40" viewBox="0 0 32 40" fill="none" xmlns="http://www.w3.org/2000/svg">
<g clip-path="url(#clip0)">
<path d="M14.8 27H13.5V30.3H14.8C15.5 30.3 16.1 30.2 16.4 29.9C16.7 29.6 16.9 29.2 16.9 28.6C16.9 27.6 16.2 27 14.8 27Z" fill="#3998D1"/>
<path d="M19.4 0H3.8C1.7 0 0 1.7 0 3.8V35.9C0 38 1.7 39.7 3.8 39.7H27.3C29.4 39.7 31.1 38 31.1 35.9V11.8L19.4 0ZM9.2 31.8C9.2 33.3 8.9 34.3 8.3 35C7.7 35.7 6.8 36 5.6 36C4.1 36 3 35.5 2.2 34.4L4 33.4C4.4 33.9 4.8 34.2 5.5 34.2C6.1 34.2 6.5 34 6.7 33.7C7 33.3 7.1 32.7 7.1 31.8V25.2H9.3V31.8H9.2ZM18 31.2C17.3 31.8 16.3 32.1 15.1 32.1H13.4V35.9H11.2V25.2H15C16.3 25.2 17.3 25.5 17.9 26.1C18.6 26.7 18.9 27.5 18.9 28.6C19.1 29.7 18.8 30.6 18 31.2ZM28.1 31.3C28.1 32.9 27.8 34 27.1 34.8C26.4 35.6 25.5 36 24.2 36C22.9 36 21.9 35.6 21.2 34.8C20.5 34 20.1 32.8 20.1 31.3V29.9C20.1 28.3 20.5 27 21.2 26.2C21.9 25.4 22.9 25 24.2 25C25.3 25 26.2 25.3 26.9 25.9C27.6 26.5 28 27.3 28.2 28.5H26C25.8 27.4 25.2 26.9 24.2 26.9C22.9 26.9 22.3 27.9 22.3 29.8V31.3C22.3 33.2 22.9 34.2 24.2 34.2C24.8 34.2 25.2 34 25.5 33.7C25.8 33.4 26 32.9 26 32.2H24.2V30.4H28.1V31.3ZM17.2 14V2.2L29 14H17.2Z" fill="#3998D1"/>
</g>
<defs>
<clipPath id="clip0">
<rect width="31.1" height="39.7" fill="white"/>
</clipPath>
</defs>
</svg>
