<?xml version="1.0" encoding="UTF-8"?>
<svg width="184px" height="70px" viewBox="0 0 184 70" version="1.1" xmlns="http://www.w3.org/2000/svg" xmlns:xlink="http://www.w3.org/1999/xlink">
    <!-- Generator: Sketch 49 (51002) - http://www.bohemiancoding.com/sketch -->
    <title>misis</title>
    <desc>Created with Sketch.</desc>
    <defs></defs>
    <g id="Page-1" stroke="none" stroke-width="1" fill="none" fill-rule="evenodd">
        <g id="misis" transform="translate(-1.000000, -1.000000)" fill="#FFFFFF" fill-rule="nonzero">
            <path d="M27.58,43.85 L27.58,69.76 C27.58,69.942254 27.432254,70.09 27.25,70.09 L22.59,70.09 C22.407746,70.09 22.26,69.942254 22.26,69.76 L22.26,60.76 L22.66,51.85 L22.26,51.85 L14.72,62.65 L13.86,62.65 L6.32,51.88 L5.92,51.88 L6.32,60.79 L6.32,69.79 C6.32,69.972254 6.17225397,70.12 5.99,70.12 L1.33,70.12 C1.23702388,70.1203851 1.1481992,70.0815303 1.08537241,70.012992 C1.02254561,69.9444536 0.991546755,69.8525918 1,69.76 L1,43.85 C1,43.667746 1.14774603,43.52 1.33,43.52 L6,43.52 C6.21484413,43.5198794 6.41630188,43.624339 6.54,43.8 L14.32,54.92 L22.06,43.8 C22.1836981,43.624339 22.3851559,43.5198794 22.6,43.52 L27.24,43.52 C27.422254,43.52 27.57,43.667746 27.57,43.85 M56.47,43.52 L51.72,43.52 C51.4997641,43.5188456 51.2934643,43.6276219 51.17,43.81 L39.54,60.6 L39.14,60.6 L39.54,51.49 L39.54,43.85 C39.54,43.667746 39.392254,43.52 39.21,43.52 L34.55,43.52 C34.367746,43.52 34.22,43.667746 34.22,43.85 L34.22,69.76 C34.22,69.942254 34.367746,70.09 34.55,70.09 L38.38,70.09 C38.5998039,70.0894039 38.8053355,69.9810328 38.93,69.8 L51.49,51.68 L51.89,51.68 L51.49,60.79 L51.49,69.79 C51.49,69.972254 51.637746,70.12 51.82,70.12 L56.47,70.12 C56.652254,70.12 56.8,69.972254 56.8,69.79 L56.8,43.85 C56.8,43.667746 56.652254,43.52 56.47,43.52 M105.63,49.52 L101.54,49.52 C101.323742,49.5238377 101.122639,49.6318377 101,49.81 L92,62.81 L91.6,62.81 L92,54.81 L92,49.81 C92,49.627746 91.852254,49.48 91.67,49.48 L87.67,49.48 C87.487746,49.48 87.34,49.627746 87.34,49.81 L87.34,69.76 C87.34,69.942254 87.487746,70.09 87.67,70.09 L91.76,70.09 C91.9802359,70.0911544 92.1865357,69.9823781 92.31,69.8 L101.31,56.8 L101.71,56.8 L101.31,64.8 L101.31,69.8 C101.31,69.982254 101.457746,70.13 101.64,70.13 L105.64,70.13 C105.822254,70.13 105.97,69.982254 105.97,69.8 L105.97,49.83 C105.97,49.647746 105.822254,49.5 105.64,49.5 M83.1,67.74 L81.24,64 C81.192504,63.9228097 81.1161549,63.8677772 81.0279073,63.8471235 C80.9396596,63.8264698 80.8468182,63.8419045 80.77,63.89 C79.0592854,65.01731 77.0484867,65.6027765 75,65.57 C70.16,65.57 66.76,61.64 66.76,56.8 C66.76,51.96 70.13,48 75,48 C77.0543077,47.9595911 79.0727608,48.5417702 80.79,49.67 C80.8680374,49.7172338 80.9617816,49.7311291 81.050165,49.7085631 C81.1385485,49.6859971 81.2141575,49.6288627 81.26,49.55 L83.12,45.82 C83.1928809,45.6668018 83.1416771,45.4833215 83,45.39 C77.1884473,41.2687999 69.2087285,42.1693269 64.461815,47.4820706 C59.7149014,52.7948144 59.7149014,60.8251856 64.461815,66.1379294 C69.2087285,71.4506731 77.1884473,72.3512001 83,68.23 C83.0800224,68.1825015 83.1370791,68.1042796 83.157866,68.0135734 C83.1786528,67.9228673 83.1613528,67.8276053 83.11,67.75 M132.27,67.75 L130.4,64 C130.352502,63.9199776 130.27428,63.8629209 130.183573,63.842134 C130.092867,63.8213472 129.997605,63.8386472 129.92,63.89 C128.202497,65.0176558 126.184225,65.5997824 124.13,65.56 C119.29,65.56 115.89,61.63 115.89,56.79 C115.89,51.95 119.29,48 124.14,48 C126.197698,47.957562 128.219933,48.5398264 129.94,49.67 C130.018037,49.7172338 130.111782,49.7311291 130.200165,49.7085631 C130.288549,49.6859971 130.364157,49.6288627 130.41,49.55 L132.28,45.82 C132.331353,45.7423947 132.348653,45.6471327 132.327866,45.5564266 C132.307079,45.4657204 132.250022,45.3874985 132.17,45.34 C126.358447,41.2187999 118.378728,42.1193269 113.631815,47.4320706 C108.884901,52.7448144 108.884901,60.7751856 113.631815,66.0879294 C118.378728,71.4006731 126.358447,72.3012001 132.17,68.18 C132.250022,68.1325015 132.307079,68.0542796 132.327866,67.9635734 C132.348653,67.8728673 132.331353,67.7776053 132.28,67.7" id="Shape"></path>
            <path d="M147.17,35.55 C147.17,31.131722 150.751722,27.55 155.17,27.55 C159.588278,27.55 163.17,31.131722 163.17,35.55 C163.17,39.968278 159.588278,43.55 155.17,43.55 C150.751722,43.55 147.17,39.968278 147.17,35.55 M155.169829,6.32 L155.17,11.32 C155.167012,11.4128229 155.203275,11.5026081 155.26989,11.5673192 C155.336504,11.6320304 155.427303,11.6656766 155.52,11.66 C168.53733,11.9262008 178.950945,22.5549481 178.950945,35.575 C178.950945,48.5950519 168.53733,59.2237992 155.52,59.49 C155.428107,59.4872961 155.339035,59.5219201 155.273093,59.5859779 C155.207151,59.6500357 155.16996,59.7380667 155.17,59.83 L155.17,64.48 C155.169291,64.6511533 155.299554,64.7944419 155.47,64.81 C165.912873,64.7564102 175.533896,59.1356846 180.708923,50.0650962 C185.883949,40.9945078 185.826769,29.8520947 180.558923,20.8350962 C175.291076,11.8180976 165.612873,6.29641016 155.17,6.35 M154.84,1 C138.51284,1.13816749 124.511335,12.6872196 121.27,28.69 C121.249467,28.7791619 121.266874,28.8728465 121.318063,28.9486825 C121.369252,29.0245185 121.449629,29.0756981 121.54,29.09 L126.09,30 C126.178884,30.0175855 126.27111,29.9989658 126.34621,29.9482738 C126.421309,29.8975817 126.473069,29.8190108 126.49,29.73 C129.257385,16.1047021 141.236506,6.31234578 155.14,6.31 L155.14,1.31 C155.140709,1.13884666 155.010446,0.995558061 154.84,0.98 M155.14,16.92 C150.318203,16.9127311 145.68347,18.785278 142.22,22.14 C142.157094,22.2020166 142.121679,22.2866644 142.121679,22.375 C142.121679,22.4633356 142.157094,22.5479834 142.22,22.61 L145.5,25.89 C145.632682,26.0222241 145.847318,26.0222241 145.98,25.89 C151.237137,20.8954545 159.527495,21.0370063 164.611061,26.2081118 C169.694627,31.3792173 169.694627,39.6707827 164.611061,44.8418882 C159.527495,50.0129937 151.237137,50.1545455 145.98,45.16 C145.847318,45.0277759 145.632682,45.0277759 145.5,45.16 L142.21,48.45 C142.09187,48.576742 142.09187,48.773258 142.21,48.9 C148.24064,54.7054196 157.406383,55.7670974 164.604432,51.493971 C171.802481,47.2208446 175.259253,38.6658031 173.050276,30.5916504 C170.8413,22.5174976 163.510862,16.9136875 155.14,16.9" id="Shape"></path>
        </g>
    </g>
</svg>