<?xml version="1.0" encoding="utf-8"?>
<!-- Generator: Adobe Illustrator 19.0.0, SVG Export Plug-In . SVG Version: 6.00 Build 0)  -->
<svg version="1.1" id="Layer_1" xmlns="http://www.w3.org/2000/svg" xmlns:xlink="http://www.w3.org/1999/xlink" x="0px" y="0px"
	 viewBox="-217.7 278.4 117 45" style="enable-background:new -217.7 278.4 117 45;" xml:space="preserve">
<style type="text/css">
	.st0{fill:#FFFFFF;}
</style>
<g>
	<path class="st0" d="M-200.8,305.9v16.6c0,0.1,0,0.2-0.2,0.2h-3c-0.1,0-0.2,0-0.2-0.2v-5.8l0.2-5.7h-0.2l-4.8,6.9h-0.6l-4.8-6.9
		h-0.2l0.2,5.7v5.8c0,0.1,0,0.2-0.2,0.2h-2.9c-0.1,0-0.2,0-0.2-0.2v-16.6c0-0.1,0-0.2,0.2-0.2c0,0,2.2,0,2.9,0c0.1,0,0.2,0,0.3,0.2
		l5,7.1l5-7.1c0-0.1,0.2-0.2,0.3-0.2c0.7,0,2.9,0,2.9,0C-200.9,305.7-200.8,305.8-200.8,305.9z M-182.3,305.7h-3.1
		c-0.1,0-0.2,0-0.3,0.2l-7.4,10.7h-0.2l0.2-5.8v-5c0-0.1,0-0.2-0.2-0.2h-3c-0.1,0-0.2,0-0.2,0.2v16.6c0,0.1,0,0.2,0.2,0.2h2.4
		c0.1,0,0.2,0,0.3-0.2l8.1-11.6h0.2l-0.2,5.8v5.8l0,0c0,0.1,0,0.2,0.2,0.2h3c0.1,0,0.2,0,0.2-0.2v-16.6
		C-182.2,305.8-182.2,305.7-182.3,305.7z M-150.9,309.5h-2.6c-0.1,0-0.2,0-0.3,0.2l-5.8,8.3h-0.2l0.2-5.1v-3.2l0,0
		c0-0.1,0-0.2-0.2-0.2h-2.5c-0.1,0-0.2,0-0.2,0.2v12.7c0,0.1,0,0.2,0.2,0.2h2.6c0.1,0,0.2,0,0.3-0.2l5.8-8.3h0.2l-0.2,5.1v3.2l0,0
		c0,0.1,0,0.2,0.2,0.2h2.5c0.1,0,0.2,0,0.2-0.2v-12.7C-150.8,309.6-150.8,309.5-150.9,309.5z M-165.4,321.2l-1.2-2.3
		c0,0-0.2-0.1-0.3,0c-1,0.6-2.2,1.1-3.7,1.1c-3.1,0-5.2-2.5-5.2-5.6c0-3.1,2.1-5.6,5.2-5.6c1.5,0,2.7,0.4,3.7,1.1c0.1,0,0.2,0,0.3,0
		l1.2-2.3c0-0.1,0-0.2,0-0.3c-1.5-1-3.2-1.6-5.1-1.6c-4.9,0-8.9,4-8.9,8.9c0,4.9,4,8.9,8.9,8.9c1.9,0,3.7-0.6,5.1-1.6
		C-165.3,321.4-165.3,321.3-165.4,321.2z M-134,321.2l-1.2-2.3c0,0-0.2-0.1-0.3,0c-1,0.6-2.2,1.1-3.7,1.1c-3.1,0-5.2-2.5-5.2-5.6
		c0-3.1,2.1-5.6,5.2-5.6c1.5,0,2.7,0.4,3.7,1.1c0.1,0,0.2,0,0.3,0l1.2-2.3c0-0.1,0-0.2,0-0.3c-1.5-1-3.2-1.6-5.1-1.6
		c-4.9,0-8.9,4-8.9,8.9c0,4.9,4,8.9,8.9,8.9c1.9,0,3.7-0.6,5.1-1.6C-134,321.4-133.9,321.3-134,321.2z"/>
	<path class="st0" d="M-124.4,300.6c0-2.8,2.3-5.1,5.1-5.1s5.1,2.3,5.1,5.1c0,2.8-2.3,5.1-5.1,5.1S-124.4,303.4-124.4,300.6z
		 M-119.4,282v3.2c0,0.1,0,0.2,0.2,0.2c8.3,0.1,15,6.9,15,15.2s-6.7,15.1-15,15.2c-0.1,0-0.2,0.1-0.2,0.2v2.9c0,0.1,0,0.2,0.2,0.2
		c10.2-0.1,18.5-8.4,18.5-18.7S-109.1,282-119.4,282z M-119.5,278.6c-10.6,0-19.4,7.7-21.4,17.7c0,0.1,0,0.2,0.2,0.2l2.9,0.6
		c0.1,0,0.2,0,0.2-0.2c1.7-8.5,9.3-14.9,18.3-14.9v-3.2C-119.4,278.6-119.5,278.6-119.5,278.6z M-119.4,288.7
		c-3.2,0-6.1,1.3-8.3,3.3c0,0,0,0.2,0,0.3l2.1,2.1c0,0,0.2,0,0.3,0c1.5-1.5,3.6-2.3,5.8-2.3c4.6,0,8.5,3.8,8.5,8.5
		c0,4.6-3.8,8.5-8.5,8.5c-2.2,0-4.3-0.9-5.8-2.3c0,0-0.2,0-0.3,0l-2.1,2.1c0,0,0,0.2,0,0.3c2.1,2.1,5,3.3,8.3,3.3
		c6.6,0,11.9-5.3,11.9-11.9C-107.5,294.1-112.8,288.7-119.4,288.7z"/>
</g>
</svg>
