<?xml version="1.0" encoding="UTF-8"?>
<svg width="119px" height="48px" viewBox="0 0 119 48" version="1.1" xmlns="http://www.w3.org/2000/svg" xmlns:xlink="http://www.w3.org/1999/xlink">
    <!-- Generator: Sketch 52.6 (67491) - http://www.bohemiancoding.com/sketch -->
    <title>NTI Center for Quant</title>
    <desc>Created with Sketch.</desc>
    <g id="Page-1" stroke="none" stroke-width="1" fill="none" fill-rule="evenodd">
        <g id="Footer_Desktops_rus" transform="translate(-354.000000, -453.000000)" fill="#FFFFFF">
            <path d="M362.792,464 L361.056,464 L357.108,457.882 L357.108,464 L355.162,464 L355.162,454.032 L356.898,454.032 L360.846,460.136 L360.846,454.032 L362.792,454.032 L362.792,464 Z M371.528,455.768 L368.924,455.768 L368.924,464 L366.978,464 L366.978,455.768 L364.374,455.768 L364.374,454.032 L371.528,454.032 L371.528,455.768 Z M375.056,464 L373.11,464 L373.11,454.032 L375.056,454.032 L375.056,464 Z M387.628,460.934 C387.292,462.964 385.864,464.084 383.96,464.084 C382.896,464.084 382,463.72 381.272,462.992 C380.838,462.558 380.572,462.054 380.46,461.494 C380.348,460.934 380.292,460.108 380.292,459.016 C380.292,457.924 380.348,457.098 380.46,456.538 C380.572,455.964 380.838,455.474 381.272,455.04 C382,454.312 382.896,453.948 383.96,453.948 C385.878,453.948 387.292,455.068 387.628,457.098 L385.654,457.098 C385.444,456.244 384.912,455.684 383.974,455.684 C383.442,455.684 383.022,455.852 382.728,456.202 C382.322,456.636 382.238,457.084 382.238,459.016 C382.238,460.948 382.322,461.396 382.728,461.83 C383.022,462.18 383.442,462.348 383.974,462.348 C384.912,462.348 385.444,461.788 385.654,460.934 L387.628,460.934 Z M395.874,464 L389.308,464 L389.308,454.032 L395.874,454.032 L395.874,455.768 L391.254,455.768 L391.254,458.106 L395.188,458.106 L395.188,459.842 L391.254,459.842 L391.254,462.264 L395.874,462.264 L395.874,464 Z M405.408,464 L403.672,464 L399.724,457.882 L399.724,464 L397.778,464 L397.778,454.032 L399.514,454.032 L403.462,460.136 L403.462,454.032 L405.408,454.032 L405.408,464 Z M414.144,455.768 L411.54,455.768 L411.54,464 L409.594,464 L409.594,455.768 L406.99,455.768 L406.99,454.032 L414.144,454.032 L414.144,455.768 Z M422.292,464 L415.726,464 L415.726,454.032 L422.292,454.032 L422.292,455.768 L417.672,455.768 L417.672,458.106 L421.606,458.106 L421.606,459.842 L417.672,459.842 L417.672,462.264 L422.292,462.264 L422.292,464 Z M431.742,464 L429.488,464 L427.542,460.024 L426.142,460.024 L426.142,464 L424.196,464 L424.196,454.032 L428.102,454.032 C430.132,454.032 431.336,455.418 431.336,457.084 C431.336,458.484 430.482,459.352 429.516,459.702 L431.742,464 Z M429.39,457.084 C429.39,456.314 428.83,455.768 427.976,455.768 L426.142,455.768 L426.142,458.4 L427.976,458.4 C428.83,458.4 429.39,457.854 429.39,457.084 Z M361.728,473.768 L357.108,473.768 L357.108,476.218 L361.042,476.218 L361.042,477.954 L357.108,477.954 L357.108,482 L355.162,482 L355.162,472.032 L361.728,472.032 L361.728,473.768 Z M370.17,477.016 C370.17,478.738 370.184,479.984 369.176,480.992 C368.476,481.692 367.622,482.084 366.488,482.084 C365.354,482.084 364.486,481.692 363.786,480.992 C362.778,479.984 362.806,478.738 362.806,477.016 C362.806,475.294 362.778,474.048 363.786,473.04 C364.486,472.34 365.354,471.948 366.488,471.948 C367.622,471.948 368.476,472.34 369.176,473.04 C370.184,474.048 370.17,475.294 370.17,477.016 Z M368.224,477.016 C368.224,475.098 368.112,474.636 367.734,474.216 C367.454,473.894 367.02,473.684 366.488,473.684 C365.956,473.684 365.508,473.894 365.228,474.216 C364.85,474.636 364.752,475.098 364.752,477.016 C364.752,478.934 364.85,479.396 365.228,479.816 C365.508,480.138 365.956,480.348 366.488,480.348 C367.02,480.348 367.454,480.138 367.734,479.816 C368.112,479.396 368.224,478.934 368.224,477.016 Z M379.704,482 L377.45,482 L375.504,478.024 L374.104,478.024 L374.104,482 L372.158,482 L372.158,472.032 L376.064,472.032 C378.094,472.032 379.298,473.418 379.298,475.084 C379.298,476.484 378.444,477.352 377.478,477.702 L379.704,482 Z M377.352,475.084 C377.352,474.314 376.792,473.768 375.938,473.768 L374.104,473.768 L374.104,476.4 L375.938,476.4 C376.792,476.4 377.352,475.854 377.352,475.084 Z M391.828,481.398 L390.806,482.42 L389.924,481.538 C389.364,481.902 388.692,482.084 387.908,482.084 C386.774,482.084 385.906,481.692 385.206,480.992 C384.198,479.984 384.226,478.738 384.226,477.016 C384.226,475.294 384.198,474.048 385.206,473.04 C385.906,472.34 386.774,471.948 387.908,471.948 C389.042,471.948 389.896,472.34 390.596,473.04 C391.604,474.048 391.59,475.294 391.59,477.016 C391.59,478.514 391.604,479.62 390.974,480.544 L391.828,481.398 Z M389.644,477.016 C389.644,475.098 389.532,474.636 389.154,474.216 C388.874,473.894 388.44,473.684 387.908,473.684 C387.376,473.684 386.928,473.894 386.648,474.216 C386.27,474.636 386.172,475.098 386.172,477.016 C386.172,478.934 386.27,479.396 386.648,479.816 C386.928,480.138 387.376,480.348 387.908,480.348 C388.146,480.348 388.37,480.292 388.552,480.166 L387.684,479.312 L388.72,478.29 L389.462,479.032 C389.616,478.598 389.644,478.024 389.644,477.016 Z M400.746,478.584 C400.746,480.698 399.122,482.084 397.078,482.084 C395.034,482.084 393.41,480.698 393.41,478.584 L393.41,472.032 L395.356,472.032 L395.356,478.514 C395.356,479.662 396.028,480.348 397.078,480.348 C398.128,480.348 398.814,479.662 398.814,478.514 L398.814,472.032 L400.746,472.032 L400.746,478.584 Z M410.616,482 L408.586,482 L407.998,480.236 L404.456,480.236 L403.854,482 L401.824,482 L405.45,472.032 L406.976,472.032 L410.616,482 Z M407.48,478.598 L406.262,474.972 L405.002,478.598 L407.48,478.598 Z M419.478,482 L417.742,482 L413.794,475.882 L413.794,482 L411.848,482 L411.848,472.032 L413.584,472.032 L417.532,478.136 L417.532,472.032 L419.478,472.032 L419.478,482 Z M428.214,473.768 L425.61,473.768 L425.61,482 L423.664,482 L423.664,473.768 L421.06,473.768 L421.06,472.032 L428.214,472.032 L428.214,473.768 Z M436.978,478.584 C436.978,480.698 435.354,482.084 433.31,482.084 C431.266,482.084 429.642,480.698 429.642,478.584 L429.642,472.032 L431.588,472.032 L431.588,478.514 C431.588,479.662 432.26,480.348 433.31,480.348 C434.36,480.348 435.046,479.662 435.046,478.514 L435.046,472.032 L436.978,472.032 L436.978,478.584 Z M448.178,482 L446.232,482 L446.232,476.19 L444.328,479.97 L443.012,479.97 L441.094,476.19 L441.094,482 L439.148,482 L439.148,472.032 L441.066,472.032 L443.67,477.422 L446.26,472.032 L448.178,472.032 L448.178,482 Z M362.162,496.934 C361.826,498.964 360.398,500.084 358.494,500.084 C357.43,500.084 356.534,499.72 355.806,498.992 C355.372,498.558 355.106,498.054 354.994,497.494 C354.882,496.934 354.826,496.108 354.826,495.016 C354.826,493.924 354.882,493.098 354.994,492.538 C355.106,491.964 355.372,491.474 355.806,491.04 C356.534,490.312 357.43,489.948 358.494,489.948 C360.412,489.948 361.826,491.068 362.162,493.098 L360.188,493.098 C359.978,492.244 359.446,491.684 358.508,491.684 C357.976,491.684 357.556,491.852 357.262,492.202 C356.856,492.636 356.772,493.084 356.772,495.016 C356.772,496.948 356.856,497.396 357.262,497.83 C357.556,498.18 357.976,498.348 358.508,498.348 C359.446,498.348 359.978,497.788 360.188,496.934 L362.162,496.934 Z M370.422,495.016 C370.422,496.738 370.436,497.984 369.428,498.992 C368.728,499.692 367.874,500.084 366.74,500.084 C365.606,500.084 364.738,499.692 364.038,498.992 C363.03,497.984 363.058,496.738 363.058,495.016 C363.058,493.294 363.03,492.048 364.038,491.04 C364.738,490.34 365.606,489.948 366.74,489.948 C367.874,489.948 368.728,490.34 369.428,491.04 C370.436,492.048 370.422,493.294 370.422,495.016 Z M368.476,495.016 C368.476,493.098 368.364,492.636 367.986,492.216 C367.706,491.894 367.272,491.684 366.74,491.684 C366.208,491.684 365.76,491.894 365.48,492.216 C365.102,492.636 365.004,493.098 365.004,495.016 C365.004,496.934 365.102,497.396 365.48,497.816 C365.76,498.138 366.208,498.348 366.74,498.348 C367.272,498.348 367.706,498.138 367.986,497.816 C368.364,497.396 368.476,496.934 368.476,495.016 Z M381.44,500 L379.494,500 L379.494,494.19 L377.59,497.97 L376.274,497.97 L374.356,494.19 L374.356,500 L372.41,500 L372.41,490.032 L374.328,490.032 L376.932,495.422 L379.522,490.032 L381.44,490.032 L381.44,500 Z M392.794,500 L390.848,500 L390.848,494.19 L388.944,497.97 L387.628,497.97 L385.71,494.19 L385.71,500 L383.764,500 L383.764,490.032 L385.682,490.032 L388.286,495.422 L390.876,490.032 L392.794,490.032 L392.794,500 Z M402.3,496.584 C402.3,498.698 400.676,500.084 398.632,500.084 C396.588,500.084 394.964,498.698 394.964,496.584 L394.964,490.032 L396.91,490.032 L396.91,496.514 C396.91,497.662 397.582,498.348 398.632,498.348 C399.682,498.348 400.368,497.662 400.368,496.514 L400.368,490.032 L402.3,490.032 L402.3,496.584 Z M412.1,500 L410.364,500 L406.416,493.882 L406.416,500 L404.47,500 L404.47,490.032 L406.206,490.032 L410.154,496.136 L410.154,490.032 L412.1,490.032 L412.1,500 Z M416.37,500 L414.424,500 L414.424,490.032 L416.37,490.032 L416.37,500 Z M425.694,496.934 C425.358,498.964 423.93,500.084 422.026,500.084 C420.962,500.084 420.066,499.72 419.338,498.992 C418.904,498.558 418.638,498.054 418.526,497.494 C418.414,496.934 418.358,496.108 418.358,495.016 C418.358,493.924 418.414,493.098 418.526,492.538 C418.638,491.964 418.904,491.474 419.338,491.04 C420.066,490.312 420.962,489.948 422.026,489.948 C423.944,489.948 425.358,491.068 425.694,493.098 L423.72,493.098 C423.51,492.244 422.978,491.684 422.04,491.684 C421.508,491.684 421.088,491.852 420.794,492.202 C420.388,492.636 420.304,493.084 420.304,495.016 C420.304,496.948 420.388,497.396 420.794,497.83 C421.088,498.18 421.508,498.348 422.04,498.348 C422.978,498.348 423.51,497.788 423.72,496.934 L425.694,496.934 Z M434.92,500 L432.89,500 L432.302,498.236 L428.76,498.236 L428.158,500 L426.128,500 L429.754,490.032 L431.28,490.032 L434.92,500 Z M431.784,496.598 L430.566,492.972 L429.306,496.598 L431.784,496.598 Z M441.724,491.768 L439.12,491.768 L439.12,500 L437.174,500 L437.174,491.768 L434.57,491.768 L434.57,490.032 L441.724,490.032 L441.724,491.768 Z M445.252,500 L443.306,500 L443.306,490.032 L445.252,490.032 L445.252,500 Z M454.604,495.016 C454.604,496.738 454.618,497.984 453.61,498.992 C452.91,499.692 452.056,500.084 450.922,500.084 C449.788,500.084 448.92,499.692 448.22,498.992 C447.212,497.984 447.24,496.738 447.24,495.016 C447.24,493.294 447.212,492.048 448.22,491.04 C448.92,490.34 449.788,489.948 450.922,489.948 C452.056,489.948 452.91,490.34 453.61,491.04 C454.618,492.048 454.604,493.294 454.604,495.016 Z M452.658,495.016 C452.658,493.098 452.546,492.636 452.168,492.216 C451.888,491.894 451.454,491.684 450.922,491.684 C450.39,491.684 449.942,491.894 449.662,492.216 C449.284,492.636 449.186,493.098 449.186,495.016 C449.186,496.934 449.284,497.396 449.662,497.816 C449.942,498.138 450.39,498.348 450.922,498.348 C451.454,498.348 451.888,498.138 452.168,497.816 C452.546,497.396 452.658,496.934 452.658,495.016 Z M464.222,500 L462.486,500 L458.538,493.882 L458.538,500 L456.592,500 L456.592,490.032 L458.328,490.032 L462.276,496.136 L462.276,490.032 L464.222,490.032 L464.222,500 Z M472.986,497.06 C472.986,498.992 471.376,500.084 469.29,500.084 C467.778,500.084 466.63,499.762 465.65,498.768 L466.91,497.508 C467.54,498.138 468.394,498.348 469.318,498.348 C470.466,498.348 471.082,497.914 471.082,497.116 C471.082,496.766 470.984,496.472 470.774,496.276 C470.578,496.094 470.354,495.996 469.892,495.926 L468.688,495.758 C467.834,495.632 467.204,495.366 466.756,494.932 C466.28,494.456 466.042,493.812 466.042,492.972 C466.042,491.194 467.358,489.948 469.514,489.948 C470.886,489.948 471.88,490.284 472.734,491.11 L471.502,492.328 C470.872,491.726 470.116,491.642 469.458,491.642 C468.422,491.642 467.918,492.216 467.918,492.902 C467.918,493.154 468.002,493.42 468.212,493.616 C468.408,493.798 468.73,493.952 469.136,494.008 L470.312,494.176 C471.222,494.302 471.796,494.554 472.216,494.946 C472.748,495.45 472.986,496.178 472.986,497.06 Z" id="NTI-Center-for-Quant"></path>
        </g>
    </g>
</svg>