<?xml version="1.0" encoding="UTF-8"?>
<svg width="161px" height="55px" viewBox="0 0 161 55" version="1.1" xmlns="http://www.w3.org/2000/svg" xmlns:xlink="http://www.w3.org/1999/xlink">
    <!-- Generator: Sketch 49 (51002) - http://www.bohemiancoding.com/sketch -->
    <title>Page 1</title>
    <desc>Created with Sketch.</desc>
    <defs>
        <polygon id="path-1" points="0 55 160.985178 55 160.985178 0.3025 0 0.3025"></polygon>
    </defs>
    <g id="Page-1" stroke="none" stroke-width="1" fill="none" fill-rule="evenodd">
        <g id="Index_Desktops_eng" transform="translate(-165.000000, -35.000000)">
            <g id="Page-1" transform="translate(165.000000, 35.000000)">
                <polygon id="Fill-1" fill="#7FD2FF" points="117 45 119 45 119 7 117 7"></polygon>
                <g id="Group-39">
                    <path d="M54.1527844,25.5452593 L58.0162733,25.5452593 C61.6405622,25.5452593 63.5122511,23.2831296 63.5122511,19.1958148 C63.5122511,15.2276667 61.6405622,13.2038704 58.05614,13.2038704 L54.1527844,13.2038704 L54.1527844,25.5452593 Z M57.2194511,27.8471111 L54.1527844,27.8471111 L54.1527844,38.6805833 L51.6836067,38.6805833 L51.6836067,10.9020185 L58.05614,10.9020185 C63.1938289,10.9020185 66.0212956,13.8781296 66.0212956,19.0369259 C66.0212956,23.8784537 63.7115844,26.9737315 59.8879622,27.6882222 L66.7383844,38.6805833 L63.87054,38.6805833 L57.2194511,27.8471111 Z" id="Fill-2" fill="#FFFFFF"></path>
                    <path d="M80.3583711,36.2598704 L77.5303933,32.8473241 L79.1235267,31.4580648 L81.9913711,34.9103333 C82.8275489,33.7594074 83.2655711,32.1328333 83.2655711,30.0688056 L83.2655711,19.5133889 C83.2655711,15.227463 81.3938822,12.7672315 77.7695933,12.7672315 C74.1453044,12.7672315 72.2736156,15.227463 72.2736156,19.5133889 L72.2736156,30.0688056 C72.2736156,34.3547315 74.1453044,36.814963 77.7695933,36.814963 C78.7652378,36.814963 79.6412822,36.6168611 80.3583711,36.2598704 Z M84.22186,40.9822315 L81.9121489,38.1645 C80.7570378,38.8392685 79.3627267,39.1962593 77.7695933,39.1962593 C72.7515044,39.1962593 69.7645711,35.6645463 69.7645711,30.0688056 L69.7645711,19.5133889 C69.7645711,13.9181574 72.7515044,10.3859352 77.7695933,10.3859352 C82.7881933,10.3859352 85.7751267,13.9181574 85.7751267,19.5133889 L85.7751267,30.0688056 C85.7751267,32.9262593 84.9788156,35.2678333 83.5446378,36.8551944 L85.8149933,39.5934815 L84.22186,40.9822315 Z" id="Fill-4" fill="#FFFFFF"></path>
                    <path d="M90.0358,30.8232222 L90.0358,18.7593796 C90.0358,13.4024815 93.1024667,10.4258611 97.4837111,10.4258611 C102.023911,10.4258611 104.931111,13.2833148 105.210178,18.4421111 L102.820222,18.4421111 C102.541667,14.5131759 100.6296,12.6482685 97.4837111,12.6482685 C94.4962667,12.6482685 92.4257556,14.6323426 92.4257556,18.7593796 L92.4257556,30.8232222 C92.4257556,34.9502593 94.576,36.9343333 97.6426667,36.9343333 C100.828933,36.9343333 102.661267,34.9899815 103.059422,31.1404907 L105.448867,31.1404907 C105.050711,36.2198426 102.222733,39.1567407 97.6426667,39.1567407 C93.1822,39.1567407 90.0358,36.1806296 90.0358,30.8232222" id="Fill-6" fill="#FFFFFF"></path>
                    <path d="M130.642709,14.1567963 L131.350087,14.1567963 C131.993576,14.1567963 132.328864,13.7412407 132.328864,12.9916111 C132.328864,12.2419815 131.993576,11.8625833 131.358776,11.8625833 L130.642709,11.8625833 L130.642709,14.1567963 Z M131.214131,15.0240648 L130.642709,15.0240648 L130.642709,17.3182778 L129.726798,17.3182778 L129.726798,10.9953148 L131.367464,10.9953148 C132.582376,10.9953148 133.271353,11.7179537 133.271353,12.9732778 C133.271353,13.9581852 132.854287,14.6355 132.129531,14.8972593 L133.507487,17.3182778 L132.491909,17.3182778 L131.214131,15.0240648 Z" id="Fill-8" fill="#FFFFFF"></path>
                    <path d="M137.612322,12.5582824 L137.612322,17.3183287 L136.987233,17.3183287 L136.896256,16.7856435 C136.651944,17.1920324 136.252767,17.4354583 135.708433,17.4354583 C134.884011,17.4354583 134.367278,16.8487917 134.367278,15.5481435 L134.367278,12.5582824 L135.246389,12.5582824 L135.246389,15.5028194 C135.246389,16.2794398 135.454922,16.6048565 135.917478,16.6048565 C136.415811,16.6048565 136.733211,16.207125 136.733211,15.5028194 L136.733211,12.5582824 L137.612322,12.5582824 Z" id="Fill-10" fill="#FFFFFF"></path>
                    <path d="M138.544589,15.8550231 L139.415011,15.8550231 C139.424211,16.2884028 139.687433,16.6229861 140.239944,16.6229861 C140.701989,16.6229861 140.965211,16.396875 140.965211,16.0266435 C140.965211,15.0692361 138.617678,15.3941435 138.617678,13.768588 C138.617678,12.9553009 139.224367,12.4404398 140.158167,12.4404398 C141.173744,12.4404398 141.708367,13.0729398 141.745167,13.9580324 L140.883944,13.9580324 C140.874744,13.5068287 140.638611,13.2353935 140.158167,13.2353935 C139.7411,13.2353935 139.4881,13.4431713 139.4881,13.7777546 C139.4881,14.6806713 141.844833,14.3287731 141.844833,16.0358102 C141.844833,16.8755787 141.246322,17.4357639 140.257833,17.4357639 C139.1707,17.4357639 138.5543,16.7309491 138.544589,15.8550231" id="Fill-12" fill="#FFFFFF"></path>
                    <path d="M142.550576,15.8550231 L143.420998,15.8550231 C143.429687,16.2884028 143.692398,16.6229861 144.24542,16.6229861 C144.707976,16.6229861 144.971198,16.396875 144.971198,16.0266435 C144.971198,15.0692361 142.623153,15.3941435 142.623153,13.768588 C142.623153,12.9553009 143.230353,12.4404398 144.164153,12.4404398 C145.17922,12.4404398 145.714353,13.0729398 145.750642,13.9580324 L144.888909,13.9580324 C144.88022,13.5068287 144.644598,13.2353935 144.164153,13.2353935 C143.747087,13.2353935 143.493064,13.4431713 143.493064,13.7777546 C143.493064,14.6806713 145.850309,14.3287731 145.850309,16.0358102 C145.850309,16.8755787 145.252309,17.4357639 144.26382,17.4357639 C143.175664,17.4357639 142.559264,16.7309491 142.550576,15.8550231" id="Fill-14" fill="#FFFFFF"></path>
                    <mask id="mask-2" fill="white">
                        <use xlink:href="#path-1"></use>
                    </mask>
                    <g id="Clip-17"></g>
                    <path d="M146.855511,17.3183796 L147.734622,17.3183796 L147.734622,12.5583333 L146.855511,12.5583333 L146.855511,17.3183796 Z M146.737444,11.2123611 C146.737444,10.8874537 146.963867,10.6521759 147.290467,10.6521759 C147.616556,10.6521759 147.852178,10.8874537 147.852178,11.2123611 C147.852178,11.5194444 147.616556,11.7633796 147.290467,11.7633796 C146.963867,11.7633796 146.737444,11.5281019 146.737444,11.2123611 Z" id="Fill-16" fill="#FFFFFF" mask="url(#mask-2)"></path>
                    <path d="M151.196531,15.2316898 L150.498864,15.2316898 C149.963731,15.2316898 149.656042,15.4847917 149.656042,15.9634954 C149.656042,16.396875 149.936642,16.6586343 150.417087,16.6586343 C150.897531,16.6586343 151.196531,16.3520602 151.196531,15.8550231 L151.196531,15.2316898 Z M152.076153,14.1566435 L152.076153,17.318125 L151.359576,17.318125 L151.296198,16.866412 C151.096864,17.2009954 150.752887,17.4357639 150.236153,17.4357639 C149.356531,17.4357639 148.76722,16.8572454 148.76722,15.9634954 C148.76722,14.9969213 149.438309,14.4998843 150.498864,14.4998843 L151.196531,14.4998843 L151.196531,14.1566435 C151.196531,13.5969676 150.988509,13.2807176 150.508064,13.2807176 C150.118087,13.2807176 149.827776,13.4884954 149.782287,13.9132176 L148.903176,13.9132176 C148.948664,13.000625 149.565064,12.4404398 150.526464,12.4404398 C151.55022,12.4404398 152.076153,13.0637731 152.076153,14.1566435 Z" id="Fill-18" fill="#FFFFFF" mask="url(#mask-2)"></path>
                    <path d="M156.598311,14.3285694 L156.598311,17.3184306 L155.7192,17.3184306 L155.7192,14.3738935 C155.7192,13.5967639 155.510156,13.2718565 155.048111,13.2718565 C154.549778,13.2718565 154.232378,13.6690787 154.232378,14.3738935 L154.232378,17.3184306 L153.353267,17.3184306 L153.353267,12.5583843 L153.978867,12.5583843 L154.069333,13.0910694 C154.313644,12.6841713 154.712822,12.4407454 155.257156,12.4407454 C156.081578,12.4407454 156.598311,13.0279213 156.598311,14.3285694" id="Fill-19" fill="#FFFFFF" mask="url(#mask-2)"></path>
                    <path d="M132.292473,26.6878843 C132.419229,26.4801065 132.483118,26.2000139 132.483118,25.8567731 L132.483118,23.5442269 C132.483118,22.7497824 132.147829,22.3164028 131.485429,22.3164028 C130.833251,22.3164028 130.497451,22.7497824 130.497451,23.5442269 L130.497451,25.8567731 C130.497451,26.6517269 130.833251,27.0856157 131.485429,27.0856157 C131.549318,27.0856157 131.604007,27.0856157 131.667384,27.0764491 L131.240607,26.5707546 L131.784429,26.082375 L132.292473,26.6878843 Z M133.434296,25.8567731 C133.434296,26.5254306 133.253362,27.0581157 132.908873,27.4191806 L133.416918,28.0246898 L132.863896,28.5033935 L132.301162,27.8347361 C132.066051,27.9340417 131.79414,27.9793657 131.485429,27.9793657 C130.270518,27.9793657 129.545762,27.1757546 129.545762,25.8567731 L129.545762,23.5442269 C129.545762,22.2257546 130.270518,21.4216343 131.485429,21.4216343 C132.70954,21.4216343 133.434296,22.2257546 133.434296,23.5442269 L133.434296,25.8567731 Z" id="Fill-20" fill="#FFFFFF" mask="url(#mask-2)"></path>
                    <path d="M137.838949,23.102037 L137.838949,27.8620833 L137.212838,27.8620833 L137.122882,27.3293981 C136.87806,27.735787 136.479393,27.979213 135.93506,27.979213 C135.110127,27.979213 134.593393,27.3925463 134.593393,26.0918981 L134.593393,23.102037 L135.472504,23.102037 L135.472504,26.0465741 C135.472504,26.8231944 135.681549,27.1486111 136.143593,27.1486111 C136.642438,27.1486111 136.959838,26.7508796 136.959838,26.0465741 L136.959838,23.102037 L137.838949,23.102037 Z" id="Fill-21" fill="#FFFFFF" mask="url(#mask-2)"></path>
                    <path d="M141.300142,25.7755463 L140.602476,25.7755463 C140.067342,25.7755463 139.759653,26.0286481 139.759653,26.5073519 C139.759653,26.9407315 140.040253,27.2024907 140.520698,27.2024907 C141.001142,27.2024907 141.300142,26.8959167 141.300142,26.3988796 L141.300142,25.7755463 Z M142.179764,24.7005 L142.179764,27.8619815 L141.463187,27.8619815 L141.399809,27.4102685 C141.200476,27.7448519 140.856498,27.9796204 140.339764,27.9796204 C139.460142,27.9796204 138.870831,27.4011019 138.870831,26.5073519 C138.870831,25.5407778 139.54192,25.0437407 140.602476,25.0437407 L141.300142,25.0437407 L141.300142,24.7005 C141.300142,24.1408241 141.09212,23.8245741 140.611676,23.8245741 C140.221698,23.8245741 139.931387,24.0323519 139.885898,24.4570741 L139.006787,24.4570741 C139.052276,23.5444815 139.668676,22.9842963 140.630076,22.9842963 C141.653831,22.9842963 142.179764,23.6076296 142.179764,24.7005 Z" id="Fill-22" fill="#FFFFFF" mask="url(#mask-2)"></path>
                    <path d="M146.701922,24.872375 L146.701922,27.8622361 L145.822811,27.8622361 L145.822811,24.9176991 C145.822811,24.1405694 145.613767,23.815662 145.151722,23.815662 C144.653389,23.815662 144.335989,24.2128843 144.335989,24.9176991 L144.335989,27.8622361 L143.456878,27.8622361 L143.456878,23.1021898 L144.081967,23.1021898 L144.172944,23.634875 C144.417256,23.2279769 144.816433,22.9845509 145.360767,22.9845509 C146.185189,22.9845509 146.701922,23.5717269 146.701922,24.872375" id="Fill-23" fill="#FFFFFF" mask="url(#mask-2)"></path>
                    <path d="M150.045764,27.0942222 L150.045764,27.9161667 L149.710476,27.9161667 C148.758276,27.9161667 148.196564,27.3111667 148.196564,26.3262593 L148.196564,23.8965833 L147.525476,23.8965833 L147.525476,23.1021389 L148.196564,23.1021389 L148.196564,21.9726019 L149.066987,21.9726019 L149.066987,23.1021389 L149.954787,23.1021389 L149.954787,23.8965833 L149.066987,23.8965833 L149.066987,26.3354259 C149.066987,26.850287 149.284209,27.0942222 149.755453,27.0942222 L150.045764,27.0942222 Z" id="Fill-24" fill="#FFFFFF" mask="url(#mask-2)"></path>
                    <path d="M154.223689,23.102037 L154.223689,27.8620833 L153.5986,27.8620833 L153.507622,27.3293981 C153.263311,27.735787 152.864133,27.979213 152.3198,27.979213 C151.495378,27.979213 150.978644,27.3925463 150.978644,26.0918981 L150.978644,23.102037 L151.857756,23.102037 L151.857756,26.0465741 C151.857756,26.8231944 152.066289,27.1486111 152.528844,27.1486111 C153.027178,27.1486111 153.344578,26.7508796 153.344578,26.0465741 L153.344578,23.102037 L154.223689,23.102037 Z" id="Fill-25" fill="#FFFFFF" mask="url(#mask-2)"></path>
                    <path d="M160.985178,24.8811852 L160.985178,27.8618796 L160.114756,27.8618796 L160.114756,24.9081759 C160.114756,24.1137315 159.888333,23.8153056 159.480978,23.8153056 C159.000533,23.8153056 158.683133,24.213037 158.683133,24.9173426 L158.683133,27.8618796 L157.812711,27.8618796 L157.812711,24.9081759 C157.812711,24.1137315 157.567378,23.8153056 157.160022,23.8153056 C156.688267,23.8153056 156.370867,24.213037 156.370867,24.9173426 L156.370867,27.8618796 L155.500956,27.8618796 L155.500956,23.1018333 L156.126044,23.1018333 L156.216511,23.6350278 C156.453156,23.2281296 156.832911,22.9841944 157.359356,22.9841944 C157.866378,22.9841944 158.247156,23.2194722 158.474089,23.7068333 C158.710222,23.246463 159.117578,22.9841944 159.680311,22.9841944 C160.486844,22.9841944 160.985178,23.6075278 160.985178,24.8811852" id="Fill-26" fill="#FFFFFF" mask="url(#mask-2)"></path>
                    <path d="M129.545813,36.5451065 L129.545813,33.9438102 C129.545813,32.6609861 130.26188,31.9658472 131.377124,31.9658472 C132.528147,31.9658472 133.207924,32.6523287 133.262613,33.9076528 L132.355902,33.9076528 C132.301213,33.1671898 131.975124,32.8326065 131.367413,32.8326065 C130.833302,32.8326065 130.479613,33.1850139 130.479613,33.9438102 L130.479613,36.5451065 C130.479613,37.2947361 130.833302,37.6471435 131.385813,37.6471435 C132.002213,37.6471435 132.328813,37.3039028 132.392191,36.5812639 L133.298391,36.5812639 C133.235013,37.8279306 132.555236,38.514412 131.385813,38.514412 C130.270569,38.514412 129.545813,37.8187639 129.545813,36.5451065" id="Fill-27" fill="#FFFFFF" mask="url(#mask-2)"></path>
                    <path d="M135.073787,35.2896806 L135.073787,35.6960694 L136.642387,35.6960694 L136.642387,35.2896806 C136.642387,34.6393565 136.352076,34.3500972 135.844542,34.3500972 C135.364098,34.3500972 135.073787,34.6393565 135.073787,35.2896806 Z M137.531209,36.9152361 C137.440231,37.9271343 136.833031,38.5051435 135.817964,38.5051435 C134.820787,38.5051435 134.194676,37.8548194 134.194676,36.716625 L134.194676,35.298338 C134.194676,34.1693102 134.829476,33.5281528 135.835342,33.5281528 C136.868809,33.5281528 137.512809,34.1693102 137.512809,35.298338 L137.512809,36.3555602 L135.073787,36.3555602 L135.073787,36.716625 C135.073787,37.3669491 135.354898,37.665375 135.835342,37.665375 C136.352076,37.665375 136.569809,37.4300972 136.642387,36.9152361 L137.531209,36.9152361 Z" id="Fill-28" fill="#FFFFFF" mask="url(#mask-2)"></path>
                    <path d="M141.889913,35.4161806 L141.889913,38.4060417 L141.010291,38.4060417 L141.010291,35.4615046 C141.010291,34.684375 140.801758,34.3594676 140.339713,34.3594676 C139.840869,34.3594676 139.523469,34.7566898 139.523469,35.4615046 L139.523469,38.4060417 L138.644358,38.4060417 L138.644358,33.6459954 L139.269447,33.6459954 L139.360424,34.1786806 C139.605247,33.7717824 140.003913,33.5283565 140.547736,33.5283565 C141.37318,33.5283565 141.889913,34.1155324 141.889913,35.4161806" id="Fill-29" fill="#FFFFFF" mask="url(#mask-2)"></path>
                    <path d="M145.233756,37.6380278 L145.233756,38.4599722 L144.897956,38.4599722 C143.946267,38.4599722 143.384044,37.8549722 143.384044,36.8700648 L143.384044,34.4403889 L142.712956,34.4403889 L142.712956,33.6459444 L143.384044,33.6459444 L143.384044,32.5164074 L144.254467,32.5164074 L144.254467,33.6459444 L145.142778,33.6459444 L145.142778,34.4403889 L144.254467,34.4403889 L144.254467,36.8792315 C144.254467,37.3940926 144.4722,37.6380278 144.943444,37.6380278 L145.233756,37.6380278 Z" id="Fill-30" fill="#FFFFFF" mask="url(#mask-2)"></path>
                    <path d="M146.991262,35.2896806 L146.991262,35.6960694 L148.559862,35.6960694 L148.559862,35.2896806 C148.559862,34.6393565 148.269551,34.3500972 147.762018,34.3500972 C147.281573,34.3500972 146.991262,34.6393565 146.991262,35.2896806 Z M149.447662,36.9152361 C149.357196,37.9271343 148.750507,38.5051435 147.734418,38.5051435 C146.73724,38.5051435 146.112151,37.8548194 146.112151,36.716625 L146.112151,35.298338 C146.112151,34.1693102 146.74644,33.5281528 147.752818,33.5281528 C148.786284,33.5281528 149.430284,34.1693102 149.430284,35.298338 L149.430284,36.3555602 L146.991262,36.3555602 L146.991262,36.716625 C146.991262,37.3669491 147.272373,37.665375 147.752818,37.665375 C148.269551,37.665375 148.486773,37.4300972 148.559862,36.9152361 L149.447662,36.9152361 Z" id="Fill-31" fill="#FFFFFF" mask="url(#mask-2)"></path>
                    <path d="M153.009442,33.6094815 L153.009442,34.47675 C152.837709,34.4044352 152.655753,34.3682778 152.420642,34.3682778 C151.82162,34.3682778 151.440842,34.7838333 151.440842,35.551287 L151.440842,38.4056852 L150.561731,38.4056852 L150.561731,33.6456389 L151.18682,33.6456389 L151.287509,34.2241574 C151.540509,33.7902685 151.948887,33.5371667 152.511109,33.5371667 C152.710442,33.5371667 152.873487,33.5555 153.009442,33.6094815" id="Fill-32" fill="#FFFFFF" mask="url(#mask-2)"></path>
                    <path d="M5.11111111e-05,34.0122546 L5.11111111e-05,28.4424861 L27.5928956,44.2692454 L27.5928956,54.9998472 L4.34449556,41.5355417 C1.65502889,39.9777176 5.11111111e-05,37.1121157 5.11111111e-05,34.0122546" id="Fill-33" fill="#7FD2FF" mask="url(#mask-2)"></path>
                    <polygon id="Fill-34" fill="#7FD2FF" mask="url(#mask-2)" points="10.5170311 15.4400278 27.6162533 5.62507407 18.4157422 0.302296296 10.5170311 4.87187963"></polygon>
                    <polygon id="Fill-35" fill="#7FD2FF" mask="url(#mask-2)" points="26.27014 34.5304769 19.7769844 38.2872824 26.27014 42.0221898"></polygon>
                    <polygon id="Fill-36" fill="#7FD2FF" mask="url(#mask-2)" points="9.19616667 32.3037407 9.19105556 5.62466667 -0.000255555556 10.9413333 0.00434444444 27.0161019"></polygon>
                    <path d="M27.5884489,17.7177917 L27.5833378,44.2690417 L32.42816,41.4655694 C35.11916,39.9087639 36.77516,37.043162 36.7756711,33.9427917 L36.7787378,23.004412 L27.5884489,17.7177917 Z" id="Fill-37" fill="#7FD2FF" mask="url(#mask-2)"></path>
                    <polygon id="Fill-38" fill="#7FD2FF" mask="url(#mask-2)" points="19.7477489 11.6674861 36.7927933 21.476838 36.7672378 10.9412824 28.9109489 6.39614352"></polygon>
                </g>
            </g>
        </g>
    </g>
</svg>