<?xml version="1.0" encoding="UTF-8"?>
<svg width="163px" height="55px" viewBox="0 0 163 55" version="1.1" xmlns="http://www.w3.org/2000/svg" xmlns:xlink="http://www.w3.org/1999/xlink">
    <!-- Generator: Sketch 49 (51002) - http://www.bohemiancoding.com/sketch -->
    <title>RQClogo_eng</title>
    <desc>Created with Sketch.</desc>
    <defs></defs>
    <g id="Page-1" stroke="none" stroke-width="1" fill="none" fill-rule="evenodd">
        <g id="Index_Desktops_eng_white" transform="translate(-165.000000, -35.000000)" fill-rule="nonzero">
            <g id="RQClogo_eng" transform="translate(165.000000, 35.000000)">
                <rect id="Rectangle-path" fill="#7FD2FF" x="117.8" y="6" width="2.5" height="37.7"></rect>
                <g id="Group" transform="translate(52.000000, 10.000000)" fill="#1C1735">
                    <path d="M6.2,17.7 L3.1,17.7 L3.1,28.6 L0.6,28.6 L0.6,0.7 L7,0.7 C12.1,0.7 15,3.7 15,8.9 C15,13.8 12.7,16.9 8.9,17.6 L15.8,28.7 L12.9,28.7 L6.2,17.7 Z M3.1,15.4 L7,15.4 C10.6,15.4 12.5,13.1 12.5,9 C12.5,5 10.6,3 7,3 L3.1,3 L3.1,15.4 Z" id="Shape"></path>
                    <path d="M33.2,30.9 L30.9,28.1 C29.7,28.8 28.3,29.1 26.8,29.1 C21.8,29.1 18.8,25.5 18.8,19.9 L18.8,9.3 C18.8,3.7 21.8,0.1 26.8,0.1 C31.8,0.1 34.8,3.7 34.8,9.3 L34.8,19.9 C34.8,22.8 34,25.1 32.6,26.7 L34.9,29.5 L33.2,30.9 Z M29.4,26.2 L26.6,22.8 L28.2,21.4 L31.1,24.9 C31.9,23.7 32.4,22.1 32.4,20 L32.4,9.4 C32.4,5.1 30.5,2.6 26.9,2.6 C23.3,2.6 21.4,5.1 21.4,9.4 L21.4,20 C21.4,24.3 23.3,26.8 26.9,26.8 C27.8,26.7 28.6,26.5 29.4,26.2 Z" id="Shape"></path>
                    <path d="M39.1,20.7 L39.1,8.6 C39.1,3.2 42.2,0.2 46.6,0.2 C51.1,0.2 54.1,3.1 54.3,8.3 L51.9,8.3 C51.6,4.3 49.7,2.5 46.6,2.5 C43.6,2.5 41.5,4.5 41.5,8.6 L41.5,20.7 C41.5,24.8 43.7,26.8 46.7,26.8 C49.9,26.8 51.7,24.8 52.1,21 L54.5,21 C54.1,26.1 51.3,29.1 46.7,29.1 C42.2,29.1 39.1,26.1 39.1,20.7 Z" id="Shape"></path>
                </g>
                <g id="Group" transform="translate(130.000000, 10.000000)" fill="#1C1735">
                    <path d="M2.3,4.8 L1.7,4.8 L1.7,7.1 L0.8,7.1 L0.8,0.7 L2.4,0.7 C3.6,0.7 4.3,1.4 4.3,2.7 C4.3,3.7 3.9,4.4 3.2,4.6 L4.6,7 L3.6,7 L2.3,4.8 Z M1.7,3.9 L2.4,3.9 C3,3.9 3.4,3.5 3.4,2.7 C3.4,1.9 3.1,1.6 2.4,1.6 L1.7,1.6 L1.7,3.9 Z" id="Shape"></path>
                    <path d="M8.7,2.3 L8.7,7.1 L8.1,7.1 L8,6.6 C7.8,7 7.4,7.3 6.8,7.3 C6,7.3 5.5,6.7 5.5,5.4 L5.5,2.4 L6.4,2.4 L6.4,5.4 C6.4,6.2 6.6,6.5 7.1,6.5 C7.6,6.5 7.9,6.1 7.9,5.4 L7.9,2.4 L8.7,2.4 L8.7,2.3 Z" id="Shape"></path>
                    <path d="M9.7,5.6 L10.6,5.6 C10.6,6 10.9,6.4 11.4,6.4 C11.9,6.4 12.1,6.2 12.1,5.8 C12.1,4.8 9.7,5.2 9.7,3.5 C9.7,2.7 10.3,2.2 11.2,2.2 C12.2,2.2 12.8,2.8 12.8,3.7 L11.9,3.7 C11.9,3.2 11.7,3 11.2,3 C10.8,3 10.5,3.2 10.5,3.5 C10.5,4.4 12.9,4.1 12.9,5.8 C12.9,6.6 12.3,7.2 11.3,7.2 C10.3,7.2 9.7,6.5 9.7,5.6 Z" id="Shape"></path>
                    <path d="M13.7,5.6 L14.6,5.6 C14.6,6 14.9,6.4 15.4,6.4 C15.9,6.4 16.1,6.2 16.1,5.8 C16.1,4.8 13.7,5.2 13.7,3.5 C13.7,2.7 14.3,2.2 15.2,2.2 C16.2,2.2 16.8,2.8 16.8,3.7 L15.9,3.7 C15.9,3.2 15.7,3 15.2,3 C14.8,3 14.5,3.2 14.5,3.5 C14.5,4.4 16.9,4.1 16.9,5.8 C16.9,6.6 16.3,7.2 15.3,7.2 C14.3,7.2 13.7,6.5 13.7,5.6 Z" id="Shape"></path>
                    <path d="M17.9,1 C17.9,0.7 18.1,0.4 18.5,0.4 C18.8,0.4 19.1,0.6 19.1,1 C19.1,1.3 18.9,1.6 18.5,1.6 C18.1,1.5 17.9,1.3 17.9,1 Z M18,2.3 L18.9,2.3 L18.9,7.1 L18,7.1 L18,2.3 Z" id="Shape"></path>
                    <path d="M23.2,3.9 L23.2,7.1 L22.5,7.1 L22.4,6.6 C22.2,6.9 21.9,7.2 21.3,7.2 C20.4,7.2 19.8,6.6 19.8,5.7 C19.8,4.7 20.5,4.2 21.5,4.2 L22.2,4.2 L22.2,3.9 C22.2,3.3 22,3 21.5,3 C21.1,3 20.8,3.2 20.8,3.6 L19.9,3.6 C19.9,2.7 20.6,2.1 21.5,2.1 C22.7,2.2 23.2,2.8 23.2,3.9 Z M22.3,5 L21.6,5 C21.1,5 20.8,5.3 20.8,5.7 C20.8,6.1 21.1,6.4 21.6,6.4 C22.1,6.4 22.4,6.1 22.4,5.6 L22.4,5 L22.3,5 Z" id="Shape"></path>
                    <path d="M27.7,4.1 L27.7,7.1 L26.8,7.1 L26.8,4.1 C26.8,3.3 26.6,3 26.1,3 C25.6,3 25.3,3.4 25.3,4.1 L25.3,7.1 L24.4,7.1 L24.4,2.3 L25,2.3 L25.1,2.8 C25.3,2.4 25.7,2.1 26.3,2.1 C27.2,2.2 27.7,2.8 27.7,4.1 Z" id="Shape"></path>
                    <path d="M4.5,15.7 C4.5,16.4 4.3,16.9 4,17.3 L4.5,17.9 L3.9,18.4 L3.3,17.7 C3.1,17.8 2.8,17.8 2.5,17.8 C1.3,17.8 0.6,17 0.6,15.7 L0.6,13.4 C0.6,12.1 1.3,11.3 2.5,11.3 C3.7,11.3 4.5,12.1 4.5,13.4 L4.5,15.7 Z M3.4,16.5 C3.5,16.3 3.6,16 3.6,15.7 L3.6,13.4 C3.6,12.6 3.3,12.2 2.6,12.2 C1.9,12.2 1.6,12.6 1.6,13.4 L1.6,15.7 C1.6,16.5 1.9,16.9 2.6,16.9 C2.7,16.9 2.7,16.9 2.8,16.9 L2.4,16.4 L2.9,15.9 L3.4,16.5 Z" id="Shape"></path>
                    <path d="M9,12.9 L9,17.7 L8.4,17.7 L8.3,17.2 C8.1,17.6 7.7,17.9 7.1,17.9 C6.3,17.9 5.8,17.3 5.8,16 L5.8,13 L6.7,13 L6.7,16 C6.7,16.8 6.9,17.1 7.4,17.1 C7.9,17.1 8.2,16.7 8.2,16 L8.2,13 L9,13 L9,12.9 Z" id="Shape"></path>
                    <path d="M13.3,14.5 L13.3,17.7 L12.6,17.7 L12.5,17.2 C12.3,17.5 12,17.8 11.4,17.8 C10.5,17.8 9.9,17.2 9.9,16.3 C9.9,15.3 10.6,14.8 11.6,14.8 L12.3,14.8 L12.3,14.5 C12.3,13.9 12.1,13.6 11.6,13.6 C11.2,13.6 10.9,13.8 10.9,14.2 L10,14.2 C10,13.3 10.7,12.7 11.6,12.7 C12.8,12.8 13.3,13.4 13.3,14.5 Z M12.4,15.6 L11.7,15.6 C11.2,15.6 10.9,15.9 10.9,16.3 C10.9,16.7 11.2,17 11.7,17 C12.2,17 12.5,16.7 12.5,16.2 L12.5,15.6 L12.4,15.6 Z" id="Shape"></path>
                    <path d="M17.8,14.7 L17.8,17.7 L16.9,17.7 L16.9,14.7 C16.9,13.9 16.7,13.6 16.2,13.6 C15.7,13.6 15.4,14 15.4,14.7 L15.4,17.7 L14.5,17.7 L14.5,12.9 L15.1,12.9 L15.2,13.4 C15.4,13 15.8,12.7 16.4,12.7 C17.3,12.8 17.8,13.4 17.8,14.7 Z" id="Shape"></path>
                    <path d="M21.2,16.9 L21.2,17.7 L20.9,17.7 C19.9,17.7 19.4,17.1 19.4,16.1 L19.4,13.7 L18.7,13.7 L18.7,12.9 L19.4,12.9 L19.4,11.8 L20.3,11.8 L20.3,12.9 L21.2,12.9 L21.2,13.7 L20.3,13.7 L20.3,16.2 C20.3,16.7 20.5,17 21,17 L21.2,17 L21.2,16.9 Z" id="Shape"></path>
                    <path d="M25.4,12.9 L25.4,17.7 L24.8,17.7 L24.7,17.2 C24.5,17.6 24.1,17.9 23.5,17.9 C22.7,17.9 22.2,17.3 22.2,16 L22.2,13 L23.1,13 L23.1,16 C23.1,16.8 23.3,17.1 23.8,17.1 C24.3,17.1 24.6,16.7 24.6,16 L24.6,13 L25.4,13 L25.4,12.9 Z" id="Shape"></path>
                    <path d="M32.1,14.7 L32.1,17.7 L31.2,17.7 L31.2,14.7 C31.2,13.9 31,13.6 30.6,13.6 C30.1,13.6 29.8,14 29.8,14.7 L29.8,17.7 L28.9,17.7 L28.9,14.7 C28.9,13.9 28.7,13.6 28.2,13.6 C27.7,13.6 27.4,14 27.4,14.7 L27.4,17.7 L26.5,17.7 L26.5,12.9 L27.1,12.9 L27.2,13.4 C27.4,13 27.8,12.7 28.3,12.7 C28.8,12.7 29.2,12.9 29.4,13.4 C29.6,12.9 30,12.7 30.6,12.7 C31.6,12.8 32.1,13.4 32.1,14.7 Z" id="Shape"></path>
                    <path d="M0.6,26.4 L0.6,23.8 C0.6,22.5 1.3,21.8 2.4,21.8 C3.6,21.8 4.2,22.5 4.3,23.8 L3.4,23.8 C3.3,23.1 3,22.7 2.4,22.7 C1.9,22.7 1.5,23.1 1.5,23.8 L1.5,26.4 C1.5,27.2 1.9,27.5 2.4,27.5 C3,27.5 3.3,27.2 3.4,26.4 L4.3,26.4 C4.2,27.7 3.6,28.3 2.4,28.3 C1.4,28.4 0.6,27.7 0.6,26.4 Z" id="Shape"></path>
                    <path d="M8.6,26.8 C8.5,27.8 7.9,28.4 6.9,28.4 C5.9,28.4 5.3,27.7 5.3,26.6 L5.3,25.2 C5.3,24.1 5.9,23.4 6.9,23.4 C7.9,23.4 8.6,24 8.6,25.2 L8.6,26.3 L6.2,26.3 L6.2,26.7 C6.2,27.4 6.5,27.7 7,27.7 C7.5,27.7 7.7,27.5 7.8,26.9 L8.6,26.9 L8.6,26.8 Z M6.2,25.2 L6.2,25.6 L7.8,25.6 L7.8,25.2 C7.8,24.5 7.5,24.3 7,24.3 C6.5,24.2 6.2,24.5 6.2,25.2 Z" id="Shape"></path>
                    <path d="M13,25.3 L13,28.3 L12.1,28.3 L12.1,25.3 C12.1,24.5 11.9,24.2 11.4,24.2 C10.9,24.2 10.6,24.6 10.6,25.3 L10.6,28.3 L9.7,28.3 L9.7,23.5 L10.3,23.5 L10.4,24 C10.6,23.6 11,23.3 11.6,23.3 C12.5,23.4 13,24 13,25.3 Z" id="Shape"></path>
                    <path d="M16.4,27.5 L16.4,28.3 L16.1,28.3 C15.1,28.3 14.6,27.7 14.6,26.7 L14.6,24.3 L13.9,24.3 L13.9,23.5 L14.6,23.5 L14.6,22.4 L15.5,22.4 L15.5,23.5 L16.4,23.5 L16.4,24.3 L15.5,24.3 L15.5,26.8 C15.5,27.3 15.7,27.6 16.2,27.6 L16.4,27.6 L16.4,27.5 Z" id="Shape"></path>
                    <path d="M20.6,26.8 C20.5,27.8 19.9,28.4 18.9,28.4 C17.9,28.4 17.3,27.7 17.3,26.6 L17.3,25.2 C17.3,24.1 17.9,23.4 18.9,23.4 C19.9,23.4 20.6,24 20.6,25.2 L20.6,26.3 L18.2,26.3 L18.2,26.7 C18.2,27.4 18.5,27.7 19,27.7 C19.5,27.7 19.7,27.5 19.8,26.9 L20.6,26.9 L20.6,26.8 Z M18.1,25.2 L18.1,25.6 L19.7,25.6 L19.7,25.2 C19.7,24.5 19.4,24.3 18.9,24.3 C18.4,24.2 18.1,24.5 18.1,25.2 Z" id="Shape"></path>
                    <path d="M24.2,23.5 L24.2,24.4 C24,24.3 23.8,24.3 23.6,24.3 C23,24.3 22.6,24.7 22.6,25.5 L22.6,28.4 L21.7,28.4 L21.7,23.6 L22.3,23.6 L22.4,24.2 C22.7,23.8 23.1,23.5 23.6,23.5 C23.9,23.4 24,23.4 24.2,23.5 Z" id="Shape"></path>
                </g>
                <g id="Group" fill="#7FD2FF">
                    <path d="M0.9,33.9 L0.9,28.3 L28.5,44.2 L28.5,55 L5.2,41.5 C2.5,39.9 0.9,37 0.9,33.9 Z" id="Shape"></path>
                    <polygon id="Shape" points="11.4 15.2 28.5 5.4 19.3 0 11.4 4.6"></polygon>
                    <polygon id="Shape" points="27.2 34.4 20.7 38.2 27.2 42"></polygon>
                    <polygon id="Shape" points="10.1 32.2 10.1 5.4 0.9 10.7 0.9 26.9"></polygon>
                    <path d="M28.5,17.5 L28.5,44.2 L33.4,41.4 C36.1,39.8 37.8,37 37.8,33.8 L37.8,22.8 L28.5,17.5 Z" id="Shape"></path>
                    <polygon id="Shape" points="20.6 11.4 37.7 21.3 37.7 10.7 29.8 6.1"></polygon>
                </g>
            </g>
        </g>
    </g>
</svg>