<?xml version="1.0" encoding="utf-8"?>
<!-- Generator: Adobe Illustrator 19.0.0, SVG Export Plug-In . SVG Version: 6.00 Build 0)  -->
<svg version="1.1" id="Layer_1" xmlns="http://www.w3.org/2000/svg" xmlns:xlink="http://www.w3.org/1999/xlink" x="0px" y="0px"
	 viewBox="-363 276 73 50" style="enable-background:new -363 276 73 50;" xml:space="preserve">
<style type="text/css">
	.st0{fill:#FFFFFF;}
</style>
<g>
	<path class="st0" d="M-348.7,311.2c1.8,0,6.1-0.3,9.3-2.7v1.8h6.5v-7.9l2.7-2.8l5.9,10.7h7.8l-9-15.2l8.7-9.6h-8l-8.2,9.4v-18.1
		h-6.5v2.9c-2-2.1-5.2-3.7-10.2-3.7c-10.9,0-12.9,6.6-12.9,10.3c0,5.1,2.7,7.9,7.5,9.1l6.7,1.7c3.6,0.9,6.1,1.5,6.1,4.2
		c0,3.5-3.7,4.3-7,4.3c-6.1,0-7.1-3.6-7.1-5.5h-6.7C-363,304.1-360.8,311.2-348.7,311.2 M-344.2,291.2l-8.2-2
		c-1.4-0.3-3.6-0.9-3.6-3.5c0-3,3.2-4,5.9-4c6.1,0,6.7,3.6,6.8,5.1h3.9v6.3C-340.8,292.2-342.5,291.6-344.2,291.2"/>
	<path class="st0" d="M-357.5,325.9c-0.7,0-1.2-0.1-1.5-0.2v-2c0.3,0.1,0.5,0.2,0.8,0.2c0.5,0,0.8-0.2,1.1-0.6v-0.1l-4.7-8.7h2.8
		l3,6.3l2.3-6.3h2.7l-4,9.3c-0.2,0.4-0.4,0.8-0.7,1.1c-0.3,0.3-0.6,0.5-0.9,0.7C-357,325.8-357.2,325.9-357.5,325.9z"/>
	<path class="st0" d="M-344,325.7h-2.2v-3.4c-0.2,0.1-0.6,0.3-1,0.5c-0.4,0.2-0.9,0.3-1.4,0.3c-0.9,0-1.6-0.2-2.1-0.7
		s-0.8-1.2-0.8-2.2v-2.7h2.2v2.7c0,0.7,0.5,1.1,1.4,1.1c0.3,0,0.6-0.1,0.9-0.2c0.3-0.1,0.6-0.2,0.7-0.3v-3.3h2.2L-344,325.7
		L-344,325.7z"/>
	<path class="st0" d="M-325.7,322.7c0,0.3-0.1,0.6-0.2,0.9c-0.1,0.3-0.3,0.7-0.6,1.1c-0.3,0.4-0.7,0.7-1.2,0.9s-1.1,0.4-1.8,0.4
		c-0.7,0-1.4-0.1-1.9-0.4s-0.9-0.6-1.2-1c-0.3-0.4-0.5-0.8-0.6-1.3c-0.1-0.5-0.2-1-0.2-1.4c0-0.9,0.1-1.7,0.4-2.4
		c0.3-0.7,0.7-1.2,1.3-1.6c0.6-0.4,1.3-0.6,2.3-0.6c0.5,0,1,0.1,1.6,0.3c0.5,0.2,1,0.5,1.4,1c0.4,0.5,0.6,1.1,0.7,1.9h-2.2
		c-0.2-0.9-0.6-1.3-1.5-1.3c-0.4,0-0.8,0.1-1,0.4c-0.3,0.2-0.4,0.5-0.5,0.9c-0.1,0.4-0.2,0.7-0.2,1.1c0,0.4,0,0.9,0.1,1.2
		c0.1,0.4,0.2,0.7,0.5,1c0.2,0.3,0.6,0.4,1.1,0.4c0.3,0,0.6-0.1,0.8-0.3c0.2-0.2,0.4-0.4,0.5-0.6c0.1-0.2,0.2-0.4,0.2-0.6H-325.7z"
		/>
	<path class="st0" d="M-322.3,325.7v-6.6h-2.5v-1.7h7.1v1.7h-2.5v6.6H-322.3z"/>
	<path class="st0" d="M-309,325.7h-2.2v-3.3h-3.1v3.3h-2.2v-8.3h2.2v3.3h3.1v-3.3h2.2V325.7z"/>
	<path class="st0" d="M-299.7,325.7h-2.2v-5l-2.9,5h-2.3v-8.3h2.2v5l2.9-5h2.3V325.7z"/>
	<path class="st0" d="M-295.5,325.7h-2.2v-8.3h2.2v3.2l2.7-3.2h2.7l-3,3.2l3.1,5.1h-2.7l-2-3.6l-0.9,0.9L-295.5,325.7L-295.5,325.7z
		"/>
	<path class="st0" d="M-334.7,324c0,0.5,0,0.8,0.1,1c0.1,0.2,0.2,0.3,0.4,0.4v0.3h-2.4c-0.1-0.3-0.2-0.7-0.2-1
		c-0.4,0.4-0.7,0.7-1.1,0.9c-0.4,0.2-0.9,0.3-1.6,0.3c-0.4,0-0.9-0.1-1.3-0.3c-0.4-0.2-0.7-0.4-0.9-0.8c-0.2-0.4-0.4-0.8-0.4-1.4
		c0-0.5,0.1-1,0.3-1.4c0.2-0.4,0.5-0.7,0.9-0.9c0.4-0.2,0.8-0.4,1.3-0.4l2-0.3c0.5-0.1,0.8-0.3,0.8-0.7c0-0.4-0.1-0.7-0.4-0.8
		c-0.3-0.1-0.6-0.2-1-0.2c-0.5,0-0.8,0.1-1,0.3c-0.2,0.2-0.3,0.5-0.3,0.8h-2.1c0.1-0.8,0.3-1.4,0.7-1.9c0.4-0.4,0.8-0.7,1.3-0.9
		c0.5-0.1,1.1-0.2,1.8-0.2c0.5,0,1,0.1,1.5,0.2c0.5,0.1,0.9,0.4,1.3,0.7c0.4,0.4,0.5,0.9,0.5,1.5V324z M-336.8,321.6
		c-0.2,0.2-0.7,0.3-1.5,0.5c-0.3,0.1-0.6,0.1-0.8,0.2c-0.2,0.1-0.4,0.2-0.5,0.4c-0.1,0.2-0.2,0.4-0.2,0.7c0,0.3,0.1,0.6,0.3,0.8
		c0.2,0.2,0.4,0.2,0.7,0.2c0.3,0,0.7-0.1,1-0.2c0.3-0.1,0.5-0.3,0.7-0.6c0.2-0.3,0.3-0.5,0.3-0.9V321.6z"/>
</g>
</svg>
