<?xml version="1.0" encoding="UTF-8"?>
<svg width="146px" height="99px" viewBox="0 0 146 99" version="1.1" xmlns="http://www.w3.org/2000/svg" xmlns:xlink="http://www.w3.org/1999/xlink">
    <!-- Generator: Sketch 49 (51002) - http://www.bohemiancoding.com/sketch -->
    <title>sk</title>
    <desc>Created with Sketch.</desc>
    <defs></defs>
    <g id="Page-1" stroke="none" stroke-width="1" fill="none" fill-rule="evenodd">
        <g id="sk" fill="#FFFFFF" fill-rule="nonzero">
            <path d="M27.75,68.41 C31.15,68.41 39.51,67.81 45.75,63.24 L45.75,66.71 L58.39,66.71 L58.39,51.49 L63.68,46 L75.13,66.71 L90.27,66.71 L72.9,37.16 L89.82,18.53 L74.33,18.53 L58.39,36.81 L58.39,1.7 L45.77,1.7 L45.77,7.25 C41.92,3.14 35.68,0 26,0 C4.93,0 1,12.81 1,20 C1,29.85 6.28,35.32 15.51,37.55 L28.58,40.77 C35.47,42.47 40.4,43.77 40.4,48.83 C40.4,55.64 33.23,57.25 26.79,57.25 C15,57.22 13,50.33 13,46.65 L0,46.65 C0,54.71 4.12,68.41 27.75,68.41 M36.35,29.64 L20.51,25.79 C17.82,25.17 13.61,24.09 13.61,18.99 C13.61,13.17 19.79,11.2 24.98,11.2 C36.8,11.2 37.87,18.1 38.23,21.05 L45.77,21.05 L45.77,33.16 C42.8088968,31.5544756 39.638363,30.3697326 36.35,29.64" id="Shape"></path>
            <polygon id="Shape" points="6.92 75.78 0.4 75.78 0.4 71.73 18.21 71.73 18.21 75.78 11.68 75.78 11.68 93.5 6.92 93.5"></polygon>
            <path d="M23,93.9 C21.8559819,93.9180622 20.719012,93.7178198 19.65,93.31 C18.6951653,92.9403262 17.8344167,92.3630781 17.13,91.62 C16.413901,90.8667927 15.8592269,89.9752307 15.5,89 C15.116946,87.9251711 14.9273494,86.7909766 14.94,85.65 C14.9292986,84.5278726 15.1224309,83.4131262 15.51,82.36 C15.8732964,81.3785337 16.4311201,80.4805735 17.15,79.72 C17.8668579,78.9722179 18.7274069,78.3769764 19.68,77.97 C20.7283691,77.520359 21.8593663,77.2955222 23,77.31 C24.1521334,77.2857215 25.2945693,77.5251542 26.34,78.01 C27.2720127,78.4514864 28.0949622,79.0934553 28.75,79.89 C29.4038934,80.6986188 29.8961672,81.6254516 30.2,82.62 C30.5263259,83.665556 30.6915527,84.7547039 30.69,85.85 L30.69,86.26 C30.6995411,86.3965001 30.6995411,86.5334999 30.69,86.67 L19.24,86.67 C19.1947769,87.7859009 19.577531,88.8769288 20.31,89.72 C21.0848757,90.3937032 22.0957218,90.731851 23.12,90.66 C23.920293,90.6786316 24.7065818,90.4479869 25.37,90 C25.9045771,89.6833436 26.3141096,89.1926107 26.53,88.61 L30.34,88.61 C29.9080034,90.250789 28.9134641,91.687739 27.53,92.67 C26.1704935,93.5089239 24.5971054,93.9361352 23,93.9 Z M26.32,83.9 C26.198248,82.982791 25.8243793,82.117354 25.24,81.4 C24.6152221,80.785601 23.7530518,80.4750736 22.88,80.55 C22.2803494,80.5257532 21.6836375,80.6457815 21.14,80.9 C20.7230952,81.1112433 20.3551651,81.4076315 20.06,81.77 C19.7965966,82.0952122 19.5995432,82.4689342 19.48,82.87 C19.3790134,83.195541 19.3119897,83.5306596 19.28,83.87 L26.28,83.87 L26.32,83.9 Z" id="Shape"></path>
            <polygon id="Shape" points="35.71 85.21 30.53 77.73 35.47 77.73 38.24 81.85 40.99 77.73 45.78 77.73 40.59 85.11 46.42 93.5 41.48 93.5 38.18 88.53 34.89 93.5 30.04 93.5"></polygon>
            <polygon id="Shape" points="46.54 77.73 50.84 77.73 50.84 83.47 57.03 83.47 57.03 77.73 61.33 77.73 61.33 93.5 57.03 93.5 57.03 86.88 50.84 86.88 50.84 93.5 46.54 93.5"></polygon>
            <path d="M70.76,93.9 C69.613681,93.9172455 68.4741997,93.7205493 67.4,93.32 C66.437454,92.95674 65.5643554,92.3905901 64.84,91.66 C64.1066173,90.9011326 63.5440329,89.9941784 63.19,89 C62.7897301,87.9049072 62.5931615,86.7458305 62.61,85.58 C62.5946223,84.4110233 62.791128,83.2489287 63.19,82.15 C63.8994931,80.1715428 65.4369906,78.6011773 67.4,77.85 C68.4721443,77.4409253 69.6126284,77.2406618 70.76,77.26 C71.910456,77.2427982 73.0538159,77.442971 74.13,77.85 C76.0990796,78.5952887 77.6418175,80.1672728 78.35,82.15 C78.748872,83.2489287 78.9453777,84.4110233 78.93,85.58 C78.9468385,86.7458305 78.7502699,87.9049072 78.35,89 C77.9896521,89.9763471 77.4274137,90.865706 76.7,91.61 C75.9700391,92.3432434 75.0898365,92.9095753 74.12,93.27 C73.041872,93.6688527 71.8994364,93.8654737 70.75,93.85 M70.75,90.62 C71.3968036,90.6404414 72.0377981,90.4922545 72.61,90.19 C73.1003502,89.9181128 73.5133405,89.525772 73.81,89.05 C74.1146722,88.5517641 74.3280145,88.0031696 74.44,87.43 C74.5619679,86.8243168 74.6222757,86.2078375 74.62,85.59 C74.6219289,84.9655603 74.561631,84.3424823 74.44,83.73 C74.3314309,83.1558465 74.1178558,82.6066531 73.81,82.11 C73.5038061,81.6499699 73.0924587,81.2694735 72.61,81 C72.040615,80.6893483 71.3982224,80.5373845 70.75,80.56 C69.5365561,80.5107302 68.3904571,81.1181627 67.75,82.15 C67.4421442,82.6466531 67.2285691,83.1958465 67.12,83.77 C66.998369,84.3824823 66.9380711,85.0055603 66.94,85.63 C66.9377243,86.2478375 66.9980321,86.8643168 67.12,87.47 C67.2319855,88.0431696 67.4453278,88.5917641 67.75,89.09 C68.043085,89.5616719 68.4485051,89.953349 68.93,90.23 C69.4977461,90.5345279 70.136146,90.6829127 70.78,90.66" id="Shape"></path>
            <polygon id="Shape" points="80.21 77.73 94.7 77.73 94.7 93.5 90.4 93.5 90.4 81 84.51 81 84.51 93.5 80.21 93.5"></polygon>
            <path d="M101.18,93.9 C100.467652,93.9065274 99.7577521,93.8156872 99.07,93.63 C98.449397,93.4625398 97.8681792,93.1736304 97.36,92.78 C96.8673552,92.3903724 96.4733886,91.8902061 96.21,91.32 C95.9209343,90.6585531 95.780958,89.9416013 95.8,89.22 C95.7679637,88.4522903 95.9295911,87.6888587 96.27,87 C96.5624975,86.4477235 96.9803319,85.9716663 97.49,85.61 C98.0107282,85.2532878 98.5892666,84.9893931 99.2,84.83 C99.8385754,84.657514 100.48624,84.5206364 101.14,84.42 C101.806667,84.32 102.45,84.24 103.07,84.18 C103.636105,84.1279594 104.197618,84.0343739 104.75,83.9 C105.170789,83.8103378 105.566771,83.6294149 105.91,83.37 C106.197951,83.1214996 106.347137,82.7485355 106.31,82.37 C106.325468,81.989956 106.246443,81.6120081 106.08,81.27 C105.941652,80.9977955 105.730485,80.7693195 105.47,80.61 C105.196737,80.4488615 104.894239,80.3434971 104.58,80.3 C104.222506,80.2463713 103.861494,80.2196296 103.5,80.22 C102.791468,80.1828829 102.089922,80.3758082 101.5,80.77 C100.966967,81.2295941 100.657329,81.8962263 100.65,82.6 L96.31,82.6 C96.3370691,81.7077415 96.5992375,80.8384462 97.07,80.08 C97.5059969,79.411505 98.0913975,78.8534916 98.78,78.45 C99.4997502,78.0333798 100.28378,77.7393685 101.1,77.58 C101.962535,77.4065643 102.840201,77.3194678 103.72,77.32 C104.522947,77.3216975 105.324831,77.3784976 106.12,77.49 C106.890335,77.5907971 107.639713,77.8135851 108.34,78.15 C108.998011,78.4533151 109.568937,78.9176222 110,79.5 C110.451518,80.1758107 110.675716,80.9780191 110.64,81.79 L110.64,90 C110.639101,90.6684922 110.679176,91.3364111 110.76,92 C110.799736,92.5113676 110.946219,93.008728 111.19,93.46 L106.8,93.46 C106.717505,93.2144916 106.650703,92.9639862 106.6,92.71 C106.55071,92.4522956 106.517313,92.191804 106.5,91.93 C105.824488,92.6283816 104.980842,93.141456 104.05,93.42 C103.119778,93.7041043 102.152639,93.8490068 101.18,93.85 M102.78,90.98 C103.473052,91.0171813 104.163471,90.8687411 104.78,90.55 C105.191266,90.3049606 105.534961,89.9612656 105.78,89.55 C105.996458,89.1810048 106.139105,88.7734423 106.2,88.35 C106.246927,88.0185981 106.273643,87.6846475 106.28,87.35 L106.28,85.73 C106.083398,85.8988826 105.855846,86.0279423 105.61,86.11 C105.31935,86.2083053 105.021887,86.2851778 104.72,86.34 C104.39,86.4 104.05,86.45 103.72,86.49 C103.39,86.53 103.03,86.58 102.72,86.64 C102.381116,86.6947927 102.046839,86.7750194 101.72,86.88 C101.430213,86.9734487 101.156888,87.1117986 100.91,87.29 C100.673527,87.4610348 100.47869,87.6832176 100.34,87.94 C100.189126,88.2510933 100.117012,88.5944957 100.13,88.94 C100.115319,89.2867761 100.191137,89.6314034 100.35,89.94 C100.488438,90.1892562 100.688036,90.3991783 100.93,90.55 C101.194163,90.7094461 101.485862,90.8179854 101.79,90.87 C102.119877,90.9305377 102.454615,90.9606641 102.79,90.96" id="Shape"></path>
            <path d="M112.45,77.73 L116.57,77.73 L116.57,79.73 L116.63,79.73 C117.10066,78.9279426 117.795954,78.2813198 118.63,77.87 C119.468631,77.4784211 120.384506,77.2802094 121.31,77.29 C122.417695,77.2599028 123.51604,77.500166 124.51,77.99 C125.378215,78.4385437 126.136356,79.0737431 126.73,79.85 C127.336022,80.6575118 127.780795,81.5742177 128.04,82.55 C128.328626,83.5988805 128.473285,84.6821376 128.47,85.77 C128.472849,86.8019705 128.328049,87.8290415 128.04,88.82 C127.7727,89.7571318 127.331718,90.6357037 126.74,91.41 C126.158976,92.1633781 125.417772,92.778202 124.57,93.21 C123.637561,93.6688728 122.609067,93.8985698 121.57,93.88 C120.636894,93.890722 119.713583,93.6889614 118.87,93.29 C118.060925,92.8928669 117.371018,92.289198 116.87,91.54 L116.81,91.54 L116.81,99 L112.48,99 L112.48,77.73 L112.45,77.73 Z M120.45,90.66 C121.656591,90.7349246 122.80757,90.1440888 123.45,89.12 C123.758833,88.6346978 123.972626,88.0951257 124.08,87.53 C124.20686,86.9113884 124.270521,86.2814852 124.27,85.65 C124.269839,85.0246426 124.202791,84.4010961 124.07,83.79 C123.948026,83.2119416 123.724571,82.6600745 123.41,82.16 C123.087074,81.679621 122.655384,81.2821923 122.15,81 C121.615961,80.6917875 121.006252,80.5393604 120.39,80.56 C119.763983,80.5369342 119.143983,80.6893363 118.6,81 C118.130771,81.2856873 117.733804,81.6758103 117.44,82.14 C117.131209,82.6397993 116.91761,83.192444 116.81,83.77 C116.688928,84.3893107 116.628642,85.0189673 116.63,85.65 C116.628255,86.2820672 116.695317,86.9124465 116.83,87.53 C116.945793,88.0942312 117.162612,88.6328889 117.47,89.12 C118.11243,90.1440888 119.263409,90.7349246 120.47,90.66 L120.45,90.66 Z" id="Shape"></path>
            <polygon id="Shape" points="129.56 77.73 133.86 77.73 133.86 84.44 139.65 77.73 144.75 77.73 138.74 84.02 145.6 93.5 140.35 93.5 135.93 86.94 133.86 89.14 133.86 93.5 129.56 93.5"></polygon>
        </g>
    </g>
</svg>