<svg width="30" height="39" viewBox="0 0 30 39" fill="none" xmlns="http://www.w3.org/2000/svg">
<g clip-path="url(#clip0)">
<path d="M18.7 0H3.7C1.6 0 0 1.6 0 3.7V34.6C0 36.6 1.6 38.3 3.7 38.3H26.4C28.4 38.3 30.1 36.7 30.1 34.6V11.4L18.7 0ZM8.9 33.9C8.3 34.4 7.4 34.7 6.3 34.7C4.5 34.7 3.2 34.1 2.3 33L3.9 31.9C4.2 32.3 4.5 32.5 4.9 32.7C5.2 32.9 5.7 32.9 6.2 32.9C7.3 32.9 7.8 32.5 7.8 31.8C7.8 31.4 7.6 31.1 7.3 30.9C7 30.7 6.4 30.5 5.7 30.2C4.7 29.9 3.9 29.5 3.4 29C2.9 28.5 2.7 27.8 2.7 27C2.7 26.1 3 25.4 3.6 24.9C4.2 24.4 5.1 24.1 6.2 24.1C7.9 24.1 9.1 24.7 9.8 25.8L8.2 26.9C8 26.5 7.7 26.3 7.4 26.1C7 26 6.6 25.9 6.1 25.9C5.6 25.9 5.3 26 5 26.2C4.8 26.4 4.6 26.7 4.6 27C4.6 27.4 4.8 27.7 5.1 27.9C5.4 28.1 5.9 28.3 6.7 28.5C7.8 28.8 8.6 29.2 9.1 29.6C9.6 30.1 9.8 30.7 9.8 31.6C9.8 32.6 9.5 33.3 8.9 33.9ZM15.8 34.6H13.9L10.3 24.3H12.6L14.9 31.2L17.2 24.3H19.5L15.8 34.6ZM27.6 30.1C27.6 31.6 27.3 32.7 26.6 33.5C25.9 34.3 25 34.6 23.8 34.6C22.6 34.6 21.6 34.2 20.9 33.4C20.2 32.6 19.9 31.5 19.9 30V28.7C19.9 27.1 20.2 26 20.9 25.2C21.6 24.4 22.6 24 23.8 24C24.9 24 25.7 24.3 26.4 24.9C27 25.5 27.4 26.3 27.6 27.4H25.6C25.4 26.4 24.8 25.8 23.8 25.8C22.6 25.8 22 26.7 22 28.6V30.1C22 32 22.6 32.9 23.8 32.9C24.4 32.9 24.8 32.7 25.1 32.4C25.4 32.1 25.6 31.6 25.6 30.9H23.9V29.1H27.6V30.1ZM16.6 13.4V2.1L28 13.5H16.6V13.4Z" fill="#3998D1"/>
</g>
<defs>
<clipPath id="clip0">
<rect width="30" height="38.2" fill="white"/>
</clipPath>
</defs>
</svg>
