<svg id="Layer_1" data-name="Layer 1" xmlns="http://www.w3.org/2000/svg" width="7.06mm" height="5.73mm" viewBox="0 0 20 16.25"><title>twitter_white</title><path d="M270.29,282.13A11.6,11.6,0,0,0,282,270.45q0-.27,0-0.53a8.34,8.34,0,0,0,2-2.12,8.18,8.18,0,0,1-2.36.65,4.12,4.12,0,0,0,1.8-2.27,8.23,8.23,0,0,1-2.61,1,4.11,4.11,0,0,0-7,3.74,11.65,11.65,0,0,1-8.46-4.29,4.1,4.1,0,0,0,1.27,5.48,4.08,4.08,0,0,1-1.86-.51s0,0,0,.05a4.1,4.1,0,0,0,3.29,4,4.1,4.1,0,0,1-1.85.07,4.11,4.11,0,0,0,3.83,2.85,8.3,8.3,0,0,1-6.07,1.7,11.62,11.62,0,0,0,6.29,1.84" transform="translate(-264 -265.87)" fill="#fff"/></svg>