<?xml version="1.0" encoding="UTF-8"?>
<svg width="1069px" height="457px" viewBox="0 0 1069 457" version="1.1" xmlns="http://www.w3.org/2000/svg" xmlns:xlink="http://www.w3.org/1999/xlink">
    <!-- Generator: Sketch 52.6 (67491) - http://www.bohemiancoding.com/sketch -->
    <title>People_Desktops Structure</title>
    <desc>Created with Sketch.</desc>
    <defs>
        <polygon id="path-1" points="808 150 1048 150 1048 210 808 210"></polygon>
        <filter x="-2.9%" y="-8.3%" width="105.8%" height="123.3%" filterUnits="objectBoundingBox" id="filter-2">
            <feOffset dx="0" dy="2" in="SourceAlpha" result="shadowOffsetOuter1"></feOffset>
            <feGaussianBlur stdDeviation="2" in="shadowOffsetOuter1" result="shadowBlurOuter1"></feGaussianBlur>
            <feColorMatrix values="0 0 0 0 0   0 0 0 0 0   0 0 0 0 0  0 0 0 0.2 0" type="matrix" in="shadowBlurOuter1"></feColorMatrix>
        </filter>
        <path d="M510,207 L510,272 L270,272 L270,92 L510,92 L510,157 L521.170386,157 L530,182 L521.170386,207 L510,207 Z" id="path-3"></path>
        <filter x="-2.7%" y="-2.8%" width="105.4%" height="107.8%" filterUnits="objectBoundingBox" id="filter-4">
            <feOffset dx="0" dy="2" in="SourceAlpha" result="shadowOffsetOuter1"></feOffset>
            <feGaussianBlur stdDeviation="2" in="shadowOffsetOuter1" result="shadowBlurOuter1"></feGaussianBlur>
            <feColorMatrix values="0 0 0 0 0   0 0 0 0 0   0 0 0 0 0  0 0 0 0.2 0" type="matrix" in="shadowBlurOuter1"></feColorMatrix>
        </filter>
        <path d="M240,207 L240,272 L5.68434189e-14,272 L5.68434189e-14,92 L240,92 L240,157 L251.170386,157 L260,182 L251.170386,207 L240,207 Z" id="path-5"></path>
        <filter x="-2.7%" y="-2.8%" width="105.4%" height="107.8%" filterUnits="objectBoundingBox" id="filter-6">
            <feOffset dx="0" dy="2" in="SourceAlpha" result="shadowOffsetOuter1"></feOffset>
            <feGaussianBlur stdDeviation="2" in="shadowOffsetOuter1" result="shadowBlurOuter1"></feGaussianBlur>
            <feColorMatrix values="0 0 0 0 0   0 0 0 0 0   0 0 0 0 0  0 0 0 0.2 0" type="matrix" in="shadowBlurOuter1"></feColorMatrix>
        </filter>
        <path d="M780,201 L780,210 L540,210 L540,150 L780,150 L780,161 L786.170386,161 L795,181 L786.170386,201 L780,201 Z" id="path-7"></path>
        <filter x="-2.7%" y="-8.3%" width="105.5%" height="123.3%" filterUnits="objectBoundingBox" id="filter-8">
            <feOffset dx="0" dy="2" in="SourceAlpha" result="shadowOffsetOuter1"></feOffset>
            <feGaussianBlur stdDeviation="2" in="shadowOffsetOuter1" result="shadowBlurOuter1"></feGaussianBlur>
            <feColorMatrix values="0 0 0 0 0   0 0 0 0 0   0 0 0 0 0  0 0 0 0.2 0" type="matrix" in="shadowBlurOuter1"></feColorMatrix>
        </filter>
        <path d="M635,315 L635,260.215343 L660,248 L685,260.215343 L685,315 L780,315 L780,380 L539,380 L539,315 L635,315 Z" id="path-9"></path>
        <filter x="-2.9%" y="-3.8%" width="105.8%" height="110.6%" filterUnits="objectBoundingBox" id="filter-10">
            <feOffset dx="0" dy="2" in="SourceAlpha" result="shadowOffsetOuter1"></feOffset>
            <feGaussianBlur stdDeviation="2" in="shadowOffsetOuter1" result="shadowBlurOuter1"></feGaussianBlur>
            <feColorMatrix values="0 0 0 0 0   0 0 0 0 0   0 0 0 0 0  0 0 0 0.2 0" type="matrix" in="shadowBlurOuter1"></feColorMatrix>
        </filter>
        <path d="M280,315 L510,315 L510,380 L0,380 L0,315 L230,315 L230,306.105529 L255,294 L280,306.105529 L280,315 Z" id="path-11"></path>
        <filter x="-1.4%" y="-5.8%" width="102.7%" height="116.3%" filterUnits="objectBoundingBox" id="filter-12">
            <feOffset dx="0" dy="2" in="SourceAlpha" result="shadowOffsetOuter1"></feOffset>
            <feGaussianBlur stdDeviation="2" in="shadowOffsetOuter1" result="shadowBlurOuter1"></feGaussianBlur>
            <feColorMatrix values="0 0 0 0 0   0 0 0 0 0   0 0 0 0 0  0 0 0 0.2 0" type="matrix" in="shadowBlurOuter1"></feColorMatrix>
        </filter>
    </defs>
    <g id="People_Desktops-Structure" stroke="none" stroke-width="1" fill="none" fill-rule="evenodd">
        <rect fill="#F7F9FB" x="0" y="0" width="1069" height="457"></rect>
        <g id="Group" transform="translate(8.000000, 3.000000)">
            <g id="Combined-Shape-Copy-8">
                <use fill="black" fill-opacity="1" filter="url(#filter-2)" xlink:href="#path-1"></use>
                <use fill="#FFFFFF" fill-rule="evenodd" xlink:href="#path-1"></use>
            </g>
            <g id="Combined-Shape-Copy-2">
                <use fill="black" fill-opacity="1" filter="url(#filter-4)" xlink:href="#path-3"></use>
                <use fill="#FFFFFF" fill-rule="evenodd" xlink:href="#path-3"></use>
            </g>
            <g id="Combined-Shape-Copy-3">
                <use fill="black" fill-opacity="1" filter="url(#filter-6)" xlink:href="#path-5"></use>
                <use fill="#FFFFFF" fill-rule="evenodd" xlink:href="#path-5"></use>
            </g>
            <g id="Combined-Shape-Copy-4">
                <use fill="black" fill-opacity="1" filter="url(#filter-8)" xlink:href="#path-7"></use>
                <use fill="#FFFFFF" fill-rule="evenodd" xlink:href="#path-7"></use>
            </g>
            <g id="Combined-Shape">
                <use fill="black" fill-opacity="1" filter="url(#filter-10)" xlink:href="#path-9"></use>
                <use fill="#FFFFFF" fill-rule="evenodd" xlink:href="#path-9"></use>
            </g>
            <g id="Combined-Shape">
                <use fill="black" fill-opacity="1" filter="url(#filter-12)" xlink:href="#path-11"></use>
                <use fill="#FFFFFF" fill-rule="evenodd" xlink:href="#path-11"></use>
            </g>
            <text id="Внешние-органы-управ" font-family="DINPro-Medium, DINPro" font-size="14" font-weight="400" line-spacing="25" fill="#040303">
                <tspan x="26.143" y="70">Внешние органы управления</tspan>
            </text>
            <text id="Источники-финансиров" font-family="DINPro-Regular, DINPro" font-size="18" font-weight="normal" line-spacing="25" fill="#040303">
                <tspan x="249.06" y="446">ИСТОЧНИКИ ФИНАНСИРОВАНИЯ</tspan>
            </text>
            <text id="Структура-ркц" font-family="DINPro-Regular, DINPro" font-size="18" font-weight="normal" line-spacing="25" fill="#040303">
                <tspan x="457.383" y="19">СТРУКТУРА РКЦ</tspan>
            </text>
            <a xlink:href="/people#international-board" target="_blank" rel="noopener noreferrer"> 
                <text id="Международный-консул-Copy" font-family="DINPro-Bold, DINPro" font-size="16" font-weight="bold" line-spacing="18" fill="#3998D1" text-decoration="underline">
                    <tspan x="54.064" y="217">Международный </tspan>
                    <tspan x="29" y="235">консультативный совет</tspan>
                </text>
            </a>
            <a xlink:href="/people#board-of-trustees" target="_blank" rel="noopener noreferrer">
                <text id="Попечительский-совет-Copy" font-family="DINPro-Bold, DINPro" font-size="16" font-weight="bold" line-spacing="18" fill="#3998D1" text-decoration="underline">
                    <tspan x="29" y="137">Попечительский совет</tspan>
                </text>
            </a>
            <text id="Госпрограммы" font-family="DINPro-Medium, DINPro" font-size="16" font-weight="400" line-spacing="18" fill="#040303">
                <tspan x="23" y="357">Госпрограммы</tspan>
            </text>
            <text id="Частный-эндаумент" font-family="DINPro-Medium, DINPro" font-size="16" font-weight="400" line-spacing="18" fill="#040303">
                <tspan x="169" y="357">Частный эндаумент</tspan>
            </text>
            <a xlink:href=" https://www.gazprombank.ru/" target="_blank" rel="noopener noreferrer">
                <text id="Финансирование-банко" font-family="DINPro-Bold, DINPro" font-size="16" font-weight="bold" line-spacing="18" fill="#3998D1" text-decoration="underline">
                    <tspan x="351" y="348">Финансирование </tspan>
                    <tspan x="371.072" y="366">банком ГПБ</tspan>
                </text>
            </a>
            <text id="Исследовательские-гр" font-family="DINPro-Medium, DINPro" font-size="16" font-weight="400" line-spacing="18" fill="#040303">
                <tspan x="558" y="354">Исследовательские гранты</tspan>
            </text>
            <g id="Group-11-Copy" transform="translate(115.000000, 156.000000)" stroke="#040303">
                <polyline id="Path-3-Copy-7" transform="translate(6.000000, 36.100000) rotate(-270.000000) translate(-6.000000, -36.100000) " points="4.1 30.6 7.9 36.1 4.1 41.6"></polyline>
                <path d="M-13,19 L25,19" id="Path-2-Copy-2" transform="translate(6.000000, 19.000000) rotate(-270.000000) translate(-6.000000, -19.000000) "></path>
            </g>
            <a xlink:href="/research#groups" target="_blank" rel="noopener noreferrer"> 
                <text id="Научные-группы" font-family="DINPro-Bold, DINPro" font-size="16" font-weight="bold" line-spacing="18" fill="#3998D1" text-decoration="underline">
                    <tspan x="597" y="187">Научные группы</tspan>
                </text>
            </a>
            <a xlink:href="/#products" target="_blank" rel="noopener noreferrer">
                <text id="Проекты-коммерциализ" font-family="DINPro-Bold, DINPro" font-size="16" font-weight="bold" line-spacing="18" fill="#3998D1" text-decoration="underline">
                    <tspan x="895.032" y="175">Проекты </tspan>
                    <tspan x="854" y="193">коммерциализации</tspan>
                </text>
            </a>
            <text id="Внутренние-органы-уп" font-family="DINPro-Medium, DINPro" font-size="14" font-weight="400" line-spacing="25" fill="#040303">
                <tspan x="285.103" y="70">Внутренние органы управления</tspan>
            </text>
            <a xlink:href="/people#scientific-committee" target="_blank" rel="noopener noreferrer"> 
                <text id="Научный-совет-Copy" font-family="DINPro-Bold, DINPro" font-size="16" font-weight="bold" line-spacing="18" fill="#3998D1" text-decoration="underline">
                    <tspan x="334" y="248">Научный совет</tspan>
                </text>
            </a>
            <text id="Научный-директор-Copy" font-family="DINPro-Medium, DINPro" font-size="16" font-weight="400" line-spacing="18" fill="#040303">
                <tspan x="322" y="125">Научный директор</tspan>
            </text>
            <g id="Group-14-Copy-5" transform="translate(476.500000, 182.500000) scale(-1, 1) translate(-476.500000, -182.500000) translate(461.000000, 116.000000)" stroke="#040303">
                <polyline id="Path-3-Copy-3" transform="translate(28.125000, 127.812057) rotate(-360.000000) translate(-28.125000, -127.812057) " points="26.25 122.624113 30 127.812057 26.25 133"></polyline>
                <polyline id="Path-3-Copy-4" transform="translate(15.937500, 5.187943) rotate(-360.000000) translate(-15.937500, -5.187943) " points="14.0625 0 17.8125 5.18794326 14.0625 10.3758865"></polyline>
                <polyline id="Path-2" transform="translate(14.765625, 66.028369) rotate(-90.000000) translate(-14.765625, -66.028369) " points="-46.5464317 80.3252438 -46.5464317 51.7314938 76.0776817 51.7314938 76.0776817 68.1377438"></polyline>
            </g>
            <g id="Group-14-Copy-6" transform="translate(289.000000, 116.000000)" stroke="#040303">
                <polyline id="Path-3-Copy-3" transform="translate(28.125000, 127.812057) rotate(-360.000000) translate(-28.125000, -127.812057) " points="26.25 122.624113 30 127.812057 26.25 133"></polyline>
                <polyline id="Path-3-Copy-4" transform="translate(15.937500, 5.187943) rotate(-360.000000) translate(-15.937500, -5.187943) " points="14.0625 0 17.8125 5.18794326 14.0625 10.3758865"></polyline>
                <polyline id="Path-2" transform="translate(14.765625, 66.028369) rotate(-90.000000) translate(-14.765625, -66.028369) " points="-46.5464317 80.3252438 -46.5464317 51.7314938 76.0776817 51.7314938 76.0776817 68.1377438"></polyline>
            </g>
            <polyline id="Path-2" stroke="#040303" transform="translate(118.500000, 421.500000) rotate(-90.000000) translate(-118.500000, -421.500000) " points="105 540 105 303 132 303"></polyline>
            <polyline id="Path-2-Copy" stroke="#040303" transform="translate(661.500000, 421.500000) scale(-1, 1) rotate(-90.000000) translate(-661.500000, -421.500000) " points="648 540 648 303 675 303"></polyline>
            <polyline id="Path-2-Copy-4" stroke="#040303" transform="translate(217.500000, 43.500000) scale(1, -1) rotate(-90.000000) translate(-217.500000, -43.500000) " points="183 261 183 -174 252 -174"></polyline>
            <polyline id="Path-2-Copy-5" stroke="#040303" transform="translate(832.500000, 64.500000) scale(-1, -1) rotate(-90.000000) translate(-832.500000, -64.500000) " points="776 282 776 -153 889 -153"></polyline>
            <text id="Генеральный-директор" font-family="DINPro-Medium, DINPro" font-size="16" font-weight="400" line-spacing="18" fill="#040303">
                <tspan x="340" y="182">Генеральный </tspan>
                <tspan x="355.768" y="200">директор</tspan>
            </text>
            <g id="Group-10-Copy-2" transform="translate(384.000000, 211.000000)" stroke="#040303">
                <polyline id="Path-3" transform="translate(5.500000, 16.200000) rotate(-270.000000) translate(-5.500000, -16.200000) " points="3.7 10.7 7.3 16.2 3.7 21.7"></polyline>
                <polyline id="Path-3-Copy-2" transform="translate(5.500000, 1.800000) rotate(-90.000000) translate(-5.500000, -1.800000) " points="3.7 -3.7 7.3 1.8 3.7 7.3"></polyline>
                <path d="M-3.5,9 L14.5,9" id="Path-2" transform="translate(5.500000, 9.000000) rotate(-270.000000) translate(-5.500000, -9.000000) "></path>
            </g>
            <g id="Group-10-Copy-3" transform="translate(384.000000, 139.000000)" stroke="#040303">
                <polyline id="Path-3" transform="translate(5.500000, 16.200000) rotate(-270.000000) translate(-5.500000, -16.200000) " points="3.7 10.7 7.3 16.2 3.7 21.7"></polyline>
                <polyline id="Path-3-Copy-2" transform="translate(5.500000, 1.800000) rotate(-90.000000) translate(-5.500000, -1.800000) " points="3.7 -3.7 7.3 1.8 3.7 7.3"></polyline>
                <path d="M-3.5,9 L14.5,9" id="Path-2" transform="translate(5.500000, 9.000000) rotate(-270.000000) translate(-5.500000, -9.000000) "></path>
            </g>
        </g>
    </g>
</svg>