<?xml version="1.0" encoding="UTF-8"?>
<svg width="375px" height="802px" viewBox="0 0 375 802" version="1.1" xmlns="http://www.w3.org/2000/svg" xmlns:xlink="http://www.w3.org/1999/xlink">
    <!-- Generator: Sketch 52.6 (67491) - http://www.bohemiancoding.com/sketch -->
    <title>Poeple_Mobile 1904 Copy 2</title>
    <desc>Created with Sketch.</desc>
    <defs>
        <path d="M70,252 L27,252 L27,52 L162,52 L162,252 L120,252 L120,264.170386 L95,273 L70,264.170386 L70,252 Z" id="path-1"></path>
        <filter x="-5.2%" y="-2.3%" width="110.4%" height="106.3%" filterUnits="objectBoundingBox" id="filter-2">
            <feOffset dx="0" dy="2" in="SourceAlpha" result="shadowOffsetOuter1"></feOffset>
            <feGaussianBlur stdDeviation="2" in="shadowOffsetOuter1" result="shadowBlurOuter1"></feGaussianBlur>
            <feColorMatrix values="0 0 0 0 0   0 0 0 0 0   0 0 0 0 0  0 0 0 0.2 0" type="matrix" in="shadowBlurOuter1"></feColorMatrix>
        </filter>
        <path d="M70,563 L27,563 L27,363 L162,363 L162,563 L120,563 L120,575.170386 L95,584 L70,575.170386 L70,563 Z" id="path-3"></path>
        <filter x="-5.2%" y="-2.3%" width="110.4%" height="106.3%" filterUnits="objectBoundingBox" id="filter-4">
            <feOffset dx="0" dy="2" in="SourceAlpha" result="shadowOffsetOuter1"></feOffset>
            <feGaussianBlur stdDeviation="2" in="shadowOffsetOuter1" result="shadowBlurOuter1"></feGaussianBlur>
            <feColorMatrix values="0 0 0 0 0   0 0 0 0 0   0 0 0 0 0  0 0 0 0.2 0" type="matrix" in="shadowBlurOuter1"></feColorMatrix>
        </filter>
        <path d="M77,664 L27,664 L27,604 L166,604 L166,664 L117,664 L117,669.170386 L97,678 L77,669.170386 L77,664 Z" id="path-5"></path>
        <filter x="-5.0%" y="-6.8%" width="110.1%" height="118.9%" filterUnits="objectBoundingBox" id="filter-6">
            <feOffset dx="0" dy="2" in="SourceAlpha" result="shadowOffsetOuter1"></feOffset>
            <feGaussianBlur stdDeviation="2" in="shadowOffsetOuter1" result="shadowBlurOuter1"></feGaussianBlur>
            <feColorMatrix values="0 0 0 0 0   0 0 0 0 0   0 0 0 0 0  0 0 0 0.2 0" type="matrix" in="shadowBlurOuter1"></feColorMatrix>
        </filter>
        <polygon id="path-7" points="27 698 166 698 166 758 27 758"></polygon>
        <filter x="-5.0%" y="-8.3%" width="110.1%" height="123.3%" filterUnits="objectBoundingBox" id="filter-8">
            <feOffset dx="0" dy="2" in="SourceAlpha" result="shadowOffsetOuter1"></feOffset>
            <feGaussianBlur stdDeviation="2" in="shadowOffsetOuter1" result="shadowBlurOuter1"></feGaussianBlur>
            <feColorMatrix values="0 0 0 0 0   0 0 0 0 0   0 0 0 0 0  0 0 0 0.2 0" type="matrix" in="shadowBlurOuter1"></feColorMatrix>
        </filter>
        <path d="M175,271 L175,201 L310,201 L310,401 L175,401 L175,321 L164.829614,321 L156,296 L164.829614,271 L175,271 Z" id="path-9"></path>
        <filter x="-4.5%" y="-2.5%" width="109.1%" height="107.0%" filterUnits="objectBoundingBox" id="filter-10">
            <feOffset dx="0" dy="2" in="SourceAlpha" result="shadowOffsetOuter1"></feOffset>
            <feGaussianBlur stdDeviation="2" in="shadowOffsetOuter1" result="shadowBlurOuter1"></feGaussianBlur>
            <feColorMatrix values="0 0 0 0 0   0 0 0 0 0   0 0 0 0 0  0 0 0 0.2 0" type="matrix" in="shadowBlurOuter1"></feColorMatrix>
        </filter>
        <path d="M193,612 L193,557 L273,557 L273,717 L193,717 L193,662 L182.829614,662 L174,637 L182.829614,612 L193,612 Z" id="path-11"></path>
        <filter x="-7.1%" y="-3.1%" width="114.1%" height="108.8%" filterUnits="objectBoundingBox" id="filter-12">
            <feOffset dx="0" dy="2" in="SourceAlpha" result="shadowOffsetOuter1"></feOffset>
            <feGaussianBlur stdDeviation="2" in="shadowOffsetOuter1" result="shadowBlurOuter1"></feGaussianBlur>
            <feColorMatrix values="0 0 0 0 0   0 0 0 0 0   0 0 0 0 0  0 0 0 0.2 0" type="matrix" in="shadowBlurOuter1"></feColorMatrix>
        </filter>
    </defs>
    <g id="Poeple_Mobile-1904-Copy-2" stroke="none" stroke-width="1" fill="none" fill-rule="evenodd">
        <rect fill="#F7F9FB" x="0" y="0" width="375" height="802"></rect>
        <g id="Group" transform="translate(22.000000, 13.000000)">
            <g id="Combined-Shape-Copy-3">
                <use fill="black" fill-opacity="1" filter="url(#filter-2)" xlink:href="#path-1"></use>
                <use fill="#FFFFFF" fill-rule="evenodd" xlink:href="#path-1"></use>
            </g>
            <text id="International-adviso" font-family="DINPro-Bold, DINPro" font-size="14" font-weight="bold" line-spacing="18" fill="#3998D1" text-decoration="underline">
                <tspan x="54.406" y="187">International </tspan>
                <tspan x="69.008" y="205">advisory </tspan>
                <tspan x="77.429" y="223">board</tspan>
            </text>
            <text id="Board-of-trustees" font-family="DINPro-Bold, DINPro" font-size="14" font-weight="bold" line-spacing="18" fill="#3998D1" text-decoration="underline">
                <tspan x="76.743" y="87">Board </tspan>
                <tspan x="61.371" y="105">of trustees</tspan>
            </text>
            <g id="Group-11-Copy" transform="translate(89.000000, 120.000000)" stroke="#040303">
                <polyline id="Path-3-Copy-7" transform="translate(6.000000, 36.100000) rotate(-270.000000) translate(-6.000000, -36.100000) " points="4.1 30.6 7.9 36.1 4.1 41.6"></polyline>
                <path d="M-13,19 L25,19" id="Path-2-Copy-2" transform="translate(6.000000, 19.000000) rotate(-270.000000) translate(-6.000000, -19.000000) "></path>
            </g>
            <g id="Combined-Shape-Copy-6">
                <use fill="black" fill-opacity="1" filter="url(#filter-4)" xlink:href="#path-3"></use>
                <use fill="#FFFFFF" fill-rule="evenodd" xlink:href="#path-3"></use>
            </g>
            <text id="Scientific-committee" font-family="DINPro-Bold, DINPro" font-size="14" font-weight="bold" line-spacing="18" fill="#3998D1" text-decoration="underline">
                <tspan x="67.768" y="531">Scientific </tspan>
                <tspan x="63.05" y="549">committee</tspan>
            </text>
            <text id="Scientific-director" font-family="DINPro-Medium, DINPro" font-size="14" font-weight="400" line-spacing="18" fill="#040303">
                <tspan x="39" y="391">Scientific director</tspan>
            </text>
            <text id="CEO" font-family="DINPro-Medium, DINPro" font-size="14" font-weight="400" line-spacing="18" fill="#040303">
                <tspan x="81.361" y="463">CEO</tspan>
            </text>
            <g id="Group-10-Copy-2" transform="translate(89.000000, 484.000000)" stroke="#040303">
                <polyline id="Path-3" transform="translate(5.500000, 16.200000) rotate(-270.000000) translate(-5.500000, -16.200000) " points="3.7 10.7 7.3 16.2 3.7 21.7"></polyline>
                <polyline id="Path-3-Copy-2" transform="translate(5.500000, 1.800000) rotate(-90.000000) translate(-5.500000, -1.800000) " points="3.7 -3.7 7.3 1.8 3.7 7.3"></polyline>
                <path d="M-3.5,9 L14.5,9" id="Path-2" transform="translate(5.500000, 9.000000) rotate(-270.000000) translate(-5.500000, -9.000000) "></path>
            </g>
            <g id="Group-10-Copy-3" transform="translate(89.000000, 407.000000)" stroke="#040303">
                <polyline id="Path-3" transform="translate(5.500000, 16.200000) rotate(-270.000000) translate(-5.500000, -16.200000) " points="3.7 10.7 7.3 16.2 3.7 21.7"></polyline>
                <polyline id="Path-3-Copy-2" transform="translate(5.500000, 1.800000) rotate(-90.000000) translate(-5.500000, -1.800000) " points="3.7 -3.7 7.3 1.8 3.7 7.3"></polyline>
                <path d="M-3.5,9 L14.5,9" id="Path-2" transform="translate(5.500000, 9.000000) rotate(-270.000000) translate(-5.500000, -9.000000) "></path>
            </g>
            <g id="Group-10-Copy-4" transform="translate(35.000000, 407.000000)" stroke="#040303">
                <polyline id="Path-3" transform="translate(5.500000, 116.200000) rotate(-270.000000) translate(-5.500000, -116.200000) " points="3.7 110.7 7.3 116.2 3.7 121.7"></polyline>
                <polyline id="Path-3-Copy-2" transform="translate(5.500000, 1.800000) rotate(-90.000000) translate(-5.500000, -1.800000) " points="3.7 -3.7 7.3 1.8 3.7 7.3"></polyline>
                <path d="M-53,59.5 L65,59.5" id="Path-2" transform="translate(6.000000, 59.000000) rotate(-270.000000) translate(-6.000000, -59.000000) "></path>
            </g>
            <g id="Group-10-Copy-5" transform="translate(143.000000, 407.000000)" stroke="#040303">
                <polyline id="Path-3" transform="translate(5.500000, 116.200000) rotate(-270.000000) translate(-5.500000, -116.200000) " points="3.7 110.7 7.3 116.2 3.7 121.7"></polyline>
                <polyline id="Path-3-Copy-2" transform="translate(5.500000, 1.800000) rotate(-90.000000) translate(-5.500000, -1.800000) " points="3.7 -3.7 7.3 1.8 3.7 7.3"></polyline>
                <path d="M-53,59.5 L65,59.5" id="Path-2" transform="translate(6.000000, 59.000000) rotate(-270.000000) translate(-6.000000, -59.000000) "></path>
            </g>
            <text id="External-governing-b" font-family="DINPro-Medium, DINPro" font-size="14" font-weight="400" line-spacing="18" fill="#040303">
                <tspan x="69.155" y="22">External </tspan>
                <tspan x="42.317" y="40">governing bodies</tspan>
            </text>
            <text id="Internal-governing-b" font-family="DINPro-Medium, DINPro" font-size="14" font-weight="400" line-spacing="18" fill="#040303">
                <tspan x="68.863" y="333">Internal </tspan>
                <tspan x="40.317" y="351">governing bodies</tspan>
            </text>
            <g id="Combined-Shape-Copy-4">
                <use fill="black" fill-opacity="1" filter="url(#filter-6)" xlink:href="#path-5"></use>
                <use fill="#FFFFFF" fill-rule="evenodd" xlink:href="#path-5"></use>
            </g>
            <text id="Scientific-groups" font-family="DINPro-Bold, DINPro" font-size="14" font-weight="bold" line-spacing="18" fill="#3998D1" text-decoration="underline">
                <tspan x="42.335" y="639">Scientific groups</tspan>
            </text>
            <g id="Combined-Shape-Copy-4">
                <use fill="black" fill-opacity="1" filter="url(#filter-8)" xlink:href="#path-7"></use>
                <use fill="#FFFFFF" fill-rule="evenodd" xlink:href="#path-7"></use>
            </g>
            <text id="Commercialization-pr" font-family="DINPro-Bold, DINPro" font-size="14" font-weight="bold" line-spacing="18" fill="#3998D1" text-decoration="underline">
                <tspan x="36.066" y="725">Commercialization </tspan>
                <tspan x="70.002" y="743">projects</tspan>
            </text>
            <g id="Combined-Shape-Copy-3">
                <use fill="black" fill-opacity="1" filter="url(#filter-10)" xlink:href="#path-9"></use>
                <use fill="#FFFFFF" fill-rule="evenodd" xlink:href="#path-9"></use>
            </g>
            <text id="State-program" font-family="DINPro-Medium, DINPro" font-size="14" font-weight="400" line-spacing="18" fill="#040303">
                <tspan x="196.451" y="250">State program</tspan>
            </text>
            <text id="Private-endowment" font-family="DINPro-Medium, DINPro" font-size="14" font-weight="400" line-spacing="18" fill="#040303">
                <tspan x="219.502" y="301">Private </tspan>
                <tspan x="205.138" y="319">endowment</tspan>
            </text>
            <text id="Financing-by-GPB" font-family="DINPro-Bold, DINPro" font-size="14" font-weight="bold" line-spacing="18" fill="#3998D1" text-decoration="underline">
                <tspan x="186.417" y="370">Financing by GPB</tspan>
            </text>
            <g id="Combined-Shape-Copy-7">
                <use fill="black" fill-opacity="1" filter="url(#filter-12)" xlink:href="#path-11"></use>
                <use fill="#FFFFFF" fill-rule="evenodd" xlink:href="#path-11"></use>
            </g>
            <text id="Research-grants" transform="translate(232.000000, 639.000000) rotate(-90.000000) translate(-232.000000, -639.000000) " font-family="DINPro-Medium, DINPro" font-size="14" font-weight="400" line-spacing="18" fill="#040303">
                <tspan x="180.067" y="646">Research grants</tspan>
            </text>
            <text id="FUNDING-SOURCES" transform="translate(326.500000, 459.000000) rotate(-270.000000) translate(-326.500000, -459.000000) " font-family="DINPro-Regular, DINPro" font-size="14" font-weight="normal" line-spacing="25" fill="#040303">
                <tspan x="263.619" y="466.5">FUNDING SOURCES</tspan>
            </text>
            <polyline id="Path-2" stroke="#040303" transform="translate(312.500000, 637.500000) rotate(-180.000000) translate(-312.500000, -637.500000) " points="299 736 299 539 326 539"></polyline>
            <polyline id="Path-2-Copy" stroke="#040303" transform="translate(312.500000, 281.500000) scale(1, -1) rotate(-180.000000) translate(-312.500000, -281.500000) " points="299 380 299 183 326 183"></polyline>
            <text id="STRUCTURE-OF-THE-RQC" transform="translate(7.500000, 383.000000) rotate(-90.000000) translate(-7.500000, -383.000000) " font-family="DINPro-Regular, DINPro" font-size="14" font-weight="normal" line-spacing="25" fill="#040303">
                <tspan x="-72.034" y="390.5">STRUCTURE OF THE RQC</tspan>
            </text>
            <polyline id="Path-2-Copy-3" stroke="#040303" transform="translate(19.500000, 626.500000) scale(-1, 1) rotate(-180.000000) translate(-19.500000, -626.500000) " points="6 775 6 478 33 478"></polyline>
            <polyline id="Path-2-Copy-4" stroke="#040303" transform="translate(19.500000, 143.500000) scale(-1, -1) rotate(-180.000000) translate(-19.500000, -143.500000) " points="6 287 6 0 33 0"></polyline>
        </g>
    </g>
</svg>