<?xml version="1.0" encoding="UTF-8"?>
<svg width="100%" height="100%" viewBox="0 0 375 819" version="1.1" xmlns="http://www.w3.org/2000/svg" xmlns:xlink="http://www.w3.org/1999/xlink">
    <!-- Generator: Sketch 52.6 (67491) - http://www.bohemiancoding.com/sketch -->
    <title>Poeple_Mobile 1904 Copy</title>
    <desc>Created with Sketch.</desc>
    <defs>
        <path d="M43,200 L0,200 L0,1.42108547e-14 L135,1.42108547e-14 L135,200 L93,200 L93,212.170386 L68,221 L43,212.170386 L43,200 Z" id="path-1"></path>
        <filter x="-5.2%" y="-2.3%" width="110.4%" height="106.3%" filterUnits="objectBoundingBox" id="filter-2">
            <feOffset dx="0" dy="2" in="SourceAlpha" result="shadowOffsetOuter1"></feOffset>
            <feGaussianBlur stdDeviation="2" in="shadowOffsetOuter1" result="shadowBlurOuter1"></feGaussianBlur>
            <feColorMatrix values="0 0 0 0 0   0 0 0 0 0   0 0 0 0 0  0 0 0 0.2 0" type="matrix" in="shadowBlurOuter1"></feColorMatrix>
        </filter>
        <path d="M44,200 L1,200 L1,1.42108547e-14 L136,1.42108547e-14 L136,200 L94,200 L94,212.170386 L69,221 L44,212.170386 L44,200 Z" id="path-3"></path>
        <filter x="-5.2%" y="-2.3%" width="110.4%" height="106.3%" filterUnits="objectBoundingBox" id="filter-4">
            <feOffset dx="0" dy="2" in="SourceAlpha" result="shadowOffsetOuter1"></feOffset>
            <feGaussianBlur stdDeviation="2" in="shadowOffsetOuter1" result="shadowBlurOuter1"></feGaussianBlur>
            <feColorMatrix values="0 0 0 0 0   0 0 0 0 0   0 0 0 0 0  0 0 0 0.2 0" type="matrix" in="shadowBlurOuter1"></feColorMatrix>
        </filter>
        <path d="M51,60 L1,60 L1,0 L140,0 L140,60 L91,60 L91,65.1703859 L71,74 L51,65.1703859 L51,60 Z" id="path-5"></path>
        <filter x="-5.0%" y="-6.8%" width="110.1%" height="118.9%" filterUnits="objectBoundingBox" id="filter-6">
            <feOffset dx="0" dy="2" in="SourceAlpha" result="shadowOffsetOuter1"></feOffset>
            <feGaussianBlur stdDeviation="2" in="shadowOffsetOuter1" result="shadowBlurOuter1"></feGaussianBlur>
            <feColorMatrix values="0 0 0 0 0   0 0 0 0 0   0 0 0 0 0  0 0 0 0.2 0" type="matrix" in="shadowBlurOuter1"></feColorMatrix>
        </filter>
        <polygon id="path-7" points="1 0 140 0 140 60 1 60"></polygon>
        <filter x="-5.0%" y="-8.3%" width="110.1%" height="123.3%" filterUnits="objectBoundingBox" id="filter-8">
            <feOffset dx="0" dy="2" in="SourceAlpha" result="shadowOffsetOuter1"></feOffset>
            <feGaussianBlur stdDeviation="2" in="shadowOffsetOuter1" result="shadowBlurOuter1"></feGaussianBlur>
            <feColorMatrix values="0 0 0 0 0   0 0 0 0 0   0 0 0 0 0  0 0 0 0.2 0" type="matrix" in="shadowBlurOuter1"></feColorMatrix>
        </filter>
        <path d="M19,70 L19,0 L154,0 L154,200 L19,200 L19,120 L8.82961408,120 L4.0610659e-14,95 L8.82961408,70 L19,70 Z" id="path-9"></path>
        <filter x="-4.5%" y="-2.5%" width="109.1%" height="107.0%" filterUnits="objectBoundingBox" id="filter-10">
            <feOffset dx="0" dy="2" in="SourceAlpha" result="shadowOffsetOuter1"></feOffset>
            <feGaussianBlur stdDeviation="2" in="shadowOffsetOuter1" result="shadowBlurOuter1"></feGaussianBlur>
            <feColorMatrix values="0 0 0 0 0   0 0 0 0 0   0 0 0 0 0  0 0 0 0.2 0" type="matrix" in="shadowBlurOuter1"></feColorMatrix>
        </filter>
        <path d="M19,55 L19,0 L99,0 L99,160 L19,160 L19,105 L8.82961408,105 L4.0610659e-14,80 L8.82961408,55 L19,55 Z" id="path-11"></path>
        <filter x="-7.1%" y="-3.1%" width="114.1%" height="108.8%" filterUnits="objectBoundingBox" id="filter-12">
            <feOffset dx="0" dy="2" in="SourceAlpha" result="shadowOffsetOuter1"></feOffset>
            <feGaussianBlur stdDeviation="2" in="shadowOffsetOuter1" result="shadowBlurOuter1"></feGaussianBlur>
            <feColorMatrix values="0 0 0 0 0   0 0 0 0 0   0 0 0 0 0  0 0 0 0.2 0" type="matrix" in="shadowBlurOuter1"></feColorMatrix>
        </filter>
    </defs>
    <g id="Poeple_Mobile-1904-Copy" stroke="none" stroke-width="1" fill="none" fill-rule="evenodd">
        <rect fill="#FFFFFF" x="0" y="0" width="375" height="819"></rect>
        <g id="Group-7" transform="translate(17.000000, 23.000000)">
            <g id="Group-4" transform="translate(31.000000, 2.000000)">
                <g id="Group" transform="translate(1.000000, 50.000000)">
                    <g id="Combined-Shape-Copy-3">
                        <use fill="black" fill-opacity="1" filter="url(#filter-2)" xlink:href="#path-1"></use>
                        <use fill="#FFFFFF" fill-rule="evenodd" xlink:href="#path-1"></use>
                    </g>
                    <a xlink:href="/people#international-board" target="_blank" rel="noopener noreferrer"> 
                        <text id="Международный-консул-Copy" font-family="DINPro-Bold, DINPro" font-size="14" font-weight="bold" line-spacing="18" fill="#3998D1" text-decoration="underline">
                            <tspan x="12.137" y="128">Международный </tspan>
                            <tspan x="9.869" y="146">консультативный </tspan>
                            <tspan x="49.461" y="164">совет</tspan>
                        </text>
                    </a>
                    <a xlink:href="/people#board-of-trustees" target="_blank" rel="noopener noreferrer">
                        <text id="Попечительский-совет-Copy" font-family="DINPro-Bold, DINPro" font-size="14" font-weight="bold" line-spacing="18" fill="#3998D1" text-decoration="underline">
                            <tspan x="13.033" y="38">Попечительский </tspan>
                            <tspan x="49.461" y="56">совет</tspan>
                        </text>
                    </a>
                    <g id="Group-11-Copy" transform="translate(62.000000, 68.000000)" stroke="#040303">
                        <polyline id="Path-3-Copy-7" transform="translate(6.000000, 36.100000) rotate(-270.000000) translate(-6.000000, -36.100000) " points="4.1 30.6 7.9 36.1 4.1 41.6"></polyline>
                        <path d="M-13,19 L25,19" id="Path-2-Copy-2" transform="translate(6.000000, 19.000000) rotate(-270.000000) translate(-6.000000, -19.000000) "></path>
                    </g>
                </g>
                <g id="Group-2" transform="translate(0.000000, 361.000000)">
                    <g id="Combined-Shape-Copy-6">
                        <use fill="black" fill-opacity="1" filter="url(#filter-4)" xlink:href="#path-3"></use>
                        <use fill="#FFFFFF" fill-rule="evenodd" xlink:href="#path-3"></use>
                    </g>
                    <a xlink:href="/people#scientific-committee" target="_blank" rel="noopener noreferrer"> 
                        <text id="Научный-совет-Copy" font-family="DINPro-Bold, DINPro" font-size="14" font-weight="bold" line-spacing="18" fill="#3998D1" text-decoration="underline">
                            <tspan x="18.535" y="174">Научный совет</tspan>
                        </text>
                    </a>
                    <text id="Научный-директор-Copy" font-family="DINPro-Medium, DINPro" font-size="14" font-weight="400" line-spacing="18" fill="#040303">
                        <tspan x="8.957" y="23">Научный директор</tspan>
                    </text>
                    <text id="Генеральный-директор" font-family="DINPro-Medium, DINPro" font-size="14" font-weight="400" line-spacing="18" fill="#040303">
                        <tspan x="24.68" y="85">Генеральный </tspan>
                        <tspan x="38.477" y="103">директор</tspan>
                    </text>
                    <g id="Group-10-Copy-2" transform="translate(63.000000, 135.000000)" stroke="#040303">
                        <polyline id="Path-3" transform="translate(5.500000, 16.200000) rotate(-270.000000) translate(-5.500000, -16.200000) " points="3.7 10.7 7.3 16.2 3.7 21.7"></polyline>
                        <polyline id="Path-3-Copy-2" transform="translate(5.500000, 1.800000) rotate(-90.000000) translate(-5.500000, -1.800000) " points="3.7 -3.7 7.3 1.8 3.7 7.3"></polyline>
                        <path d="M-3.5,9 L14.5,9" id="Path-2" transform="translate(5.500000, 9.000000) rotate(-270.000000) translate(-5.500000, -9.000000) "></path>
                    </g>
                    <g id="Group-10-Copy-3" transform="translate(63.000000, 44.000000)" stroke="#040303">
                        <polyline id="Path-3" transform="translate(5.500000, 16.200000) rotate(-270.000000) translate(-5.500000, -16.200000) " points="3.7 10.7 7.3 16.2 3.7 21.7"></polyline>
                        <polyline id="Path-3-Copy-2" transform="translate(5.500000, 1.800000) rotate(-90.000000) translate(-5.500000, -1.800000) " points="3.7 -3.7 7.3 1.8 3.7 7.3"></polyline>
                        <path d="M-3.5,9 L14.5,9" id="Path-2" transform="translate(5.500000, 9.000000) rotate(-270.000000) translate(-5.500000, -9.000000) "></path>
                    </g>
                    <g id="Group-10-Copy-4" transform="translate(9.000000, 44.000000)" stroke="#040303">
                        <polyline id="Path-3" transform="translate(5.500000, 116.200000) rotate(-270.000000) translate(-5.500000, -116.200000) " points="3.7 110.7 7.3 116.2 3.7 121.7"></polyline>
                        <polyline id="Path-3-Copy-2" transform="translate(5.500000, 1.800000) rotate(-90.000000) translate(-5.500000, -1.800000) " points="3.7 -3.7 7.3 1.8 3.7 7.3"></polyline>
                        <path d="M-53,59.5 L65,59.5" id="Path-2" transform="translate(6.000000, 59.000000) rotate(-270.000000) translate(-6.000000, -59.000000) "></path>
                    </g>
                    <g id="Group-10-Copy-5" transform="translate(117.000000, 44.000000)" stroke="#040303">
                        <polyline id="Path-3" transform="translate(5.500000, 116.200000) rotate(-270.000000) translate(-5.500000, -116.200000) " points="3.7 110.7 7.3 116.2 3.7 121.7"></polyline>
                        <polyline id="Path-3-Copy-2" transform="translate(5.500000, 1.800000) rotate(-90.000000) translate(-5.500000, -1.800000) " points="3.7 -3.7 7.3 1.8 3.7 7.3"></polyline>
                        <path d="M-53,59.5 L65,59.5" id="Path-2" transform="translate(6.000000, 59.000000) rotate(-270.000000) translate(-6.000000, -59.000000) "></path>
                    </g>
                </g>
                <text id="Внешние-органы-управ" font-family="DINPro-Medium, DINPro" font-size="14" font-weight="400" line-spacing="18" fill="#040303">
                    <tspan x="13.431" y="15">Внешние органы </tspan>
                    <tspan x="30.392" y="33">управления</tspan>
                </text>
                <text id="Внутренние-органы-уп" font-family="DINPro-Medium, DINPro" font-size="14" font-weight="400" line-spacing="18" fill="#040303">
                    <tspan x="3.891" y="320">Внутренние органы </tspan>
                    <tspan x="29.392" y="338">управления</tspan>
                </text>
                <g id="Group-3" transform="translate(0.000000, 602.000000)">
                    <g id="Combined-Shape-Copy-4">
                        <use fill="black" fill-opacity="1" filter="url(#filter-6)" xlink:href="#path-5"></use>
                        <use fill="#FFFFFF" fill-rule="evenodd" xlink:href="#path-5"></use>
                    </g>
                    <a xlink:href="/research#groups" target="_blank" rel="noopener noreferrer"> 
                        <text id="Научные-группы" font-family="DINPro-Bold, DINPro" font-size="14" font-weight="bold" line-spacing="18" fill="#3998D1" text-decoration="underline">
                            <tspan x="15.582" y="33">Научные группы</tspan>
                        </text>
                    </a>
                </g>
                <g id="Group-3-Copy" transform="translate(0.000000, 696.000000)">
                    <g id="Combined-Shape-Copy-4">
                        <use fill="black" fill-opacity="1" filter="url(#filter-8)" xlink:href="#path-7"></use>
                        <use fill="#FFFFFF" fill-rule="evenodd" xlink:href="#path-7"></use>
                    </g>
                    <a xlink:href="/#products" target="_blank" rel="noopener noreferrer">
                        <text id="Проекты-комерциализа" font-family="DINPro-Bold, DINPro" font-size="14" font-weight="bold" line-spacing="18" fill="#3998D1" text-decoration="underline">
                            <tspan x="41.384" y="23">Проекты </tspan>
                            <tspan x="10.22" y="41">комерциализации</tspan>
                        </text>
                    </a>
                </g>
            </g>
            <g id="Group-5" transform="translate(161.000000, 201.000000)">
                <g id="Combined-Shape-Copy-3">
                    <use fill="black" fill-opacity="1" filter="url(#filter-10)" xlink:href="#path-9"></use>
                    <use fill="#FFFFFF" fill-rule="evenodd" xlink:href="#path-9"></use>
                </g>
                <text id="Госпрограммы" font-family="DINPro-Medium, DINPro" font-size="14" font-weight="400" line-spacing="18" fill="#040303">
                    <tspan x="38.697" y="15">Госпрограммы</tspan>
                </text>
                <text id="Частный-эндаумент" font-family="DINPro-Medium, DINPro" font-size="14" font-weight="400" line-spacing="18" fill="#040303">
                    <tspan x="58.542" y="80">Частный </tspan>
                    <tspan x="52.648" y="98">эндаумент</tspan>
                </text>
                <a xlink:href=" https://www.gazprombank.ru/" target="_blank" rel="noopener noreferrer">
                    <text id="Финансирование-банко" font-family="DINPro-Bold, DINPro" font-size="14" font-weight="bold" line-spacing="18" fill="#3998D1" text-decoration="underline">
                        <tspan x="30.157" y="145">Финансирование </tspan>
                        <tspan x="47.72" y="163">банком ГПБ</tspan>
                    </text>
                </a>
            </g>
            <g id="Group-6" transform="translate(179.000000, 557.000000)">
                <g id="Combined-Shape-Copy-7">
                    <use fill="black" fill-opacity="1" filter="url(#filter-12)" xlink:href="#path-11"></use>
                    <use fill="#FFFFFF" fill-rule="evenodd" xlink:href="#path-11"></use>
                </g>
                <text id="Исследовательские-гр" transform="translate(62.000000, 80.500000) rotate(-90.000000) translate(-62.000000, -80.500000) " font-family="DINPro-Medium, DINPro" font-size="14" font-weight="400" line-spacing="18" fill="#040303">
                    <tspan x="-1.924" y="77">Исследовательские </tspan>
                    <tspan x="39.194" y="95">гранты</tspan>
                </text>
            </g>
            <text id="Источники-финансиров" transform="translate(317.000000, 459.500000) rotate(-270.000000) translate(-317.000000, -459.500000) " font-family="DINPro-Regular, DINPro" font-size="14" font-weight="normal" line-spacing="25" fill="#040303">
                <tspan x="207.38" y="449.5">ИСТОЧНИКИ ФИНАНСИРОВАНИЯ</tspan>
            </text>
            <polyline id="Path-2" stroke="#040303" transform="translate(317.500000, 662.500000) rotate(-180.000000) translate(-317.500000, -662.500000) " points="304 736 304 589 331 589"></polyline>
            <polyline id="Path-2-Copy" stroke="#040303" transform="translate(317.500000, 256.500000) scale(1, -1) rotate(-180.000000) translate(-317.500000, -256.500000) " points="304 330 304 183 331 183"></polyline>
            <text id="Структура-ркц" transform="translate(25.000000, 382.500000) rotate(-90.000000) translate(-25.000000, -382.500000) " font-family="DINPro-Regular, DINPro" font-size="14" font-weight="normal" line-spacing="25" fill="#040303">
                <tspan x="-27.591" y="372.5">СТРУКТУРА РКЦ</tspan>
            </text>
            <polyline id="Path-2-Copy-3" stroke="#040303" transform="translate(24.500000, 611.500000) scale(-1, 1) rotate(-180.000000) translate(-24.500000, -611.500000) " points="11 775 11 448 38 448"></polyline>
            <polyline id="Path-2-Copy-4" stroke="#040303" transform="translate(24.500000, 158.500000) scale(-1, -1) rotate(-180.000000) translate(-24.500000, -158.500000) " points="11 317 11 6.82121026e-13 38 6.82121026e-13"></polyline>
        </g>
    </g>
</svg>