
<svg width="1056px" height="440px" viewBox="0 0 1056 440" version="1.1" xmlns="http://www.w3.org/2000/svg" xmlns:xlink="http://www.w3.org/1999/xlink">
    <defs>
        <polygon id="path-1" points="808 155 1048 155 1048 215 808 215"></polygon>
        <filter x="-2.9%" y="-8.3%" width="105.8%" height="123.3%" filterUnits="objectBoundingBox" id="filter-2">
            <feOffset dx="0" dy="2" in="SourceAlpha" result="shadowOffsetOuter1"></feOffset>
            <feGaussianBlur stdDeviation="2" in="shadowOffsetOuter1" result="shadowBlurOuter1"></feGaussianBlur>
            <feColorMatrix values="0 0 0 0 0   0 0 0 0 0   0 0 0 0 0  0 0 0 0.2 0" type="matrix" in="shadowBlurOuter1"></feColorMatrix>
        </filter>
        <path d="M510,212 L510,277 L270,277 L270,97 L510,97 L510,162 L521.170386,162 L530,187 L521.170386,212 L510,212 Z" id="path-3"></path>
        <filter x="-2.7%" y="-2.8%" width="105.4%" height="107.8%" filterUnits="objectBoundingBox" id="filter-4">
            <feOffset dx="0" dy="2" in="SourceAlpha" result="shadowOffsetOuter1"></feOffset>
            <feGaussianBlur stdDeviation="2" in="shadowOffsetOuter1" result="shadowBlurOuter1"></feGaussianBlur>
            <feColorMatrix values="0 0 0 0 0   0 0 0 0 0   0 0 0 0 0  0 0 0 0.2 0" type="matrix" in="shadowBlurOuter1"></feColorMatrix>
        </filter>
        <path d="M240,212 L240,277 L5.68434189e-14,277 L5.68434189e-14,97 L240,97 L240,162 L251.170386,162 L260,187 L251.170386,212 L240,212 Z" id="path-5"></path>
        <filter x="-2.7%" y="-2.8%" width="105.4%" height="107.8%" filterUnits="objectBoundingBox" id="filter-6">
            <feOffset dx="0" dy="2" in="SourceAlpha" result="shadowOffsetOuter1"></feOffset>
            <feGaussianBlur stdDeviation="2" in="shadowOffsetOuter1" result="shadowBlurOuter1"></feGaussianBlur>
            <feColorMatrix values="0 0 0 0 0   0 0 0 0 0   0 0 0 0 0  0 0 0 0.2 0" type="matrix" in="shadowBlurOuter1"></feColorMatrix>
        </filter>
        <path d="M780,206 L780,215 L540,215 L540,155 L780,155 L780,166 L786.170386,166 L795,186 L786.170386,206 L780,206 Z" id="path-7"></path>
        <filter x="-2.7%" y="-8.3%" width="105.5%" height="123.3%" filterUnits="objectBoundingBox" id="filter-8">
            <feOffset dx="0" dy="2" in="SourceAlpha" result="shadowOffsetOuter1"></feOffset>
            <feGaussianBlur stdDeviation="2" in="shadowOffsetOuter1" result="shadowBlurOuter1"></feGaussianBlur>
            <feColorMatrix values="0 0 0 0 0   0 0 0 0 0   0 0 0 0 0  0 0 0 0.2 0" type="matrix" in="shadowBlurOuter1"></feColorMatrix>
        </filter>
        <path d="M635,320 L635,265.215343 L660,253 L685,265.215343 L685,320 L780,320 L780,385 L539,385 L539,320 L635,320 Z" id="path-9"></path>
        <filter x="-2.9%" y="-3.8%" width="105.8%" height="110.6%" filterUnits="objectBoundingBox" id="filter-10">
            <feOffset dx="0" dy="2" in="SourceAlpha" result="shadowOffsetOuter1"></feOffset>
            <feGaussianBlur stdDeviation="2" in="shadowOffsetOuter1" result="shadowBlurOuter1"></feGaussianBlur>
            <feColorMatrix values="0 0 0 0 0   0 0 0 0 0   0 0 0 0 0  0 0 0 0.2 0" type="matrix" in="shadowBlurOuter1"></feColorMatrix>
        </filter>
        <path d="M280,320 L510,320 L510,385 L0,385 L0,320 L230,320 L230,311.105529 L255,299 L280,311.105529 L280,320 Z" id="path-11"></path>
        <filter x="-1.4%" y="-5.8%" width="102.7%" height="116.3%" filterUnits="objectBoundingBox" id="filter-12">
            <feOffset dx="0" dy="2" in="SourceAlpha" result="shadowOffsetOuter1"></feOffset>
            <feGaussianBlur stdDeviation="2" in="shadowOffsetOuter1" result="shadowBlurOuter1"></feGaussianBlur>
            <feColorMatrix values="0 0 0 0 0   0 0 0 0 0   0 0 0 0 0  0 0 0 0.2 0" type="matrix" in="shadowBlurOuter1"></feColorMatrix>
        </filter>
    </defs>
    <g id="Page-1" stroke="none" stroke-width="1" fill="none" fill-rule="evenodd">
        <g id="People_Desktops-Structure" transform="translate(-191.000000, -186.000000)">
            <g id="structure" transform="translate(195.000000, 180.000000)">
                <g id="Combined-Shape-Copy-8">
                    <use fill="black" fill-opacity="1" filter="url(#filter-2)" xlink:href="#path-1"></use>
                    <use fill="#FFFFFF" fill-rule="evenodd" xlink:href="#path-1"></use>
                </g>
                <g id="Combined-Shape-Copy-2">
                    <use fill="black" fill-opacity="1" filter="url(#filter-4)" xlink:href="#path-3"></use>
                    <use fill="#FFFFFF" fill-rule="evenodd" xlink:href="#path-3"></use>
                </g>
                <g id="Combined-Shape-Copy-3">
                    <use fill="black" fill-opacity="1" filter="url(#filter-6)" xlink:href="#path-5"></use>
                    <use fill="#FFFFFF" fill-rule="evenodd" xlink:href="#path-5"></use>
                </g>
                <g id="Combined-Shape">
                    <use fill="black" fill-opacity="1" filter="url(#filter-10)" xlink:href="#path-9"></use>
                    <use fill="#FFFFFF" fill-rule="evenodd" xlink:href="#path-9"></use>
                </g>
                <g id="Combined-Shape">
                    <use fill="black" fill-opacity="1" filter="url(#filter-12)" xlink:href="#path-11"></use>
                    <use fill="#FFFFFF" fill-rule="evenodd" xlink:href="#path-11"></use>
                </g>
                <g transform="translate(539.000000, 155.000000)">
                    <g id="science_group">
                        <use fill="black" fill-opacity="1" filter="url(#filter-2)" xlink:href="#path-1"></use>
                        <use fill="#FFFFFF" fill-rule="evenodd" xlink:href="#path-1"></use>
                    </g>
                    <text id="Научные-группы" font-family="DINPro-Bold, DINPro" font-size="16" font-weight="bold" line-spacing="18" fill="#3998D1" text-decoration="underline">
                        <tspan x="55.48" y="26.632">Научные группы</tspan>
                    </text>
                </g>
                <text id="Внешние-органы-управ" font-family="DINPro-Medium, DINPro" font-size="14" font-weight="400" line-spacing="25" fill="#040303">
                    <tspan x="25.643" y="70">Внешние органы управления</tspan>
                </text>
                <text id="Источники-финансиров" font-family="DINPro-Regular, DINPro" font-size="18" font-weight="normal" line-spacing="25" fill="#040303">
                    <tspan x="249.06" y="444">ИСТОЧНИКИ ФИНАНСИРОВАНИЯ</tspan>
                </text>
                <text id="Структура-ркц" font-family="DINPro-Regular, DINPro" font-size="18" font-weight="normal" line-spacing="25" fill="#040303">
                    <tspan x="456.883" y="19">СТРУКТУРА РКЦ</tspan>
                </text>
                <text id="Международный-консул-Copy" font-family="DINPro-Bold, DINPro" font-size="16" font-weight="bold" line-spacing="18" fill="#3998D1" text-decoration="underline">
                    <tspan x="53.9" y="221.632">Международный </tspan>
                    <tspan x="28.836" y="239.632">консультативный совет</tspan>
                </text>
                <text id="Попечительский-совет" font-family="DINPro-Bold, DINPro" font-size="16" font-weight="bold" line-spacing="18" fill="#3998D1" text-decoration="underline">
                    <tspan x="32.452" y="141.632">Попечительский совет</tspan>
                </text>
                <text id="Госпрограммы" font-family="DINPro-Medium, DINPro" font-size="16" font-weight="400" line-spacing="18" fill="#040303">
                    <tspan x="33.232" y="336.872">Госпрограммы</tspan>
                </text>
                <text id="Частный-эндаумент" font-family="DINPro-Medium, DINPro" font-size="16" font-weight="400" line-spacing="18" fill="#040303">
                    <tspan x="179.304" y="336.872">Частный эндаумент</tspan>
                </text>
                <text id="Финансирование-банко" font-family="DINPro-Bold, DINPro" font-size="16" font-weight="bold" line-spacing="18" fill="#3998D1" text-decoration="underline">
                    <tspan x="351.28" y="336.632">Финансирование </tspan>
                    <tspan x="371.352" y="354.632">банком ГПБ</tspan>
                </text>
                <text id="Исследовательские-гр" font-family="DINPro-Medium, DINPro" font-size="16" font-weight="400" line-spacing="18" fill="#040303">
                    <tspan x="555.324" y="336.872">Исследовательские гранты</tspan>
                </text>
                <g id="Group-11-Copy" transform="translate(115.000000, 161.000000)" stroke="#040303">
                    <polyline id="Path-3-Copy-7" transform="translate(6.000000, 36.100000) rotate(-270.000000) translate(-6.000000, -36.100000) " points="4.1 30.6 7.9 36.1 4.1 41.6"></polyline>
                    <path d="M-13,19 L25,19" id="Path-2-Copy-2" transform="translate(6.000000, 19.000000) rotate(-270.000000) translate(-6.000000, -19.000000) "></path>
                </g>
                <text id="Проекты-коммерциализ" font-family="DINPro-Bold, DINPro" font-size="16" font-weight="bold" line-spacing="18" fill="#3998D1" text-decoration="underline">
                    <tspan x="891.968" y="171.632">Проекты </tspan>
                    <tspan x="850.936" y="189.632">коммерциализации</tspan>
                </text>
                <text id="Внутренние-органы-уп" font-family="DINPro-Medium, DINPro" font-size="14" font-weight="400" line-spacing="25" fill="#040303">
                    <tspan x="286.603" y="70">Внутренние органы управления</tspan>
                </text>
                <text id="Научный-совет-Copy" font-family="DINPro-Bold, DINPro" font-size="16" font-weight="bold" line-spacing="18" fill="#3998D1" text-decoration="underline">
                    <tspan x="330.212" y="250.632">Научный совет</tspan>
                </text>
                <text id="Научный-директор-Copy" font-family="DINPro-Medium, DINPro" font-size="16" font-weight="400" line-spacing="18" fill="#040303">
                    <tspan x="317.172" y="129.872">Научный директор</tspan>
                </text>
                <g id="Group-14-Copy-5" transform="translate(476.500000, 187.500000) scale(-1, 1) translate(-476.500000, -187.500000) translate(461.000000, 121.000000)" stroke="#040303">
                    <polyline id="Path-3-Copy-3" transform="translate(28.125000, 127.812057) rotate(-360.000000) translate(-28.125000, -127.812057) " points="26.25 122.624113 30 127.812057 26.25 133"></polyline>
                    <polyline id="Path-3-Copy-4" transform="translate(15.937500, 5.187943) rotate(-360.000000) translate(-15.937500, -5.187943) " points="14.0625 0 17.8125 5.18794326 14.0625 10.3758865"></polyline>
                    <polyline id="Path-2" transform="translate(14.765625, 66.028369) rotate(-90.000000) translate(-14.765625, -66.028369) " points="-46.5464317 80.3252438 -46.5464317 51.7314938 76.0776817 51.7314938 76.0776817 68.1377438"></polyline>
                </g>
                <g id="Group-14-Copy-6" transform="translate(289.000000, 121.000000)" stroke="#040303">
                    <polyline id="Path-3-Copy-3" transform="translate(28.125000, 127.812057) rotate(-360.000000) translate(-28.125000, -127.812057) " points="26.25 122.624113 30 127.812057 26.25 133"></polyline>
                    <polyline id="Path-3-Copy-4" transform="translate(15.937500, 5.187943) rotate(-360.000000) translate(-15.937500, -5.187943) " points="14.0625 0 17.8125 5.18794326 14.0625 10.3758865"></polyline>
                    <polyline id="Path-2" transform="translate(14.765625, 66.028369) rotate(-90.000000) translate(-14.765625, -66.028369) " points="-46.5464317 80.3252438 -46.5464317 51.7314938 76.0776817 51.7314938 76.0776817 68.1377438"></polyline>
                </g>
                <polyline id="Path-2" stroke="#040303" transform="translate(93.500000, 426.500000) rotate(-90.000000) translate(-93.500000, -426.500000) " points="80 520 80 333 107 333"></polyline>
                <polyline id="Path-2-Copy" stroke="#040303" transform="translate(686.500000, 426.500000) scale(-1, 1) rotate(-90.000000) translate(-686.500000, -426.500000) " points="673 520 673 333 700 333"></polyline>
                <polyline id="Path-2-Copy-4" stroke="#040303" transform="translate(207.500000, 48.500000) scale(1, -1) rotate(-90.000000) translate(-207.500000, -48.500000) " points="173 256 173 -159 242 -159"></polyline>
                <polyline id="Path-2-Copy-5" stroke="#040303" transform="translate(842.500000, 69.500000) scale(-1, -1) rotate(-90.000000) translate(-842.500000, -69.500000) " points="786 277 786 -138 899 -138"></polyline>
                <text id="Генеральный-директор" font-family="DINPro-Medium, DINPro" font-size="16" font-weight="400" line-spacing="18" fill="#040303">
                    <tspan x="336.284" y="181.872">Генеральный </tspan>
                    <tspan x="352.052" y="199.872">директор</tspan>
                </text>
                <g id="Group-10-Copy-2" transform="translate(384.000000, 216.000000)" stroke="#040303">
                    <polyline id="Path-3" transform="translate(5.500000, 16.200000) rotate(-270.000000) translate(-5.500000, -16.200000) " points="3.7 10.7 7.3 16.2 3.7 21.7"></polyline>
                    <polyline id="Path-3-Copy-2" transform="translate(5.500000, 1.800000) rotate(-90.000000) translate(-5.500000, -1.800000) " points="3.7 -3.7 7.3 1.8 3.7 7.3"></polyline>
                    <path d="M-3.5,9 L14.5,9" id="Path-2" transform="translate(5.500000, 9.000000) rotate(-270.000000) translate(-5.500000, -9.000000) "></path>
                </g>
                <g id="Group-10-Copy-3" transform="translate(384.000000, 144.000000)" stroke="#040303">
                    <polyline id="Path-3" transform="translate(5.500000, 16.200000) rotate(-270.000000) translate(-5.500000, -16.200000) " points="3.7 10.7 7.3 16.2 3.7 21.7"></polyline>
                    <polyline id="Path-3-Copy-2" transform="translate(5.500000, 1.800000) rotate(-90.000000) translate(-5.500000, -1.800000) " points="3.7 -3.7 7.3 1.8 3.7 7.3"></polyline>
                    <path d="M-3.5,9 L14.5,9" id="Path-2" transform="translate(5.500000, 9.000000) rotate(-270.000000) translate(-5.500000, -9.000000) "></path>
                </g>
            </g>
        </g>
    </g>
</svg>