<svg xmlns="http://www.w3.org/2000/svg" xmlns:xlink="http://www.w3.org/1999/xlink" width="1050" height="453" viewBox="0 0 1050 453">
  <defs>
    <polygon id="structure3-b" points="808 155 1048 155 1048 215 808 215"/>
    <filter id="structure3-a" width="105.8%" height="123.3%" x="-2.9%" y="-8.3%" filterUnits="objectBoundingBox">
      <feOffset dy="2" in="SourceAlpha" result="shadowOffsetOuter1"/>
      <feGaussianBlur in="shadowOffsetOuter1" result="shadowBlurOuter1" stdDeviation="2"/>
      <feColorMatrix in="shadowBlurOuter1" values="0 0 0 0 0   0 0 0 0 0   0 0 0 0 0  0 0 0 0.2 0"/>
    </filter>
    <path id="structure3-d" d="M510,212 L510,277 L270,277 L270,97 L510,97 L510,162 L521.170386,162 L530,187 L521.170386,212 L510,212 Z"/>
    <filter id="structure3-c" width="105.4%" height="107.8%" x="-2.7%" y="-2.8%" filterUnits="objectBoundingBox">
      <feOffset dy="2" in="SourceAlpha" result="shadowOffsetOuter1"/>
      <feGaussianBlur in="shadowOffsetOuter1" result="shadowBlurOuter1" stdDeviation="2"/>
      <feColorMatrix in="shadowBlurOuter1" values="0 0 0 0 0   0 0 0 0 0   0 0 0 0 0  0 0 0 0.2 0"/>
    </filter>
    <path id="structure3-f" d="M240,212 L240,277 L5.68434189e-14,277 L5.68434189e-14,97 L240,97 L240,162 L251.170386,162 L260,187 L251.170386,212 L240,212 Z"/>
    <filter id="structure3-e" width="105.4%" height="107.8%" x="-2.7%" y="-2.8%" filterUnits="objectBoundingBox">
      <feOffset dy="2" in="SourceAlpha" result="shadowOffsetOuter1"/>
      <feGaussianBlur in="shadowOffsetOuter1" result="shadowBlurOuter1" stdDeviation="2"/>
      <feColorMatrix in="shadowBlurOuter1" values="0 0 0 0 0   0 0 0 0 0   0 0 0 0 0  0 0 0 0.2 0"/>
    </filter>
    <path id="structure3-h" d="M241,51 L241,60 L1,60 L1,0 L241,0 L241,11 L247.170386,11 L256,31 L247.170386,51 L241,51 Z"/>
    <filter id="structure3-g" width="105.5%" height="123.3%" x="-2.7%" y="-8.3%" filterUnits="objectBoundingBox">
      <feOffset dy="2" in="SourceAlpha" result="shadowOffsetOuter1"/>
      <feGaussianBlur in="shadowOffsetOuter1" result="shadowBlurOuter1" stdDeviation="2"/>
      <feColorMatrix in="shadowBlurOuter1" values="0 0 0 0 0   0 0 0 0 0   0 0 0 0 0  0 0 0 0.2 0"/>
    </filter>
    <path id="structure3-j" d="M635,320 L635,265.215343 L660,253 L685,265.215343 L685,320 L780,320 L780,385 L539,385 L539,320 L635,320 Z"/>
    <filter id="structure3-i" width="105.8%" height="110.6%" x="-2.9%" y="-3.8%" filterUnits="objectBoundingBox">
      <feOffset dy="2" in="SourceAlpha" result="shadowOffsetOuter1"/>
      <feGaussianBlur in="shadowOffsetOuter1" result="shadowBlurOuter1" stdDeviation="2"/>
      <feColorMatrix in="shadowBlurOuter1" values="0 0 0 0 0   0 0 0 0 0   0 0 0 0 0  0 0 0 0.2 0"/>
    </filter>
    <path id="structure3-l" d="M280,320 L510,320 L510,385 L0,385 L0,320 L230,320 L230,311.105529 L255,299 L280,311.105529 L280,320 Z"/>
    <filter id="structure3-k" width="102.7%" height="116.3%" x="-1.4%" y="-5.8%" filterUnits="objectBoundingBox">
      <feOffset dy="2" in="SourceAlpha" result="shadowOffsetOuter1"/>
      <feGaussianBlur in="shadowOffsetOuter1" result="shadowBlurOuter1" stdDeviation="2"/>
      <feColorMatrix in="shadowBlurOuter1" values="0 0 0 0 0   0 0 0 0 0   0 0 0 0 0  0 0 0 0.2 0"/>
    </filter>
  </defs>
  <g fill="none" fill-rule="evenodd">
    <use fill="#000" filter="url(#structure3-a)" xlink:href="#structure3-b"/>
    <use fill="#FFF" xlink:href="#structure3-b"/>
    <use fill="#000" filter="url(#structure3-c)" xlink:href="#structure3-d"/>
    <use fill="#FFF" xlink:href="#structure3-d"/>
    <use fill="#000" filter="url(#structure3-e)" xlink:href="#structure3-f"/>
    <use fill="#FFF" xlink:href="#structure3-f"/>
    <g transform="translate(539 155)">
      <use fill="#000" filter="url(#structure3-g)" xlink:href="#structure3-h"/>
      <use fill="#FFF" xlink:href="#structure3-h"/>
      <text fill="#3998D1" font-family="DINPro-Bold, DINPro" font-size="16" font-weight="bold" text-decoration="underline">
        <tspan x="55.48" y="36.632">Научные группы</tspan>
      </text>
    </g>
    <use fill="#000" filter="url(#structure3-i)" xlink:href="#structure3-j"/>
    <use fill="#FFF" xlink:href="#structure3-j"/>
    <use fill="#000" filter="url(#structure3-k)" xlink:href="#structure3-l"/>
    <use fill="#FFF" xlink:href="#structure3-l"/>
    <text fill="#040303" font-family="DINPro-Medium, DINPro" font-size="14" font-weight="400">
      <tspan x="25.643" y="70">Внешние органы управления</tspan>
    </text>
    <text fill="#040303" font-family="DINPro-Regular, DINPro" font-size="18">
      <tspan x="249.06" y="444">ИСТОЧНИКИ ФИНАНСИРОВАНИЯ</tspan>
    </text>
    <text fill="#040303" font-family="DINPro-Regular, DINPro" font-size="18">
      <tspan x="456.883" y="19">СТРУКТУРА РКЦ</tspan>
    </text>
    <text fill="#3998D1" font-family="DINPro-Bold, DINPro" font-size="16" font-weight="bold" text-decoration="underline">
      <tspan x="53.9" y="221.632">Международный </tspan> <tspan x="28.836" y="239.632">консультативный совет</tspan>
    </text>
    <text fill="#3998D1" font-family="DINPro-Bold, DINPro" font-size="16" font-weight="bold" text-decoration="underline">
      <tspan x="32.452" y="141.632">Попечительский совет</tspan>
    </text>
    <text fill="#040303" font-family="DINPro-Medium, DINPro" font-size="16" font-weight="400">
      <tspan x="33.232" y="336.872">Госпрограммы</tspan>
    </text>
    <text fill="#040303" font-family="DINPro-Medium, DINPro" font-size="16" font-weight="400">
      <tspan x="179.304" y="336.872">Частный эндаумент</tspan>
    </text>
    <text fill="#3998D1" font-family="DINPro-Bold, DINPro" font-size="16" font-weight="bold" text-decoration="underline">
      <tspan x="351.28" y="336.632">Финансирование </tspan> <tspan x="371.352" y="354.632">банком ГПБ</tspan>
    </text>
    <text fill="#040303" font-family="DINPro-Medium, DINPro" font-size="16" font-weight="400">
      <tspan x="555.324" y="336.872">Исследовательские гранты</tspan>
    </text>
    <g stroke="#040303" transform="translate(115 161)">
      <polyline points="4.1 30.6 7.9 36.1 4.1 41.6" transform="rotate(90 6 36.1)"/>
      <path d="M-13,19 L25,19" transform="rotate(90 6 19)"/>
    </g>
    <text fill="#3998D1" font-family="DINPro-Bold, DINPro" font-size="16" font-weight="bold" text-decoration="underline">
      <tspan x="891.968" y="171.632">Проекты </tspan> <tspan x="850.936" y="189.632">коммерциализации</tspan>
    </text>
    <text fill="#040303" font-family="DINPro-Medium, DINPro" font-size="14" font-weight="400">
      <tspan x="286.603" y="70">Внутренние органы управления</tspan>
    </text>
    <text fill="#3998D1" font-family="DINPro-Bold, DINPro" font-size="16" font-weight="bold" text-decoration="underline">
      <tspan x="330.212" y="250.632">Научный совет</tspan>
    </text>
    <text fill="#040303" font-family="DINPro-Medium, DINPro" font-size="16" font-weight="400">
      <tspan x="317.172" y="129.872">Научный директор</tspan>
    </text>
    <g stroke="#040303" transform="matrix(-1 0 0 1 492 121)">
      <polyline points="26.25 122.624 30 127.812 26.25 133"/>
      <polyline points="14.063 0 17.813 5.188 14.063 10.376"/>
      <polyline points="-46.546 80.325 -46.546 51.731 76.078 51.731 76.078 68.138" transform="rotate(-90 14.766 66.028)"/>
    </g>
    <g stroke="#040303" transform="translate(289 121)">
      <polyline points="26.25 122.624 30 127.812 26.25 133"/>
      <polyline points="14.063 0 17.813 5.188 14.063 10.376"/>
      <polyline points="-46.546 80.325 -46.546 51.731 76.078 51.731 76.078 68.138" transform="rotate(-90 14.766 66.028)"/>
    </g>
    <polyline stroke="#040303" points="80 520 80 333 107 333" transform="rotate(-90 93.5 426.5)"/>
    <polyline stroke="#040303" points="673 520 673 333 700 333" transform="matrix(0 -1 -1 0 1113 1113)"/>
    <polyline stroke="#040303" points="173 256 173 -159 242 -159" transform="matrix(0 1 1 0 159 -159)"/>
    <polyline stroke="#040303" points="786 277 786 -138 899 -138" transform="rotate(90 842.5 69.5)"/>
    <text fill="#040303" font-family="DINPro-Medium, DINPro" font-size="16" font-weight="400">
      <tspan x="336.284" y="181.872">Генеральный </tspan> <tspan x="352.052" y="199.872">директор</tspan>
    </text>
    <g stroke="#040303" transform="translate(384 216)">
      <polyline points="3.7 10.7 7.3 16.2 3.7 21.7" transform="rotate(90 5.5 16.2)"/>
      <polyline points="3.7 -3.7 7.3 1.8 3.7 7.3" transform="rotate(-90 5.5 1.8)"/>
      <path d="M-3.5,9 L14.5,9" transform="rotate(90 5.5 9)"/>
    </g>
    <g stroke="#040303" transform="translate(384 144)">
      <polyline points="3.7 10.7 7.3 16.2 3.7 21.7" transform="rotate(90 5.5 16.2)"/>
      <polyline points="3.7 -3.7 7.3 1.8 3.7 7.3" transform="rotate(-90 5.5 1.8)"/>
      <path d="M-3.5,9 L14.5,9" transform="rotate(90 5.5 9)"/>
    </g>
  </g>
</svg>
