<?xml version="1.0" encoding="UTF-8"?>
<svg width="584px" height="727px" viewBox="0 0 584 727" version="1.1" xmlns="http://www.w3.org/2000/svg" xmlns:xlink="http://www.w3.org/1999/xlink">
    <!-- Generator: Sketch 52.6 (67491) - http://www.bohemiancoding.com/sketch -->
    <title>Group 8</title>
    <desc>Created with Sketch.</desc>
    <defs>
        <path d="M95,222 L0,222 L0,42 L240,42 L240,222 L145,222 L145,231.170386 L120,240 L95,231.170386 L95,222 Z" id="path-1"></path>
        <filter x="-2.9%" y="-2.5%" width="105.8%" height="107.1%" filterUnits="objectBoundingBox" id="filter-2">
            <feOffset dx="0" dy="2" in="SourceAlpha" result="shadowOffsetOuter1"></feOffset>
            <feGaussianBlur stdDeviation="2" in="shadowOffsetOuter1" result="shadowBlurOuter1"></feGaussianBlur>
            <feColorMatrix values="0 0 0 0 0   0 0 0 0 0   0 0 0 0 0  0 0 0 0.2 0" type="matrix" in="shadowBlurOuter1"></feColorMatrix>
        </filter>
        <path d="M95,222 L0,222 L0,42 L240,42 L240,222 L145,222 L145,231.170386 L120,240 L95,231.170386 L95,222 Z" id="path-3"></path>
        <filter x="-2.9%" y="-2.5%" width="105.8%" height="107.1%" filterUnits="objectBoundingBox" id="filter-4">
            <feOffset dx="0" dy="2" in="SourceAlpha" result="shadowOffsetOuter1"></feOffset>
            <feGaussianBlur stdDeviation="2" in="shadowOffsetOuter1" result="shadowBlurOuter1"></feGaussianBlur>
            <feColorMatrix values="0 0 0 0 0   0 0 0 0 0   0 0 0 0 0  0 0 0 0.2 0" type="matrix" in="shadowBlurOuter1"></feColorMatrix>
        </filter>
        <path d="M100,60 L1,60 L1,7.10542736e-15 L241,7.10542736e-15 L241,60 L140,60 L140,65.1703859 L120,74 L100,65.1703859 L100,60 Z" id="path-5"></path>
        <filter x="-2.9%" y="-6.8%" width="105.8%" height="118.9%" filterUnits="objectBoundingBox" id="filter-6">
            <feOffset dx="0" dy="2" in="SourceAlpha" result="shadowOffsetOuter1"></feOffset>
            <feGaussianBlur stdDeviation="2" in="shadowOffsetOuter1" result="shadowBlurOuter1"></feGaussianBlur>
            <feColorMatrix values="0 0 0 0 0   0 0 0 0 0   0 0 0 0 0  0 0 0 0.2 0" type="matrix" in="shadowBlurOuter1"></feColorMatrix>
        </filter>
        <polygon id="path-7" points="0 0 240 0 240 60 0 60"></polygon>
        <filter x="-2.9%" y="-8.3%" width="105.8%" height="123.3%" filterUnits="objectBoundingBox" id="filter-8">
            <feOffset dx="0" dy="2" in="SourceAlpha" result="shadowOffsetOuter1"></feOffset>
            <feGaussianBlur stdDeviation="2" in="shadowOffsetOuter1" result="shadowBlurOuter1"></feGaussianBlur>
            <feColorMatrix values="0 0 0 0 0   0 0 0 0 0   0 0 0 0 0  0 0 0 0.2 0" type="matrix" in="shadowBlurOuter1"></feColorMatrix>
        </filter>
        <path d="M130.5,30.5 L220.5,30.5 L220.5,220.5 L-9.5,220.5 L-9.5,30.5 L80.5,30.5 L80.5,21.6055289 L105.5,9.5 L130.5,21.6055289 L130.5,30.5 Z" id="path-9"></path>
        <filter x="-3.0%" y="-2.4%" width="106.1%" height="106.6%" filterUnits="objectBoundingBox" id="filter-10">
            <feOffset dx="0" dy="2" in="SourceAlpha" result="shadowOffsetOuter1"></feOffset>
            <feGaussianBlur stdDeviation="2" in="shadowOffsetOuter1" result="shadowBlurOuter1"></feGaussianBlur>
            <feColorMatrix values="0 0 0 0 0   0 0 0 0 0   0 0 0 0 0  0 0 0 0.2 0" type="matrix" in="shadowBlurOuter1"></feColorMatrix>
        </filter>
        <path d="M130.5,-44.5 L145.5,-44.5 L145.5,145.5 L65.5,145.5 L65.5,-44.5 L80.5,-44.5 L80.5,-53.3944711 L105.5,-65.5 L130.5,-53.3944711 L130.5,-44.5 Z" id="path-11"></path>
        <filter x="-8.8%" y="-2.4%" width="117.5%" height="106.6%" filterUnits="objectBoundingBox" id="filter-12">
            <feOffset dx="0" dy="2" in="SourceAlpha" result="shadowOffsetOuter1"></feOffset>
            <feGaussianBlur stdDeviation="2" in="shadowOffsetOuter1" result="shadowBlurOuter1"></feGaussianBlur>
            <feColorMatrix values="0 0 0 0 0   0 0 0 0 0   0 0 0 0 0  0 0 0 0.2 0" type="matrix" in="shadowBlurOuter1"></feColorMatrix>
        </filter>
    </defs>
    <g id="Page-1" stroke="none" stroke-width="1" fill="none" fill-rule="evenodd">
        <g id="People_Tablets-Structure" transform="translate(-93.000000, -212.000000)">
            <g id="Group-8" transform="translate(86.000000, 213.000000)">
                <g id="Group" transform="translate(60.000000, 7.000000)">
                    <g id="Combined-Shape-Copy-3">
                        <use fill="black" fill-opacity="1" filter="url(#filter-2)" xlink:href="#path-1"></use>
                        <use fill="#FFFFFF" fill-rule="evenodd" xlink:href="#path-1"></use>
                    </g>
                    <text id="Внешние-органы-управ" font-family="DINPro-Medium, DINPro" font-size="14" font-weight="400" line-spacing="25" fill="#040303">
                        <tspan x="25.643" y="15">Внешние органы управления</tspan>
                    </text>
                    <a xlink:href="/people#international-board"> 
                        <text id="Международный-консул-Copy" font-family="DINPro-Bold, DINPro" font-size="16" font-weight="bold" line-spacing="18" fill="#3998D1" text-decoration="underline">
                            <tspan x="53.9" y="166.632">Международный </tspan>
                            <tspan x="28.836" y="184.632">консультативный совет</tspan>
                        </text>
                    </a>
                    <a xlink:href="/people#board-of-trustees">
                        <text id="Попечительский-совет-Copy" font-family="DINPro-Bold, DINPro" font-size="16" font-weight="bold" line-spacing="18" fill="#3998D1" text-decoration="underline">
                            <tspan x="32.452" y="86.632">Попечительский совет</tspan>
                        </text>
                    </a>
                    <g id="Group-11-Copy" transform="translate(115.000000, 106.000000)" stroke="#040303">
                        <polyline id="Path-3-Copy-7" transform="translate(6.000000, 36.100000) rotate(-270.000000) translate(-6.000000, -36.100000) " points="4.1 30.6 7.9 36.1 4.1 41.6"></polyline>
                        <path d="M-13,19 L25,19" id="Path-2-Copy-2" transform="translate(6.000000, 19.000000) rotate(-270.000000) translate(-6.000000, -19.000000) "></path>
                    </g>
                </g>
                <g id="Group-2" transform="translate(60.000000, 277.000000)">
                    <g id="Combined-Shape-Copy-4">
                        <use fill="black" fill-opacity="1" filter="url(#filter-4)" xlink:href="#path-3"></use>
                        <use fill="#FFFFFF" fill-rule="evenodd" xlink:href="#path-3"></use>
                    </g>
                    <text id="Внутренние-органы-уп" font-family="DINPro-Medium, DINPro" font-size="14" font-weight="400" line-spacing="25" fill="#040303">
                        <tspan x="17.603" y="15">Внутренние органы управления</tspan>
                    </text>
                    <a xlink:href="/people#scientific-committee"> 
                        <text id="Научный-совет-Copy" font-family="DINPro-Bold, DINPro" font-size="16" font-weight="bold" line-spacing="18" fill="#3998D1" text-decoration="underline">
                            <tspan x="61.212" y="195.632">Научный совет</tspan>
                        </text>
                    </a>
                    <text id="Научный-директор-Copy" font-family="DINPro-Medium, DINPro" font-size="16" font-weight="400" line-spacing="18" fill="#040303">
                        <tspan x="48.172" y="74.872">Научный директор</tspan>
                    </text>
                    <g id="Group-14-Copy-5" transform="translate(207.500000, 132.500000) scale(-1, 1) translate(-207.500000, -132.500000) translate(192.000000, 66.000000)" stroke="#040303">
                        <polyline id="Path-3-Copy-3" transform="translate(28.125000, 127.812057) rotate(-360.000000) translate(-28.125000, -127.812057) " points="26.25 122.624113 30 127.812057 26.25 133"></polyline>
                        <polyline id="Path-3-Copy-4" transform="translate(15.937500, 5.187943) rotate(-360.000000) translate(-15.937500, -5.187943) " points="14.0625 0 17.8125 5.18794326 14.0625 10.3758865"></polyline>
                        <polyline id="Path-2" transform="translate(14.765625, 66.028369) rotate(-90.000000) translate(-14.765625, -66.028369) " points="-46.5464317 80.3252438 -46.5464317 51.7314938 76.0776817 51.7314938 76.0776817 68.1377438"></polyline>
                    </g>
                    <g id="Group-14-Copy-6" transform="translate(20.000000, 66.000000)" stroke="#040303">
                        <polyline id="Path-3-Copy-3" transform="translate(28.125000, 127.812057) rotate(-360.000000) translate(-28.125000, -127.812057) " points="26.25 122.624113 30 127.812057 26.25 133"></polyline>
                        <polyline id="Path-3-Copy-4" transform="translate(15.937500, 5.187943) rotate(-360.000000) translate(-15.937500, -5.187943) " points="14.0625 0 17.8125 5.18794326 14.0625 10.3758865"></polyline>
                        <polyline id="Path-2" transform="translate(14.765625, 66.028369) rotate(-90.000000) translate(-14.765625, -66.028369) " points="-46.5464317 80.3252438 -46.5464317 51.7314938 76.0776817 51.7314938 76.0776817 68.1377438"></polyline>
                    </g>
                    <text id="Генеральный-директор" font-family="DINPro-Medium, DINPro" font-size="16" font-weight="400" line-spacing="18" fill="#040303">
                        <tspan x="67.284" y="126.872">Генеральный </tspan>
                        <tspan x="83.052" y="144.872">директор</tspan>
                    </text>
                    <g id="Group-10-Copy-2" transform="translate(115.000000, 161.000000)" stroke="#040303">
                        <polyline id="Path-3" transform="translate(5.500000, 16.200000) rotate(-270.000000) translate(-5.500000, -16.200000) " points="3.7 10.7 7.3 16.2 3.7 21.7"></polyline>
                        <polyline id="Path-3-Copy-2" transform="translate(5.500000, 1.800000) rotate(-90.000000) translate(-5.500000, -1.800000) " points="3.7 -3.7 7.3 1.8 3.7 7.3"></polyline>
                        <path d="M-3.5,9 L14.5,9" id="Path-2" transform="translate(5.500000, 9.000000) rotate(-270.000000) translate(-5.500000, -9.000000) "></path>
                    </g>
                    <g id="Group-10-Copy-3" transform="translate(115.000000, 89.000000)" stroke="#040303">
                        <polyline id="Path-3" transform="translate(5.500000, 16.200000) rotate(-270.000000) translate(-5.500000, -16.200000) " points="3.7 10.7 7.3 16.2 3.7 21.7"></polyline>
                        <polyline id="Path-3-Copy-2" transform="translate(5.500000, 1.800000) rotate(-90.000000) translate(-5.500000, -1.800000) " points="3.7 -3.7 7.3 1.8 3.7 7.3"></polyline>
                        <path d="M-3.5,9 L14.5,9" id="Path-2" transform="translate(5.500000, 9.000000) rotate(-270.000000) translate(-5.500000, -9.000000) "></path>
                    </g>
                </g>
                <text id="Структура-ркц" transform="translate(25.000000, 357.500000) rotate(-90.000000) translate(-25.000000, -357.500000) " font-family="DINPro-Regular, DINPro" font-size="18" font-weight="normal" line-spacing="25" fill="#040303">
                    <tspan x="-42.617" y="351.5">СТРУКТУРА РКЦ</tspan>
                </text>
                <g id="Group-3" transform="translate(60.000000, 547.000000)">
                    <g id="Combined-Shape-Copy-4">
                        <use fill="black" fill-opacity="1" filter="url(#filter-6)" xlink:href="#path-5"></use>
                        <use fill="#FFFFFF" fill-rule="evenodd" xlink:href="#path-5"></use>
                    </g>
                    <a xlink:href="/research#groups"> 
                        <text id="Научные-группы" font-family="DINPro-Bold, DINPro" font-size="16" font-weight="bold" line-spacing="18" fill="#3998D1" text-decoration="underline">
                            <tspan x="55.48" y="32.632">Научные группы</tspan>
                        </text>
                    </a>
                </g>
                <g id="Group-4" transform="translate(60.000000, 651.000000)">
                    <g id="Combined-Shape-Copy-8">
                        <use fill="black" fill-opacity="1" filter="url(#filter-8)" xlink:href="#path-7"></use>
                        <use fill="#FFFFFF" fill-rule="evenodd" xlink:href="#path-7"></use>
                    </g>
                    <a xlink:href="/#products">
                        <text id="Проекты-коммерциализ" font-family="DINPro-Bold, DINPro" font-size="16" font-weight="bold" line-spacing="18" fill="#3998D1" text-decoration="underline">
                            <tspan x="83.968" y="25.632">Проекты </tspan>
                            <tspan x="42.936" y="43.632">коммерциализации</tspan>
                        </text>
                    </a>
                </g>
                <g id="Group-7" transform="translate(329.000000, 167.000000)">
                    <g id="Group-5">
                        <g id="Combined-Shape" transform="translate(105.500000, 115.000000) rotate(-90.000000) translate(-105.500000, -115.000000) ">
                            <use fill="black" fill-opacity="1" filter="url(#filter-10)" xlink:href="#path-9"></use>
                            <use fill="#FFFFFF" fill-rule="evenodd" xlink:href="#path-9"></use>
                        </g>
                        <text id="Госпрограммы" font-family="DINPro-Medium, DINPro" font-size="16" font-weight="400" line-spacing="18" fill="#040303">
                            <tspan x="58.232" y="36.872">Госпрограммы</tspan>
                        </text>
                        <text id="Частный-эндаумент" font-family="DINPro-Medium, DINPro" font-size="16" font-weight="400" line-spacing="18" fill="#040303">
                            <tspan x="40.304" y="101.872">Частный эндаумент</tspan>
                        </text>
                        <a xlink:href=" https://www.gazprombank.ru/" target="_blank" rel="noopener noreferrer">
                            <text id="Финансирование-банко" font-family="DINPro-Bold, DINPro" font-size="16" font-weight="bold" line-spacing="18" fill="#3998D1" text-decoration="underline">
                                <tspan x="48.28" y="166.632">Финансирование </tspan>
                                <tspan x="68.352" y="184.632">банком ГПБ</tspan>
                            </text>
                        </a>
                    </g>
                    <g id="Group-6" transform="translate(0.000000, 374.000000)">
                        <g id="Combined-Shape-Copy" transform="translate(105.500000, 40.000000) rotate(-90.000000) translate(-105.500000, -40.000000) ">
                            <use fill="black" fill-opacity="1" filter="url(#filter-12)" xlink:href="#path-11"></use>
                            <use fill="#FFFFFF" fill-rule="evenodd" xlink:href="#path-11"></use>
                        </g>
                        <text id="Исследовательские-гр" font-family="DINPro-Medium, DINPro" font-size="16" font-weight="400" line-spacing="18" fill="#040303">
                            <tspan x="39.808" y="36.872">Исследовательские </tspan>
                            <tspan x="86.8" y="54.872">гранты</tspan>
                        </text>
                    </g>
                </g>
                <text id="Источники-финансиров" transform="translate(572.000000, 394.000000) rotate(-270.000000) translate(-572.000000, -394.000000) " font-family="DINPro-Regular, DINPro" font-size="18" font-weight="normal" line-spacing="25" fill="#040303">
                    <tspan x="431.06" y="388">ИСТОЧНИКИ ФИНАНСИРОВАНИЯ</tspan>
                </text>
                <polyline id="Path-2" stroke="#040303" transform="translate(569.500000, 591.500000) rotate(-180.000000) translate(-569.500000, -591.500000) " points="556 635 556 548 583 548"></polyline>
                <polyline id="Path-2-Copy-3" stroke="#040303" transform="translate(26.500000, 586.500000) scale(-1, 1) rotate(-180.000000) translate(-26.500000, -586.500000) " points="13 725 13 448 40 448"></polyline>
                <polyline id="Path-2-Copy" stroke="#040303" transform="translate(569.500000, 195.500000) scale(1, -1) rotate(-180.000000) translate(-569.500000, -195.500000) " points="556 239 556 152 583 152"></polyline>
                <polyline id="Path-2-Copy-4" stroke="#040303" transform="translate(26.500000, 133.500000) scale(-1, -1) rotate(-180.000000) translate(-26.500000, -133.500000) " points="13 267 13 3.12638804e-13 40 3.12638804e-13"></polyline>
            </g>
        </g>
    </g>
</svg>