<?xml version="1.0" encoding="UTF-8"?>
<svg width="607px" height="750px" viewBox="0 0 607 750" version="1.1" xmlns="http://www.w3.org/2000/svg" xmlns:xlink="http://www.w3.org/1999/xlink">
    <!-- Generator: Sketch 52.6 (67491) - http://www.bohemiancoding.com/sketch -->
    <title>People_Tablets Structure Copy</title>
    <desc>Created with Sketch.</desc>
    <defs>
        <path d="M150,229 L55,229 L55,49 L295,49 L295,229 L200,229 L200,238.170386 L175,247 L150,238.170386 L150,229 Z" id="path-1"></path>
        <filter x="-2.9%" y="-2.5%" width="105.8%" height="107.1%" filterUnits="objectBoundingBox" id="filter-2">
            <feOffset dx="0" dy="2" in="SourceAlpha" result="shadowOffsetOuter1"></feOffset>
            <feGaussianBlur stdDeviation="2" in="shadowOffsetOuter1" result="shadowBlurOuter1"></feGaussianBlur>
            <feColorMatrix values="0 0 0 0 0   0 0 0 0 0   0 0 0 0 0  0 0 0 0.2 0" type="matrix" in="shadowBlurOuter1"></feColorMatrix>
        </filter>
        <path d="M150,499 L55,499 L55,319 L295,319 L295,499 L200,499 L200,508.170386 L175,517 L150,508.170386 L150,499 Z" id="path-3"></path>
        <filter x="-2.9%" y="-2.5%" width="105.8%" height="107.1%" filterUnits="objectBoundingBox" id="filter-4">
            <feOffset dx="0" dy="2" in="SourceAlpha" result="shadowOffsetOuter1"></feOffset>
            <feGaussianBlur stdDeviation="2" in="shadowOffsetOuter1" result="shadowBlurOuter1"></feGaussianBlur>
            <feColorMatrix values="0 0 0 0 0   0 0 0 0 0   0 0 0 0 0  0 0 0 0.2 0" type="matrix" in="shadowBlurOuter1"></feColorMatrix>
        </filter>
        <path d="M155,607 L56,607 L56,547 L296,547 L296,607 L195,607 L195,612.170386 L175,621 L155,612.170386 L155,607 Z" id="path-5"></path>
        <filter x="-2.9%" y="-6.8%" width="105.8%" height="118.9%" filterUnits="objectBoundingBox" id="filter-6">
            <feOffset dx="0" dy="2" in="SourceAlpha" result="shadowOffsetOuter1"></feOffset>
            <feGaussianBlur stdDeviation="2" in="shadowOffsetOuter1" result="shadowBlurOuter1"></feGaussianBlur>
            <feColorMatrix values="0 0 0 0 0   0 0 0 0 0   0 0 0 0 0  0 0 0 0.2 0" type="matrix" in="shadowBlurOuter1"></feColorMatrix>
        </filter>
        <polygon id="path-7" points="55 651 295 651 295 711 55 711"></polygon>
        <filter x="-2.9%" y="-8.3%" width="105.8%" height="123.3%" filterUnits="objectBoundingBox" id="filter-8">
            <feOffset dx="0" dy="2" in="SourceAlpha" result="shadowOffsetOuter1"></feOffset>
            <feGaussianBlur stdDeviation="2" in="shadowOffsetOuter1" result="shadowBlurOuter1"></feGaussianBlur>
            <feColorMatrix values="0 0 0 0 0   0 0 0 0 0   0 0 0 0 0  0 0 0 0.2 0" type="matrix" in="shadowBlurOuter1"></feColorMatrix>
        </filter>
        <path d="M454.5,197.5 L544.5,197.5 L544.5,387.5 L314.5,387.5 L314.5,197.5 L404.5,197.5 L404.5,188.605529 L429.5,176.5 L454.5,188.605529 L454.5,197.5 Z" id="path-9"></path>
        <filter x="-3.0%" y="-2.4%" width="106.1%" height="106.6%" filterUnits="objectBoundingBox" id="filter-10">
            <feOffset dx="0" dy="2" in="SourceAlpha" result="shadowOffsetOuter1"></feOffset>
            <feGaussianBlur stdDeviation="2" in="shadowOffsetOuter1" result="shadowBlurOuter1"></feGaussianBlur>
            <feColorMatrix values="0 0 0 0 0   0 0 0 0 0   0 0 0 0 0  0 0 0 0.2 0" type="matrix" in="shadowBlurOuter1"></feColorMatrix>
        </filter>
        <path d="M454.5,496.5 L469.5,496.5 L469.5,686.5 L389.5,686.5 L389.5,496.5 L404.5,496.5 L404.5,487.605529 L429.5,475.5 L454.5,487.605529 L454.5,496.5 Z" id="path-11"></path>
        <filter x="-8.8%" y="-2.4%" width="117.5%" height="106.6%" filterUnits="objectBoundingBox" id="filter-12">
            <feOffset dx="0" dy="2" in="SourceAlpha" result="shadowOffsetOuter1"></feOffset>
            <feGaussianBlur stdDeviation="2" in="shadowOffsetOuter1" result="shadowBlurOuter1"></feGaussianBlur>
            <feColorMatrix values="0 0 0 0 0   0 0 0 0 0   0 0 0 0 0  0 0 0 0.2 0" type="matrix" in="shadowBlurOuter1"></feColorMatrix>
        </filter>
    </defs>
    <g id="People_Tablets-Structure-Copy" stroke="none" stroke-width="1" fill="none" fill-rule="evenodd">
        <rect fill="#F7F9FB" x="0" y="0" width="607" height="750"></rect>
        <g id="Group" transform="translate(12.000000, 13.000000)">
            <g id="Combined-Shape-Copy-3">
                <use fill="black" fill-opacity="1" filter="url(#filter-2)" xlink:href="#path-1"></use>
                <use fill="#FFFFFF" fill-rule="evenodd" xlink:href="#path-1"></use>
            </g>
            <text id="External-governing-b" font-family="DINPro-Medium, DINPro" font-size="14" font-weight="400" line-spacing="25" fill="#040303">
                <tspan x="92.792" y="27">External governing bodies</tspan>
            </text>
            <a xlink:href="/people#international-board" target="_blank" rel="noopener noreferrer"> 
                <text id="International-adviso" font-family="DINPro-Bold, DINPro" font-size="16" font-weight="bold" line-spacing="18" fill="#3998D1" text-decoration="underline">
                    <tspan x="94" y="174">International advisory </tspan>
                    <tspan x="153.016" y="192">board</tspan>
                </text>
            </a>
            <a xlink:href="/people#board-of-trustees" target="_blank" rel="noopener noreferrer">
                <text id="Board-of-trustees" font-family="DINPro-Bold, DINPro" font-size="16" font-weight="bold" line-spacing="18" fill="#3998D1" text-decoration="underline">
                    <tspan x="111" y="94">Board of trustees</tspan>
                </text>
            </a>
            <g id="Group-11-Copy" transform="translate(170.000000, 113.000000)" stroke="#040303">
                <polyline id="Path-3-Copy-7" transform="translate(6.000000, 36.100000) rotate(-270.000000) translate(-6.000000, -36.100000) " points="4.1 30.6 7.9 36.1 4.1 41.6"></polyline>
                <path d="M-13,19 L25,19" id="Path-2-Copy-2" transform="translate(6.000000, 19.000000) rotate(-270.000000) translate(-6.000000, -19.000000) "></path>
            </g>
            <g id="Combined-Shape-Copy-4">
                <use fill="black" fill-opacity="1" filter="url(#filter-4)" xlink:href="#path-3"></use>
                <use fill="#FFFFFF" fill-rule="evenodd" xlink:href="#path-3"></use>
            </g>
            <text id="Internal-governing-b" font-family="DINPro-Medium, DINPro" font-size="14" font-weight="400" line-spacing="25" fill="#040303">
                <tspan x="96" y="297">Internal governing bodies</tspan>
            </text>
            <a xlink:href="/people#scientific-committee" target="_blank" rel="noopener noreferrer"> 
                <text id="Scientific-committee" font-family="DINPro-Bold, DINPro" font-size="16" font-weight="bold" line-spacing="18" fill="#3998D1" text-decoration="underline">
                    <tspan x="102" y="476">Scientific committee</tspan>
                </text>
            </a>
            <text id="Scientific-director" font-family="DINPro-Medium, DINPro" font-size="16" font-weight="400" line-spacing="18" fill="#040303">
                <tspan x="114" y="354">Scientific director</tspan>
            </text>
            <g id="Group-14-Copy-5" transform="translate(269.000000, 409.500000) scale(-1, 1) translate(-269.000000, -409.500000) translate(260.000000, 343.000000)" stroke="#040303">
                <polyline id="Path-3-Copy-3" transform="translate(15.125000, 127.812057) rotate(-360.000000) translate(-15.125000, -127.812057) " points="13.25 122.624113 17 127.812057 13.25 133"></polyline>
                <polyline id="Path-3-Copy-4" transform="translate(15.937500, 5.187943) rotate(-360.000000) translate(-15.937500, -5.187943) " points="14.0625 0 17.8125 5.18794326 14.0625 10.3758865"></polyline>
                <polyline id="Path-2" transform="translate(8.671875, 66.028369) rotate(-90.000000) translate(-8.671875, -66.028369) " points="-52.6401817 73.4189938 -52.6401817 57.8252438 69.9839317 57.8252438 69.9839317 74.2314938"></polyline>
            </g>
            <g id="Group-14-Copy-6" transform="translate(75.000000, 343.000000)" stroke="#040303">
                <polyline id="Path-3-Copy-3" transform="translate(15.125000, 127.812057) rotate(-360.000000) translate(-15.125000, -127.812057) " points="13.25 122.624113 17 127.812057 13.25 133"></polyline>
                <polyline id="Path-3-Copy-4" transform="translate(15.937500, 5.187943) rotate(-360.000000) translate(-15.937500, -5.187943) " points="14.0625 0 17.8125 5.18794326 14.0625 10.3758865"></polyline>
                <polyline id="Path-2" transform="translate(8.671875, 66.028369) rotate(-90.000000) translate(-8.671875, -66.028369) " points="-52.6401817 73.4189938 -52.6401817 57.8252438 69.9839317 57.8252438 69.9839317 74.2314938"></polyline>
            </g>
            <text id="CEO" font-family="DINPro-Medium, DINPro" font-size="16" font-weight="400" line-spacing="18" fill="#040303">
                <tspan x="161" y="420">CEO</tspan>
            </text>
            <g id="Group-10-Copy-2" transform="translate(170.000000, 438.000000)" stroke="#040303">
                <polyline id="Path-3" transform="translate(5.500000, 16.200000) rotate(-270.000000) translate(-5.500000, -16.200000) " points="3.7 10.7 7.3 16.2 3.7 21.7"></polyline>
                <polyline id="Path-3-Copy-2" transform="translate(5.500000, 1.800000) rotate(-90.000000) translate(-5.500000, -1.800000) " points="3.7 -3.7 7.3 1.8 3.7 7.3"></polyline>
                <path d="M-3.5,9 L14.5,9" id="Path-2" transform="translate(5.500000, 9.000000) rotate(-270.000000) translate(-5.500000, -9.000000) "></path>
            </g>
            <g id="Group-10-Copy-3" transform="translate(170.000000, 366.000000)" stroke="#040303">
                <polyline id="Path-3" transform="translate(5.500000, 16.200000) rotate(-270.000000) translate(-5.500000, -16.200000) " points="3.7 10.7 7.3 16.2 3.7 21.7"></polyline>
                <polyline id="Path-3-Copy-2" transform="translate(5.500000, 1.800000) rotate(-90.000000) translate(-5.500000, -1.800000) " points="3.7 -3.7 7.3 1.8 3.7 7.3"></polyline>
                <path d="M-3.5,9 L14.5,9" id="Path-2" transform="translate(5.500000, 9.000000) rotate(-270.000000) translate(-5.500000, -9.000000) "></path>
            </g>
            <text id="STRUCTURE-OF-THE-RQC" transform="translate(8.000000, 359.500000) rotate(-90.000000) translate(-8.000000, -359.500000) " font-family="DINPro-Regular, DINPro" font-size="18" font-weight="normal" line-spacing="25" fill="#040303">
                <tspan x="-94.258" y="370.5">STRUCTURE OF THE RQC</tspan>
            </text>
            <g id="Combined-Shape-Copy-4">
                <use fill="black" fill-opacity="1" filter="url(#filter-6)" xlink:href="#path-5"></use>
                <use fill="#FFFFFF" fill-rule="evenodd" xlink:href="#path-5"></use>
            </g>
            <a xlink:href="/research#groups" target="_blank" rel="noopener noreferrer"> 
                <text id="Scientific-groups" font-family="DINPro-Bold, DINPro" font-size="16" font-weight="bold" line-spacing="18" fill="#3998D1" text-decoration="underline">
                    <tspan x="115" y="584">Scientific groups</tspan>
                </text>
            </a>
            <g id="Combined-Shape-Copy-8">
                <use fill="black" fill-opacity="1" filter="url(#filter-8)" xlink:href="#path-7"></use>
                <use fill="#FFFFFF" fill-rule="evenodd" xlink:href="#path-7"></use>
            </g>
            <a xlink:href="/#products" target="_blank" rel="noopener noreferrer">
                <text id="Commercialization-pr" font-family="DINPro-Bold, DINPro" font-size="16" font-weight="bold" line-spacing="18" fill="#3998D1" text-decoration="underline">
                    <tspan x="107" y="681">Commercialization </tspan>
                    <tspan x="145.784" y="699">projects</tspan>
                </text>
            </a>
            <g id="Combined-Shape" transform="translate(429.500000, 282.000000) rotate(-90.000000) translate(-429.500000, -282.000000) ">
                <use fill="black" fill-opacity="1" filter="url(#filter-10)" xlink:href="#path-9"></use>
                <use fill="#FFFFFF" fill-rule="evenodd" xlink:href="#path-9"></use>
            </g>
            <text id="State-program" font-family="DINPro-Medium, DINPro" font-size="16" font-weight="400" line-spacing="18" fill="#040303">
                <tspan x="386" y="228">State program</tspan>
            </text>
            <text id="Private-endowment" font-family="DINPro-Medium, DINPro" font-size="16" font-weight="400" line-spacing="18" fill="#040303">
                <tspan x="368" y="294">Private endowment</tspan>
            </text>
            <a xlink:href=" https://www.gazprombank.ru/" target="_blank" rel="noopener noreferrer">
                <text id="Financing-by-GPB" font-family="DINPro-Bold, DINPro" font-size="16" font-weight="bold" line-spacing="18" fill="#3998D1" text-decoration="underline">
                    <tspan x="375" y="358">Financing by GPB</tspan>
                </text>
            </a>
            <g id="Combined-Shape-Copy" transform="translate(429.500000, 581.000000) rotate(-90.000000) translate(-429.500000, -581.000000) ">
                <use fill="black" fill-opacity="1" filter="url(#filter-12)" xlink:href="#path-11"></use>
                <use fill="#FFFFFF" fill-rule="evenodd" xlink:href="#path-11"></use>
            </g>
            <text id="Research-grants" font-family="DINPro-Medium, DINPro" font-size="16" font-weight="400" line-spacing="18" fill="#040303">
                <tspan x="382" y="585">Research grants</tspan>
            </text>
            <text id="FUNDING-SOURCES" transform="translate(578.000000, 394.000000) rotate(-270.000000) translate(-578.000000, -394.000000) " font-family="DINPro-Regular, DINPro" font-size="18" font-weight="normal" line-spacing="25" fill="#040303">
                <tspan x="497.153" y="405">FUNDING SOURCES</tspan>
            </text>
            <polyline id="Path-2" stroke="#040303" transform="translate(564.500000, 561.500000) rotate(-180.000000) translate(-564.500000, -561.500000) " points="551 635 551 488 578 488"></polyline>
            <polyline id="Path-2-Copy-3" stroke="#040303" transform="translate(21.500000, 601.500000) scale(-1, 1) rotate(-180.000000) translate(-21.500000, -601.500000) " points="8 725 8 478 35 478"></polyline>
            <polyline id="Path-2-Copy" stroke="#040303" transform="translate(564.500000, 225.500000) scale(1, -1) rotate(-180.000000) translate(-564.500000, -225.500000) " points="551 299 551 152 578 152"></polyline>
            <polyline id="Path-2-Copy-4" stroke="#040303" transform="translate(21.500000, 118.500000) scale(-1, -1) rotate(-180.000000) translate(-21.500000, -118.500000) " points="8 237 8 1.1937118e-12 35 1.1937118e-12"></polyline>
        </g>
    </g>
</svg>